<mxfile host="app.diagrams.net" agent="Mozilla/5.0 (Windows NT 10.0; Win64; x64) AppleWebKit/537.36 (KHTML, like Gecko) Chrome/130.0.0.0 Safari/537.36" version="24.9.1">
  <diagram name="SAP_Start_L2" id="yzfCAtF7MlkF3A3rPHUN">
    <mxGraphModel dx="1092" dy="1727" grid="1" gridSize="10" guides="1" tooltips="1" connect="1" arrows="1" fold="1" page="1" pageScale="1" pageWidth="827" pageHeight="1169" math="0" shadow="0">
      <root>
        <mxCell id="0" />
        <mxCell id="1" parent="0" />
        <mxCell id="KJaW32-MUoOeKXqnR98N-1" value="" style="rounded=1;whiteSpace=wrap;html=1;strokeColor=#0070F2;fillColor=#EBF8FF;arcSize=24;absoluteArcSize=1;imageWidth=64;imageHeight=64;strokeWidth=1.5;container=0;" vertex="1" parent="1">
          <mxGeometry x="166.91" y="270" width="780" height="570" as="geometry" />
        </mxCell>
        <mxCell id="KJaW32-MUoOeKXqnR98N-2" value="&lt;b style=&quot;border-color: var(--border-color); color: rgb(0, 112, 242); font-size: 16px;&quot;&gt;&lt;b style=&quot;border-color: var(--border-color); font-family: arial;&quot;&gt;Automatização de Dados Mestres no Monitor de Entrada&lt;/b&gt;&lt;/b&gt;" style="text;html=1;align=left;verticalAlign=middle;resizable=0;points=[];autosize=1;strokeColor=none;fillColor=none;fontSize=12;fontColor=#1d2d3e;fontFamily=Helvetica;" vertex="1" parent="1">
          <mxGeometry x="48.160000000000004" y="-850" width="450" height="30" as="geometry" />
        </mxCell>
        <mxCell id="KJaW32-MUoOeKXqnR98N-3" value="" style="endArrow=none;html=1;strokeColor=#188918;bendable=1;rounded=0;endFill=0;endSize=4;strokeWidth=1.5;startSize=4;startArrow=none;startFill=0;edgeStyle=orthogonalEdgeStyle;exitX=1;exitY=0.75;exitDx=0;exitDy=0;" edge="1" parent="1" source="KJaW32-MUoOeKXqnR98N-18" target="KJaW32-MUoOeKXqnR98N-28">
          <mxGeometry width="50" height="50" relative="1" as="geometry">
            <mxPoint x="746.91" y="790" as="sourcePoint" />
            <mxPoint x="826.91" y="790" as="targetPoint" />
          </mxGeometry>
        </mxCell>
        <mxCell id="KJaW32-MUoOeKXqnR98N-4" value="Subaccount&lt;div&gt;&lt;font style=&quot;font-size: 12px;&quot;&gt;&lt;span style=&quot;font-weight: normal;&quot;&gt;Multi-Cloud&lt;/span&gt;&lt;/font&gt;&lt;/div&gt;" style="rounded=1;whiteSpace=wrap;html=1;strokeColor=#475E75;fillColor=#ffffff;arcSize=24;absoluteArcSize=1;imageWidth=64;imageHeight=64;strokeWidth=1.5;part=1;verticalAlign=top;align=left;fontSize=16;fontStyle=1;spacingLeft=10;spacingTop=10;" vertex="1" parent="1">
          <mxGeometry x="186.91" y="328" width="740" height="373.55" as="geometry" />
        </mxCell>
        <mxCell id="KJaW32-MUoOeKXqnR98N-5" value="" style="rounded=1;whiteSpace=wrap;html=1;strokeColor=#0070F2;fillColor=#EBF8FF;arcSize=24;absoluteArcSize=1;imageWidth=64;imageHeight=64;strokeWidth=1.5;container=0;" vertex="1" parent="1">
          <mxGeometry x="210.91" y="404" width="340" height="239.16" as="geometry" />
        </mxCell>
        <mxCell id="KJaW32-MUoOeKXqnR98N-6" style="edgeStyle=elbowEdgeStyle;rounded=0;orthogonalLoop=1;jettySize=auto;html=1;endArrow=blockThin;endFill=1;strokeWidth=1.5;strokeColor=#188918;endSize=4;startSize=4;entryX=0.289;entryY=1.001;entryDx=0;entryDy=0;entryPerimeter=0;" edge="1" parent="1" target="KJaW32-MUoOeKXqnR98N-5">
          <mxGeometry relative="1" as="geometry">
            <mxPoint x="309.91" y="657.14" as="targetPoint" />
            <mxPoint x="307.91" y="725.4907462686566" as="sourcePoint" />
          </mxGeometry>
        </mxCell>
        <mxCell id="KJaW32-MUoOeKXqnR98N-114" value="" style="edgeStyle=orthogonalEdgeStyle;rounded=0;orthogonalLoop=1;jettySize=auto;html=1;" edge="1" parent="1" source="KJaW32-MUoOeKXqnR98N-7" target="KJaW32-MUoOeKXqnR98N-48">
          <mxGeometry relative="1" as="geometry" />
        </mxCell>
        <mxCell id="KJaW32-MUoOeKXqnR98N-7" value="OIDC" style="rounded=1;whiteSpace=wrap;html=1;strokeColor=#188918;strokeWidth=1.5;arcSize=16;fillColor=#F5FAE5;perimeterSpacing=0;absoluteArcSize=1;fontColor=#188918;fontSize=10;fontStyle=1" vertex="1" parent="1">
          <mxGeometry x="288.91" y="676.8880597014926" width="40" height="15.785074626865672" as="geometry" />
        </mxCell>
        <mxCell id="KJaW32-MUoOeKXqnR98N-8" value="SAP Task&#xa;Center" style="shape=mxgraph.sap.icon;labelPosition=center;verticalLabelPosition=bottom;align=center;verticalAlign=top;strokeWidth=1;strokeColor=#D5DADD;fillColor=#EDEFF0;gradientColor=#FCFCFC;gradientDirection=west;aspect=fixed;SAPIcon=SAP_Task_Center;fontColor=#1D2D3E;" vertex="1" parent="1">
          <mxGeometry x="676.91" y="341.45522388059703" width="31.570149253731344" height="31.570149253731344" as="geometry" />
        </mxCell>
        <mxCell id="KJaW32-MUoOeKXqnR98N-9" style="edgeStyle=orthogonalEdgeStyle;rounded=0;orthogonalLoop=1;jettySize=auto;html=1;endArrow=blockThin;endFill=1;strokeWidth=1.5;strokeColor=#0070F2;endSize=4;startSize=4;targetPerimeterSpacing=2;" edge="1" parent="1" source="KJaW32-MUoOeKXqnR98N-10" target="KJaW32-MUoOeKXqnR98N-11">
          <mxGeometry relative="1" as="geometry">
            <mxPoint x="710.91" y="483.52089552238806" as="targetPoint" />
            <Array as="points">
              <mxPoint x="644.91" y="463.789552238806" />
              <mxPoint x="644.91" y="463.789552238806" />
            </Array>
          </mxGeometry>
        </mxCell>
        <mxCell id="KJaW32-MUoOeKXqnR98N-10" value="Deploy custom&#xa;and default apps" style="shape=image;editableCssRules=.*;verticalLabelPosition=middle;labelBackgroundColor=none;verticalAlign=middle;aspect=fixed;imageAspect=0;image=data:image/svg+xml,PHN2ZyB4bWxucz0iaHR0cDovL3d3dy53My5vcmcvMjAwMC9zdmciIHZpZXdCb3g9Ii0wLjUgLTAuNSAyNS4yNjYgMjgiIGhlaWdodD0iMjgiIHdpZHRoPSIyNS4yNjYiPiYjeGE7CSAgPHN0eWxlIHR5cGU9InRleHQvY3NzIj4uc3QwIHsgc3RvcC1jb2xvcjogcmdiKDM1LCAxNDksIDI1NSk7IH0gLnN0MSB7IHN0b3AtY29sb3I6IHJnYigwLCA4NywgMjEwKTsgfSA8L3N0eWxlPiYjeGE7CTxkZWZzPiYjeGE7CQk8bGluZWFyR3JhZGllbnQgZ3JhZGllbnRVbml0cz0idXNlclNwYWNlT25Vc2UiIHkyPSIyMy4xMTIiIHgyPSIyMy4xMzYiIHkxPSIzLjQ3NCIgeDE9IjEuNzkxIiBpZD0iQSI+JiN4YTsJCQk8c3RvcCBjbGFzcz0ic3QwIi8+JiN4YTsJCQk8c3RvcCBjbGFzcz0ic3QxIiBvZmZzZXQ9IjEiLz4mI3hhOwkJPC9saW5lYXJHcmFkaWVudD4mI3hhOwk8L2RlZnM+JiN4YTsJPHBhdGggZmlsbD0idXJsKCNBKSIgZD0iTTI0LjE2NCA2LjY2NGMuNDAxLjI1NS42MDIuNTgzLjYwMi45ODQgMCAuMTA5LS4wMTguMjAxLS4wNTUuMjczdjExLjE1NkExLjM5IDEuMzkgMCAwIDEgMjQgMjAuMzM2bC0xMS4xMDIgNi45NDVjLS4yNTUuMTQ2LS41MjkuMjE5LS44Mi4yMTktLjMyOCAwLS41NjUtLjA3My0uNzExLS4yMTlMLjIxMSAyMC4zMzZhMS43NSAxLjc1IDAgMCAxLS41NDctLjYwMWMtLjEwOS0uMjU1LS4xNjQtLjQ3NC0uMTY0LS42NTZWNy45MjJhMS4zOSAxLjM5IDAgMCAxIC43MTEtMS4yNThsNS41NzgtMy41Yy4yOTItLjEwOS41NjUtLjE2NC44Mi0uMTY0cy40OTIuMDU1LjcxMS4xNjRsMTEuMTU2IDdjLjE4Mi4wNzMuMzI4LjIzNy40MzguNDkyLjE0Ni4yMTkuMjE5LjQxOS4yMTkuNjAydjQuODY3YzAgLjk0OC0uNDU2IDEuNDIyLTEuMzY3IDEuNDIyLS40MDEgMC0uNzQ3LS4xMjgtMS4wMzktLjM4My0uMjU1LS4yNTUtLjM4My0uNjAyLS4zODMtMS4wMzl2LTQuMDQ3TDYuNjA5IDUuOTUzbC00LjE1NiAyLjY4djkuNjI1bDkuNzM0IDYuMTI1IDkuNzM0LTYuMTI1VjguNjMzTDExLjQ3NyAyLjA3Yy0uNDM3LS4yOTItLjY1Ni0uNjc0LS42NTYtMS4xNDggMC0uMTgyLjA3My0uNDU2LjIxOS0uODIuMzI4LS40MDEuNzQ3LS42MDIgMS4yNTgtLjYwMi4yOTIgMCAuNTI5LjA3My43MTEuMjE5ek0xMC4yNzMgMTcuMzgzYy40MzguMjU1LjY1Ni42MzguNjU2IDEuMTQ4IDAgLjI5Mi0uMDczLjU2NS0uMjE5LjgyLS4yOTIuNDAxLS43MTEuNjAyLTEuMjU4LjYwMmExLjU3IDEuNTcgMCAwIDEtLjcxMS0uMTY0bC0yLjc4OS0xLjY5NWMtLjQzNy0uMjkyLS42NTYtLjY1Ni0uNjU2LTEuMDk0IDAtLjI5Mi4wOTEtLjU4My4yNzMtLjg3NS4zMjgtLjQwMS43MjktLjYwMiAxLjIwMy0uNjAyLjI5MiAwIC41MjkuMDczLjcxMS4yMTl6Ii8+JiN4YTs8L3N2Zz4=;labelPosition=right;align=left;fontSize=10;fontColor=#556B82;" vertex="1" parent="1">
          <mxGeometry x="632.41" y="433.20597014925374" width="24.66417910447762" height="27.623880597014928" as="geometry" />
        </mxCell>
        <mxCell id="KJaW32-MUoOeKXqnR98N-11" value="HTML5 App&#xa;Repository" style="shape=mxgraph.sap.icon;labelPosition=center;verticalLabelPosition=bottom;align=center;verticalAlign=top;strokeWidth=1;strokeColor=#D5DADD;fillColor=#EDEFF0;gradientColor=#FCFCFC;gradientDirection=west;aspect=fixed;SAPIcon=HTML5_App_Repository;fontColor=#1D2D3E;" vertex="1" parent="1">
          <mxGeometry x="628.91" y="475.6283582089552" width="31.570149253731344" height="31.570149253731344" as="geometry" />
        </mxCell>
        <mxCell id="KJaW32-MUoOeKXqnR98N-12" value="Destination" style="shape=mxgraph.sap.icon;labelPosition=center;verticalLabelPosition=bottom;align=center;verticalAlign=top;strokeWidth=1;strokeColor=#D5DADD;fillColor=#EDEFF0;gradientColor=#FCFCFC;gradientDirection=west;aspect=fixed;SAPIcon=SAP_Destination_service;fontColor=#1D2D3E;" vertex="1" parent="1">
          <mxGeometry x="686.91" y="554.5537313432836" width="31.570149253731344" height="31.570149253731344" as="geometry" />
        </mxCell>
        <mxCell id="KJaW32-MUoOeKXqnR98N-13" style="edgeStyle=orthogonalEdgeStyle;rounded=0;orthogonalLoop=1;jettySize=auto;html=1;strokeColor=#0070F2;endArrow=none;endFill=0;strokeWidth=1.5;sourcePerimeterSpacing=50;targetPerimeterSpacing=5;" edge="1" parent="1" target="KJaW32-MUoOeKXqnR98N-10">
          <mxGeometry relative="1" as="geometry">
            <mxPoint x="690.91" y="410.51492537313436" as="sourcePoint" />
            <mxPoint x="654.91" y="444.05820895522385" as="targetPoint" />
            <Array as="points">
              <mxPoint x="690.91" y="424.3268656716418" />
              <mxPoint x="644.91" y="424.3268656716418" />
            </Array>
          </mxGeometry>
        </mxCell>
        <mxCell id="KJaW32-MUoOeKXqnR98N-14" value="read and display" style="edgeStyle=elbowEdgeStyle;rounded=0;orthogonalLoop=1;jettySize=auto;html=1;strokeColor=#475E75;endArrow=blockThin;endFill=1;strokeWidth=1.5;sourcePerimeterSpacing=0;targetPerimeterSpacing=0;endSize=4;startSize=4;elbow=vertical;verticalAlign=bottom;fontSize=10;labelBackgroundColor=none;fontColor=#556B82;" edge="1" parent="1">
          <mxGeometry relative="1" as="geometry">
            <mxPoint x="550.91" y="492.4000000000001" as="sourcePoint" />
            <mxPoint x="628.91" y="492.59731343283556" as="targetPoint" />
          </mxGeometry>
        </mxCell>
        <mxCell id="KJaW32-MUoOeKXqnR98N-15" style="edgeStyle=elbowEdgeStyle;rounded=0;orthogonalLoop=1;jettySize=auto;html=1;strokeColor=#475E75;endArrow=blockThin;endFill=1;strokeWidth=1.5;sourcePerimeterSpacing=0;targetPerimeterSpacing=0;endSize=4;startSize=4;elbow=vertical;" edge="1" parent="1">
          <mxGeometry relative="1" as="geometry">
            <mxPoint x="550.91" y="562.0953731343283" as="sourcePoint" />
            <mxPoint x="686.91" y="561.9958064516129" as="targetPoint" />
          </mxGeometry>
        </mxCell>
        <mxCell id="KJaW32-MUoOeKXqnR98N-16" value="Joule" style="shape=mxgraph.sap.icon;labelPosition=center;verticalLabelPosition=bottom;align=center;verticalAlign=top;strokeWidth=1;strokeColor=#D5DADD;fillColor=#EDEFF0;gradientColor=#FCFCFC;gradientDirection=west;aspect=fixed;SAPIcon=SAP_Digital_Assistant_Service" vertex="1" parent="1">
          <mxGeometry x="586.91" y="625.5731343283582" width="31.570149253731344" height="31.570149253731344" as="geometry" />
        </mxCell>
        <mxCell id="KJaW32-MUoOeKXqnR98N-17" style="edgeStyle=elbowEdgeStyle;rounded=0;orthogonalLoop=1;jettySize=auto;html=1;strokeColor=#475E75;endArrow=blockThin;endFill=1;strokeWidth=1.5;sourcePerimeterSpacing=0;targetPerimeterSpacing=0;endSize=4;startSize=4;elbow=vertical;" edge="1" parent="1">
          <mxGeometry relative="1" as="geometry">
            <mxPoint x="550.91" y="641.1348656716418" as="sourcePoint" />
            <mxPoint x="586.91" y="641.3716417910448" as="targetPoint" />
          </mxGeometry>
        </mxCell>
        <mxCell id="KJaW32-MUoOeKXqnR98N-18" value="SAP Cloud&#xa;Identity&#xa;Services" style="strokeColor=#0070F2;shadow=0;strokeWidth=1.5;rounded=1;absoluteArcSize=1;arcSize=20;align=left;fontSize=16;fontStyle=1;spacingLeft=15;spacing=0;container=1;collapsible=0;fontColor=#1D2D3E;" vertex="1" parent="1">
          <mxGeometry x="186.91" y="712.4" width="360" height="99.6" as="geometry" />
        </mxCell>
        <mxCell id="KJaW32-MUoOeKXqnR98N-19" value="Identity&#xa;Directory" style="shape=image;verticalLabelPosition=bottom;labelBackgroundColor=default;verticalAlign=top;aspect=fixed;imageAspect=0;image=data:image/svg+xml,PHN2ZyB4bWxucz0iaHR0cDovL3d3dy53My5vcmcvMjAwMC9zdmciIGZpbGw9Im5vbmUiIHZpZXdCb3g9IjAgMCAxNiAxNiIgaGVpZ2h0PSIxNiIgd2lkdGg9IjE2Ij4mI3hhOzxjaXJjbGUgc3Ryb2tlLXdpZHRoPSIwLjI4NTcwOCIgc3Ryb2tlPSIjRDVEQUREIiBmaWxsPSJ1cmwoI3BhaW50MF9saW5lYXJfMzg5MF8yMTUyMCkiIHI9IjcuODU2OTYiIGN5PSI3Ljk5Nzg2IiBjeD0iNy45OTY4OSIvPiYjeGE7PGcgY2xpcC1wYXRoPSJ1cmwoI2NsaXAwXzM4OTBfMjE1MjApIj4mI3hhOzxwYXRoIGZpbGw9InVybCgjcGFpbnQxX2xpbmVhcl8zODkwXzIxNTIwKSIgZD0iTTQuNjg1NDQgMy43MTg5N0M0LjQxMzUxIDMuODI2NjkgNC4xNTU0IDMuOTczMiAzLjk1NjYzIDQuMTc1NkMzLjgyNjY3IDQuMzA3OTQgMy41OTcxNyA0LjU2MzU2IDMuNTk3MTcgNS4wNDU5NVY5LjcyMzMyQzMuNTk3NSAxMC41NDAyIDQuMjAwMzUgMTAuOTgxNSA0LjczNTk3IDExLjIwMDJDNS4zMDI3NCAxMS40MzE3IDYuMDIyOTMgMTEuNTIyNSA2LjcwOTUxIDExLjUyM0M2Ljc5OTU3IDExLjUyMyA2LjkzOTA4IDExLjUwNiA3LjA4NDQzIDExLjQ4NTRDNy4zNjE3MiAxMS40NDYzIDcuNTc1MjkgMTEuMjAzMiA3LjU3NTI5IDEwLjkyMzFDNy41NzUyOSAxMC42MDU2IDcuMzAzODEgMTAuMzcyOSA2Ljk4ODk1IDEwLjQxNDNDNi44ODA4MSAxMC40Mjg1IDYuNzgxMzIgMTAuNDM4NyA2LjcxMDEgMTAuNDM4N0M2LjA3OTEgMTAuNDM4MiA1LjQ4Mzc0IDEwLjM1MjIgNS4wNjQzNyAxMC4xODA5QzQuNjEzOTggOS45OTcwMiA0LjU2MDI3IDkuODA5OSA0LjU2MDI3IDkuNzIyNjVMNC41NTk3MyA5LjA1NzI2QzQuNzMyNzYgOS4xMTYxOCA0LjkxNDMzIDkuMTY0NTUgNS4wOTc4IDkuMjA0MTZDNS41OTkyMiA5LjMxMjQxIDYuMTY3NTkgOS4zNjYwNyA2LjcyODkxIDkuMzY3MzlDNi44MjA0MyA5LjM2NzYxIDYuODk5MTkgOS4zNjkwMSA2Ljk5MDcyIDkuMzY2NDJDNy4xNzE2OSA5LjM2MTMxIDcuMzEyMTggOS4yMTA2NSA3LjMxMjE4IDkuMDI5NjFDNy4zMTIxOCA4LjgzMDA1IDcuMTQyNjkgOC42NzMwOCA2Ljk0MzE5IDguNjc4MTNDNi44Njg0NiA4LjY4MDAzIDYuODA2MjQgOC42NzgzMSA2LjczMDk0IDguNjc4MTRDNi4yMTg0NyA4LjY3NjkyIDUuNzExMyA4LjYyNzU5IDUuMjc5MTggOC41MzQzQzQuOTc3NjYgOC40NjkyIDQuNzM1MTggOC4zODczNyA0LjU1NzQyIDguMjk5OTdMNC41NTYzIDcuNDg3OTRDNC43MzAzNiA3LjU0NzM5IDQuOTEzMTIgNy41OTYxNCA1LjA5NzggNy42MzYwMUM1LjU5OTIyIDcuNzQ0MjYgNi4xNjc1OSA3Ljc5NzkyIDYuNzI4OTEgNy43OTkyNUM3LjE5MDg2IDcuODAwMzQgNy42NTcwOSA3Ljc2NjAxIDguMDg2MDQgNy42OTM2M0M4LjU0MDMgNy42MzYwMSA4LjQ5MzQ0IDYuOTQyNjYgOC4wODYwNCA3LjAyMjgyQzcuNjc4NjQgNy4xMDI5OSA3LjIwODI5IDcuMTQzNjQgNi43MzA5NCA3LjE0MjUxQzYuMjE4NDcgNy4xNDEzIDUuNzExMyA3LjA5MTk3IDUuMjc5MTggNi45OTg2OEM0Ljk3NTcyIDYuOTMzMTYgNC43MzIwNyA2Ljg1MDcgNC41NTQwMSA2Ljc2MjY3TDQuNTUyNjcgNS45MDU4NEM0LjU5OTE2IDUuOTI2NzUgNC42NDYzMSA1Ljk0NjQgNC42OTM4NiA1Ljk2NDg4QzUuMjM5ODYgNi4xNzcxNyA1Ljk1NTIgNi4yODAxNCA2LjcwOTgxIDYuMjgwMTRDNy40NzA3MSA2LjI4MDE0IDguMTkzMDYgNi4xNzU0NSA4Ljc0MzE1IDUuOTU5NjdDOC43OTA2IDUuOTQxMDYgOC44Mzc2NSA1LjkyMTI4IDguODg0MDYgNS45MDAyNUw4Ljg4NDA2IDYuNTk0NzJMOC44ODE5NiA2LjM1ODk3QzguODgxNzcgNi41Njc0NCA5LjA1MDcyIDYuNzM2NTMgOS4yNTkxOSA2LjczNjUzSDkuMzY0NTVDOS42MzEwMyA2LjczNjUzIDkuODQ3MDUgNi41MjA1MSA5Ljg0NzA0IDYuMjU0MDNMOS44NDcwMSA1LjA0NTk1QzkuODQ3MDEgNC42NzY2IDkuNjgzOTcgNC4zODMxOCA5LjQ3NzM2IDQuMTc0MzFDOS4yNzcxNiAzLjk3MTkxIDkuMDE2NjYgMy44MjU3NiA4Ljc0MzAxIDMuNzE4NDFDOC4xOTI5MSAzLjUwMjY0IDcuNDcwNTYgMy4zOTc5NSA2LjcwOTY2IDMuMzk3OTVDNS45NDg3NiAzLjM5Nzk1IDUuMjMxNTYgMy41MDI2MyA0LjY4NTQ0IDMuNzE4OTdaIiBjbGlwLXJ1bGU9ImV2ZW5vZGQiIGZpbGwtcnVsZT0iZXZlbm9kZCIvPiYjeGE7PHBhdGggZmlsbD0idXJsKCNwYWludDJfbGluZWFyXzM4OTBfMjE1MjApIiBkPSJNMTAuNTUwMSA3LjQzNDQyQzEwLjU4NzQgNy4xOTU3IDEwLjgxMTIgNy4wMzI0NCAxMS4wNDk5IDcuMDY5NzdDMTEuOTA2NCA3LjIwMzcyIDEyLjc0ODggNy42MTA5IDEzLjQ0MTYgOC4zMDc1NkMxMy42MTIgOC40Nzg4OSAxMy42MTEzIDguNzU1OSAxMy40Mzk5IDguOTI2MjhDMTMuMjY4NiA5LjA5NjY2IDEyLjk5MTYgOS4wOTU5IDEyLjgyMTIgOC45MjQ1OEMxMi4yNjA2IDguMzYwODkgMTEuNTg4NiA4LjAzOTY1IDEwLjkxNDcgNy45MzQyNkMxMC42NzYgNy44OTY5MyAxMC41MTI4IDcuNjczMTQgMTAuNTUwMSA3LjQzNDQyWiIgY2xpcC1ydWxlPSJldmVub2RkIiBmaWxsLXJ1bGU9ImV2ZW5vZGQiLz4mI3hhOzxwYXRoIGZpbGw9InVybCgjcGFpbnQzX2xpbmVhcl8zODkwXzIxNTIwKSIgZD0iTTEwLjkzMzcgMTEuMTcwNEMxMC45MzM3IDEwLjkyODggMTAuNzM3OSAxMC43MzI5IDEwLjQ5NjIgMTAuNzMyOUMxMC4yNTQ2IDEwLjczMjkgMTAuMDU4NyAxMC45Mjg4IDEwLjA1ODcgMTEuMTcwNEMxMC4wNTg3IDExLjUxNCAxMC4xNTA4IDExLjg4MDIgMTAuMzM0MiAxMi4xNzY0QzEwLjM1MzEgMTIuMjA3IDEwLjM3MjIgMTIuMjM3NCAxMC4zOTUxIDEyLjI2NDlDMTAuNTM3NCAxMi40MzUgMTAuNzk0NiAxMi40NzM2IDEwLjk4MDMgMTIuMzQ1NEMxMS4xNzggMTIuMjA4OCAxMS4yMjg0IDExLjkzODUgMTEuMDkzOCAxMS43NEMxMC45ODg2IDExLjU3MzggMTAuOTMzNyAxMS4zNjU3IDEwLjkzMzcgMTEuMTcwNFoiLz4mI3hhOzxwYXRoIGZpbGw9InVybCgjcGFpbnQ0X2xpbmVhcl8zODkwXzIxNTIwKSIgZD0iTTEzLjI4NTYgMTAuOTAwM0MxMy4zMzE2IDkuNzc0MDMgMTIuNDY0NCA4LjgyOTkxIDExLjQ1NDkgOC40NTA4MUMxMC40MDkzIDguMDU4MTMgOS4xMDEzMSA4LjIxOTk5IDguMTk2MTIgOS4zOTc2OEM4LjA0ODg3IDkuNTg5MjUgOC4wODQ4IDkuODYzOTIgOC4yNzYzNyAxMC4wMTEyQzguNDY3OTUgMTAuMTU4NCA4Ljc0MjYyIDEwLjEyMjUgOC44ODk4NyA5LjkzMDkxQzkuNTI3MDIgOS4xMDE5NiAxMC40MDc4IDguOTkyMjQgMTEuMTQ3MyA5LjI2OTk1QzExLjkyMyA5LjU2MTI2IDEyLjQzNzMgMTAuMjI5NSAxMi40MTEzIDEwLjg2NDVDMTIuNDA2NSAxMC45ODI1IDEyLjM2NjcgMTEuMDQyNCAxMi4zMzYyIDExLjA3MjJDMTIuMzAxOCAxMS4xMDU5IDEyLjI1NzUgMTEuMTIyOSAxMi4yMTUxIDExLjEyMzdDMTIuMTczNiAxMS4xMjQ1IDEyLjE0MjUgMTEuMTEwMyAxMi4xMjE4IDExLjA4OTRDMTIuMTA0MSAxMS4wNzE3IDEyLjA2MzIgMTEuMDE4IDEyLjA2MzIgMTAuODgyNEMxMi4wNjMyIDEwLjUwODIgMTEuODI1NyAxMC4xMDcxIDExLjQ4MTMgOS44NDg2QzExLjExMDQgOS41NzAyMyAxMC41ODU2IDkuNDI4MDkgOS45Njg5NSA5LjU5ODI1TDkuOTU5OTIgOS42MDA3NUw5Ljk1MSA5LjYwMzYyQzkuMzYwNDcgOS43OTQxMiA4Ljk4Mzc5IDEwLjM0NjEgOC44OTkxNiAxMC45OTExQzguODEzNjkgMTEuNjQyNCA5LjAxMzc5IDEyLjQwODYgOS41NjU4NyAxMy4xNTM2QzkuNzA5NzMgMTMuMzQ3OCA5Ljk4MzczIDEzLjM4ODUgMTAuMTc3OSAxMy4yNDQ3QzEwLjM3MiAxMy4xMDA4IDEwLjQxMjcgMTIuODI2OCAxMC4yNjg5IDEyLjYzMjdDOS44MjU0NSAxMi4wMzQzIDkuNzE2MDcgMTEuNDkwOSA5Ljc2NjcyIDExLjEwNDlDOS44MTc1MSAxMC43MTc5IDEwLjAxNzcgMTAuNTA1NSAxMC4yMTE2IDEwLjQzOUMxMC41NTggMTAuMzQ2MyAxMC44MDAzIDEwLjQzMTUgMTAuOTU2IDEwLjU0ODRDMTEuMDM5NSAxMC42MTEgMTEuMTAxNCAxMC42ODU1IDExLjE0MDkgMTAuNzU0OUMxMS4xODMgMTAuODI2OSAxMS4xODY1IDEwLjg2MzUgMTEuMTg4OSAxMC45MjgzQzExLjE5ODQgMTEuMjM3OCAxMS4zMDUyIDExLjUwOTMgMTEuNTAxNSAxMS43MDY2QzExLjcwNDQgMTEuOTEwNSAxMS45NzIzIDEyLjAwMzYgMTIuMjMyIDExLjk5ODZDMTIuNzY0NiAxMS45ODgzIDEzLjI1ODIgMTEuNTcyMyAxMy4yODU2IDEwLjkwMDNaIi8+JiN4YTs8L2c+JiN4YTs8ZGVmcz4mI3hhOzxsaW5lYXJHcmFkaWVudCBncmFkaWVudFVuaXRzPSJ1c2VyU3BhY2VPblVzZSIgeTI9IjE0Ljc0NTgiIHgyPSIxMy42ODQ5IiB5MT0iMi4yNjg5NCIgeDE9IjEuNDQ3OTkiIGlkPSJwYWludDBfbGluZWFyXzM4OTBfMjE1MjAiPiYjeGE7PHN0b3Agc3RvcC1jb2xvcj0id2hpdGUiLz4mI3hhOzxzdG9wIHN0b3AtY29sb3I9IiNFQUVDRUUiIG9mZnNldD0iMSIvPiYjeGE7PC9saW5lYXJHcmFkaWVudD4mI3hhOzxsaW5lYXJHcmFkaWVudCBncmFkaWVudFVuaXRzPSJ1c2VyU3BhY2VPblVzZSIgeTI9IjguODQ0NTUiIHgyPSIxMC4wMzMzIiB5MT0iNC42MTI5OSIgeDE9IjQuNTM0MDUiIGlkPSJwYWludDFfbGluZWFyXzM4OTBfMjE1MjAiPiYjeGE7PHN0b3Agc3RvcC1jb2xvcj0iIzAxOTVGRiIvPiYjeGE7PHN0b3Agc3RvcC1jb2xvcj0iIzExNDdFOSIgb2Zmc2V0PSIwLjk5MTAyOCIvPiYjeGE7PC9saW5lYXJHcmFkaWVudD4mI3hhOzxsaW5lYXJHcmFkaWVudCBncmFkaWVudFVuaXRzPSJ1c2VyU3BhY2VPblVzZSIgeTI9IjExLjc5MjgiIHgyPSIxMy4yNjAyIiB5MT0iNy45ODYzNSIgeDE9IjguOTEzMjEiIGlkPSJwYWludDJfbGluZWFyXzM4OTBfMjE1MjAiPiYjeGE7PHN0b3Agc3RvcC1jb2xvcj0iIzEzNDhGRiIvPiYjeGE7PHN0b3Agc3RvcC1jb2xvcj0iIzA2MjM4RCIgb2Zmc2V0PSIxIi8+JiN4YTs8L2xpbmVhckdyYWRpZW50PiYjeGE7PGxpbmVhckdyYWRpZW50IGdyYWRpZW50VW5pdHM9InVzZXJTcGFjZU9uVXNlIiB5Mj0iMTEuNzkyOCIgeDI9IjEzLjI2MDIiIHkxPSI3Ljk4NjM1IiB4MT0iOC45MTMyMSIgaWQ9InBhaW50M19saW5lYXJfMzg5MF8yMTUyMCI+JiN4YTs8c3RvcCBzdG9wLWNvbG9yPSIjMTM0OEZGIi8+JiN4YTs8c3RvcCBzdG9wLWNvbG9yPSIjMDYyMzhEIiBvZmZzZXQ9IjEiLz4mI3hhOzwvbGluZWFyR3JhZGllbnQ+JiN4YTs8bGluZWFyR3JhZGllbnQgZ3JhZGllbnRVbml0cz0idXNlclNwYWNlT25Vc2UiIHkyPSIxMS43OTI4IiB4Mj0iMTMuMjYwMiIgeTE9IjcuOTg2MzUiIHgxPSI4LjkxMzIxIiBpZD0icGFpbnQ0X2xpbmVhcl8zODkwXzIxNTIwIj4mI3hhOzxzdG9wIHN0b3AtY29sb3I9IiMxMzQ4RkYiLz4mI3hhOzxzdG9wIHN0b3AtY29sb3I9IiMwNjIzOEQiIG9mZnNldD0iMSIvPiYjeGE7PC9saW5lYXJHcmFkaWVudD4mI3hhOzxjbGlwUGF0aCBpZD0iY2xpcDBfMzg5MF8yMTUyMCI+JiN4YTs8cmVjdCB0cmFuc2Zvcm09InRyYW5zbGF0ZSgzLjU5NzE3IDMuMzk3OTUpIiBmaWxsPSJ3aGl0ZSIgaGVpZ2h0PSIxMCIgd2lkdGg9IjEwIi8+JiN4YTs8L2NsaXBQYXRoPiYjeGE7PC9kZWZzPiYjeGE7PC9zdmc+;fontColor=#1D2D3E;" vertex="1" parent="KJaW32-MUoOeKXqnR98N-18">
          <mxGeometry x="130" y="26.807206306238527" width="25.68694388049228" height="25.68694388049228" as="geometry" />
        </mxCell>
        <mxCell id="KJaW32-MUoOeKXqnR98N-20" value="Identity&#xa;Authentication" style="shape=image;verticalLabelPosition=bottom;labelBackgroundColor=default;verticalAlign=top;aspect=fixed;imageAspect=0;image=data:image/svg+xml,PHN2ZyB4bWxucz0iaHR0cDovL3d3dy53My5vcmcvMjAwMC9zdmciIGZpbGw9Im5vbmUiIHZpZXdCb3g9IjAgMCAxNiAxNiIgaGVpZ2h0PSIxNiIgd2lkdGg9IjE2Ij4mI3hhOzxjaXJjbGUgc3Ryb2tlLXdpZHRoPSIwLjI4NTcwOCIgc3Ryb2tlPSIjRDVEQUREIiBmaWxsPSJ1cmwoI3BhaW50MF9saW5lYXJfMzg5MF8yMTUxMykiIHI9IjcuODU2OTYiIGN5PSI3Ljk5Nzg2IiBjeD0iNy45OTkzMyIvPiYjeGE7PHBhdGggZmlsbD0idXJsKCNwYWludDFfbGluZWFyXzM4OTBfMjE1MTMpIiBkPSJNNy4xNzQ4NCAzLjQxNDlMMTAuMTkzNiA0LjI4NTYxSDEwLjE5MjhDMTAuNDA2NSA0LjM0MjkgMTAuNTEzMyA0LjQ4NDkzIDEwLjUxMzMgNC43MTI0OVY2LjIzMDQ0QzEwLjAxNjEgNi4zNzgwNSA5LjY1MjU1IDYuNzY4MjQgOS41NTU4MyA3LjQ0NTUzQzkuNTU1ODMgNy40NDU1MyA5LjI2OTcxIDcuNDYxODcgOC42MzQ4NiA3LjgwMTE2QzggOC4xNDA0NCA3LjU2MzcxIDguNjkwNTQgNy41NjM3MSA4LjY5MDU0QzcuMTM3NDggOS4xNzM1MSA3LjAzMzEyIDkuNDk2MjYgNy4xODA2NiAxMC4yMDMxQzcuMzcwMDQgMTAuNjQzNyA3LjUzMjQ4IDEwLjgxOTggNy45MDEzMSAxMS4wMzQxQzcuOTAxMzEgMTEuMDM0MSA3Ljg1MTMxIDExLjI5OTYgNy45MDI2NCAxMS43Mzc3QzcuNzU0NzYgMTEuODI3OSA3LjYyNDQgMTEuOTAxNCA3LjUxMTY3IDExLjk1ODZDNy4zNDMwNiAxMi4wNDQyIDcuMjQ3MzkgMTIuMDkyNiA3LjIyNTA2IDEyLjEwMzlDNy4xNTc3IDEyLjEyNjkgNy4xMDE0OSAxMi4xMzgyIDcuMDU2NDUgMTIuMTM4MkM3LjAxMTQgMTIuMTM4MiA2Ljk1NTIgMTIuMTI2NSA2Ljg4NzgzIDEyLjEwMzlDNi44NjUxMSAxMi4wOTI2IDYuNzY5ODQgMTIuMDQ3IDYuNjAxMjIgMTEuOTY3NUM2LjQzMjYxIDExLjg4NzYgNi4yMjQ1MyAxMS43NjU0IDUuOTc3MzggMTEuNjAwM0M1LjczMDI0IDExLjQzNTMgNS40Njg3NCAxMS4yMzMyIDUuMTkzMjkgMTAuOTk0M0M0LjkxNzg1IDEwLjc1NTQgNC42NjE5MyAxMC40NzY2IDQuNDI1OTUgMTAuMTU3OUM0LjE4OTU3IDkuODM5NTQgMy45OTMwNSA5LjQ4MTI1IDMuODM1NTkgOS4wODI2MUMzLjY3ODE0IDguNjg0MzcgMy41OTk2MSA4LjI0NjE5IDMuNTk5NjEgNy43NjgwNlY0LjcxMjQ5QzMuNTk5NjEgNC40ODQ5MyAzLjcwNjQ0IDQuMzQyNSAzLjkyMDEgNC4yODU2MUw2LjkzODg1IDMuNDE0OUM3LjAwNjIyIDMuMzkyMyA3LjA4NDc1IDMuMzkyMyA3LjE3NDg0IDMuNDE0OVoiLz4mI3hhOzxwYXRoIGZpbGw9InVybCgjcGFpbnQyX2xpbmVhcl8zODkwXzIxNTEzKSIgZD0iTTEwLjU1MjUgNy41MTg4OUMxMC41ODk5IDcuMjgwMTcgMTAuODEzNiA3LjExNjkxIDExLjA1MjQgNy4xNTQyNEMxMS45MDg5IDcuMjg4MTkgMTIuNzUxMiA3LjY5NTM3IDEzLjQ0NDEgOC4zOTIwNEMxMy42MTQ1IDguNTYzMzYgMTMuNjEzNyA4Ljg0MDM3IDEzLjQ0MjQgOS4wMTA3NUMxMy4yNzExIDkuMTgxMTQgMTIuOTk0MSA5LjE4MDM3IDEyLjgyMzcgOS4wMDkwNUMxMi4yNjMxIDguNDQ1MzYgMTEuNTkxMSA4LjEyNDEyIDEwLjkxNzIgOC4wMTg3M0MxMC42Nzg1IDcuOTgxNCAxMC41MTUyIDcuNzU3NjEgMTAuNTUyNSA3LjUxODg5WiIgY2xpcC1ydWxlPSJldmVub2RkIiBmaWxsLXJ1bGU9ImV2ZW5vZGQiLz4mI3hhOzxwYXRoIGZpbGw9InVybCgjcGFpbnQzX2xpbmVhcl8zODkwXzIxNTEzKSIgZD0iTTEwLjkzNjIgMTEuMjU0OUMxMC45MzYyIDExLjAxMzMgMTAuNzQwMyAxMC44MTc0IDEwLjQ5ODcgMTAuODE3NEMxMC4yNTcxIDEwLjgxNzQgMTAuMDYxMiAxMS4wMTMzIDEwLjA2MTIgMTEuMjU0OUMxMC4wNjEyIDExLjU5ODUgMTAuMTUzMiAxMS45NjQ2IDEwLjMzNjYgMTIuMjYwOUMxMC4zNTU1IDEyLjI5MTQgMTAuMzc0NiAxMi4zMjE5IDEwLjM5NzYgMTIuMzQ5M0MxMC41Mzk4IDEyLjUxOTUgMTAuNzk3IDEyLjU1ODEgMTAuOTgyNyAxMi40Mjk4QzExLjE4MDUgMTIuMjkzMiAxMS4yMzA4IDEyLjAyMjkgMTEuMDk2MiAxMS44MjQ0QzEwLjk5MSAxMS42NTgzIDEwLjkzNjIgMTEuNDUwMiAxMC45MzYyIDExLjI1NDlaIi8+JiN4YTs8cGF0aCBmaWxsPSJ1cmwoI3BhaW50NF9saW5lYXJfMzg5MF8yMTUxMykiIGQ9Ik0xMy4yODggMTAuOTg0N0MxMy4zMzQxIDkuODU4NSAxMi40NjY4IDguOTE0MzggMTEuNDU3MyA4LjUzNTI5QzEwLjQxMTcgOC4xNDI2IDkuMTAzNzUgOC4zMDQ0NiA4LjE5ODU2IDkuNDgyMTVDOC4wNTEzMSA5LjY3MzcyIDguMDg3MjQgOS45NDgzOSA4LjI3ODgyIDEwLjA5NTZDOC40NzAzOSAxMC4yNDI5IDguNzQ1MDYgMTAuMjA3IDguODkyMzEgMTAuMDE1NEM5LjUyOTQ2IDkuMTg2NDMgMTAuNDEwMiA5LjA3NjcxIDExLjE0OTcgOS4zNTQ0M0MxMS45MjU0IDkuNjQ1NzMgMTIuNDM5NyAxMC4zMTQgMTIuNDEzOCAxMC45NDlDMTIuNDA5IDExLjA2NyAxMi4zNjkyIDExLjEyNjkgMTIuMzM4NiAxMS4xNTY3QzEyLjMwNDMgMTEuMTkwNCAxMi4yNTk5IDExLjIwNzQgMTIuMjE3NiAxMS4yMDgyQzEyLjE3NjEgMTEuMjA5IDEyLjE0NSAxMS4xOTQ3IDEyLjEyNDIgMTEuMTczOUMxMi4xMDY2IDExLjE1NjEgMTIuMDY1NiAxMS4xMDI0IDEyLjA2NTYgMTAuOTY2OUMxMi4wNjU2IDEwLjU5MjYgMTEuODI4MiAxMC4xOTE2IDExLjQ4MzcgOS45MzMwOEMxMS4xMTI4IDkuNjU0NzEgMTAuNTg4MSA5LjUxMjU3IDkuOTcxMzkgOS42ODI3M0w5Ljk2MjM2IDkuNjg1MjJMOS45NTM0NCA5LjY4ODA5QzkuMzYyOTEgOS44Nzg1OSA4Ljk4NjIzIDEwLjQzMDYgOC45MDE2IDExLjA3NTVDOC44MTYxMyAxMS43MjY5IDkuMDE2MjMgMTIuNDkzMSA5LjU2ODMxIDEzLjIzODFDOS43MTIxNyAxMy40MzIyIDkuOTg2MTcgMTMuNDczIDEwLjE4MDMgMTMuMzI5MUMxMC4zNzQ0IDEzLjE4NTMgMTAuNDE1MiAxMi45MTEzIDEwLjI3MTMgMTIuNzE3MUM5LjgyNzkgMTIuMTE4OCA5LjcxODUyIDExLjU3NTMgOS43NjkxNiAxMS4xODk0QzkuODE5OTUgMTAuODAyNCAxMC4wMjAxIDEwLjU5IDEwLjIxNCAxMC41MjM1QzEwLjU2MDUgMTAuNDMwOCAxMC44MDI4IDEwLjUxNiAxMC45NTg1IDEwLjYzMjlDMTEuMDQxOSAxMC42OTU1IDExLjEwMzkgMTAuNzcgMTEuMTQzNCAxMC44Mzk0QzExLjE4NTQgMTAuOTExNCAxMS4xODg5IDEwLjk0OCAxMS4xOTEzIDExLjAxMjhDMTEuMjAwOSAxMS4zMjIzIDExLjMwNzYgMTEuNTkzNyAxMS41MDQgMTEuNzkxMUMxMS43MDY5IDExLjk5NSAxMS45NzQ3IDEyLjA4ODEgMTIuMjM0NSAxMi4wODNDMTIuNzY3IDEyLjA3MjcgMTMuMjYwNiAxMS42NTY4IDEzLjI4OCAxMC45ODQ3WiIvPiYjeGE7PGRlZnM+JiN4YTs8bGluZWFyR3JhZGllbnQgZ3JhZGllbnRVbml0cz0idXNlclNwYWNlT25Vc2UiIHkyPSIxNC43NDU4IiB4Mj0iMTMuNjg3NCIgeTE9IjIuMjY4OTQiIHgxPSIxLjQ1MDQzIiBpZD0icGFpbnQwX2xpbmVhcl8zODkwXzIxNTEzIj4mI3hhOzxzdG9wIHN0b3AtY29sb3I9IndoaXRlIi8+JiN4YTs8c3RvcCBzdG9wLWNvbG9yPSIjRUFFQ0VFIiBvZmZzZXQ9IjEiLz4mI3hhOzwvbGluZWFyR3JhZGllbnQ+JiN4YTs8bGluZWFyR3JhZGllbnQgZ3JhZGllbnRVbml0cz0idXNlclNwYWNlT25Vc2UiIHkyPSI5LjQxNzg5IiB4Mj0iMTAuNTkxOSIgeTE9IjQuNzA1IiB4MT0iNC42MzYiIGlkPSJwYWludDFfbGluZWFyXzM4OTBfMjE1MTMiPiYjeGE7PHN0b3Agc3RvcC1jb2xvcj0iIzAxOTVGRiIvPiYjeGE7PHN0b3Agc3RvcC1jb2xvcj0iIzExNDdFOSIgb2Zmc2V0PSIwLjk5MTAyOCIvPiYjeGE7PC9saW5lYXJHcmFkaWVudD4mI3hhOzxsaW5lYXJHcmFkaWVudCBncmFkaWVudFVuaXRzPSJ1c2VyU3BhY2VPblVzZSIgeTI9IjExLjg3NzMiIHgyPSIxMy4yNjI3IiB5MT0iOC4wNzA4MiIgeDE9IjguOTE1NjUiIGlkPSJwYWludDJfbGluZWFyXzM4OTBfMjE1MTMiPiYjeGE7PHN0b3Agc3RvcC1jb2xvcj0iIzEzNDhGRiIvPiYjeGE7PHN0b3Agc3RvcC1jb2xvcj0iIzA2MjM4RCIgb2Zmc2V0PSIxIi8+JiN4YTs8L2xpbmVhckdyYWRpZW50PiYjeGE7PGxpbmVhckdyYWRpZW50IGdyYWRpZW50VW5pdHM9InVzZXJTcGFjZU9uVXNlIiB5Mj0iMTEuODc3MyIgeDI9IjEzLjI2MjciIHkxPSI4LjA3MDgyIiB4MT0iOC45MTU2NSIgaWQ9InBhaW50M19saW5lYXJfMzg5MF8yMTUxMyI+JiN4YTs8c3RvcCBzdG9wLWNvbG9yPSIjMTM0OEZGIi8+JiN4YTs8c3RvcCBzdG9wLWNvbG9yPSIjMDYyMzhEIiBvZmZzZXQ9IjEiLz4mI3hhOzwvbGluZWFyR3JhZGllbnQ+JiN4YTs8bGluZWFyR3JhZGllbnQgZ3JhZGllbnRVbml0cz0idXNlclNwYWNlT25Vc2UiIHkyPSIxMS44NzczIiB4Mj0iMTMuMjYyNyIgeTE9IjguMDcwODIiIHgxPSI4LjkxNTY1IiBpZD0icGFpbnQ0X2xpbmVhcl8zODkwXzIxNTEzIj4mI3hhOzxzdG9wIHN0b3AtY29sb3I9IiMxMzQ4RkYiLz4mI3hhOzxzdG9wIHN0b3AtY29sb3I9IiMwNjIzOEQiIG9mZnNldD0iMSIvPiYjeGE7PC9saW5lYXJHcmFkaWVudD4mI3hhOzwvZGVmcz4mI3hhOzwvc3ZnPg==;fontColor=#1D2D3E;" vertex="1" parent="KJaW32-MUoOeKXqnR98N-18">
          <mxGeometry x="211.00000000000023" y="25.60313081184045" width="25.68694388049228" height="25.68694388049228" as="geometry" />
        </mxCell>
        <mxCell id="KJaW32-MUoOeKXqnR98N-21" value="Identity&#xa;Provisoning" style="shape=image;verticalLabelPosition=bottom;labelBackgroundColor=default;verticalAlign=top;aspect=fixed;imageAspect=0;image=data:image/svg+xml,PHN2ZyB4bWxucz0iaHR0cDovL3d3dy53My5vcmcvMjAwMC9zdmciIGZpbGw9Im5vbmUiIHZpZXdCb3g9IjAgMCAxNiAxNiIgaGVpZ2h0PSIxNiIgd2lkdGg9IjE2Ij4mI3hhOzxjaXJjbGUgc3Ryb2tlLXdpZHRoPSIwLjI4NTcwOCIgc3Ryb2tlPSIjRDVEQUREIiBmaWxsPSJ1cmwoI3BhaW50MF9saW5lYXJfMzg5MF8yMTUxNCkiIHI9IjcuODU2OTYiIGN5PSI3Ljk5Nzg2IiBjeD0iNy45OTg4NCIvPiYjeGE7PHBhdGggZmlsbD0idXJsKCNwYWludDFfbGluZWFyXzM4OTBfMjE1MTQpIiBkPSJNOS45NTE5NCA3LjUxODg5QzkuOTg5MjcgNy4yODAxNyAxMC4yMTMxIDcuMTE2OTEgMTAuNDUxOCA3LjE1NDI0QzExLjMwODMgNy4yODgxOSAxMi4xNTA3IDcuNjk1MzcgMTIuODQzNSA4LjM5MjA0QzEzLjAxMzkgOC41NjMzNiAxMy4wMTMxIDguODQwMzcgMTIuODQxOCA5LjAxMDc1QzEyLjY3MDUgOS4xODExNCAxMi4zOTM1IDkuMTgwMzcgMTIuMjIzMSA5LjAwOTA1QzExLjY2MjUgOC40NDUzNiAxMC45OTA1IDguMTI0MTIgMTAuMzE2NiA4LjAxODczQzEwLjA3NzkgNy45ODE0IDkuOTE0NjEgNy43NTc2MSA5Ljk1MTk0IDcuNTE4ODlaIiBjbGlwLXJ1bGU9ImV2ZW5vZGQiIGZpbGwtcnVsZT0iZXZlbm9kZCIvPiYjeGE7PHBhdGggZmlsbD0idXJsKCNwYWludDJfbGluZWFyXzM4OTBfMjE1MTQpIiBkPSJNMTAuMzM1NiAxMS4yNTQ5QzEwLjMzNTYgMTEuMDEzMyAxMC4xMzk3IDEwLjgxNzQgOS44OTgwOSAxMC44MTc0QzkuNjU2NDcgMTAuODE3NCA5LjQ2MDU5IDExLjAxMzMgOS40NjA1OSAxMS4yNTQ5QzkuNDYwNTkgMTEuNTk4NSA5LjU1MjY0IDExLjk2NDYgOS43MzYwMSAxMi4yNjA5QzkuNzU0OTQgMTIuMjkxNCA5Ljc3NDAxIDEyLjMyMTkgOS43OTY5NyAxMi4zNDkzQzkuOTM5MjIgMTIuNTE5NSAxMC4xOTY1IDEyLjU1ODEgMTAuMzgyMiAxMi40Mjk4QzEwLjU3OTkgMTIuMjkzMiAxMC42MzAyIDEyLjAyMjkgMTAuNDk1NiAxMS44MjQ0QzEwLjM5MDQgMTEuNjU4MyAxMC4zMzU2IDExLjQ1MDIgMTAuMzM1NiAxMS4yNTQ5WiIvPiYjeGE7PHBhdGggZmlsbD0idXJsKCNwYWludDNfbGluZWFyXzM4OTBfMjE1MTQpIiBkPSJNMTIuNjg3NSAxMC45ODQ3QzEyLjczMzUgOS44NTg1IDExLjg2NjIgOC45MTQzOCAxMC44NTY4IDguNTM1MjlDOS44MTExMiA4LjE0MjYgOC41MDMxNyA4LjMwNDQ2IDcuNTk3OTcgOS40ODIxNUM3LjQ1MDcyIDkuNjczNzIgNy40ODY2NiA5Ljk0ODM5IDcuNjc4MjMgMTAuMDk1NkM3Ljg2OTggMTAuMjQyOSA4LjE0NDQ3IDEwLjIwNyA4LjI5MTcyIDEwLjAxNTRDOC45Mjg4NyA5LjE4NjQzIDkuODA5NjQgOS4wNzY3MSAxMC41NDkxIDkuMzU0NDNDMTEuMzI0OCA5LjY0NTczIDExLjgzOTEgMTAuMzE0IDExLjgxMzIgMTAuOTQ5QzExLjgwODQgMTEuMDY3IDExLjc2ODYgMTEuMTI2OSAxMS43MzgxIDExLjE1NjdDMTEuNzAzNyAxMS4xOTA0IDExLjY1OTMgMTEuMjA3NCAxMS42MTcgMTEuMjA4MkMxMS41NzU1IDExLjIwOSAxMS41NDQ0IDExLjE5NDcgMTEuNTIzNyAxMS4xNzM5QzExLjUwNiAxMS4xNTYxIDExLjQ2NSAxMS4xMDI0IDExLjQ2NSAxMC45NjY5QzExLjQ2NSAxMC41OTI2IDExLjIyNzYgMTAuMTkxNiAxMC44ODMxIDkuOTMzMDhDMTAuNTEyMyA5LjY1NDcxIDkuOTg3NSA5LjUxMjU3IDkuMzcwODEgOS42ODI3M0w5LjM2MTc4IDkuNjg1MjJMOS4zNTI4NiA5LjY4ODA5QzguNzYyMzIgOS44Nzg1OSA4LjM4NTY1IDEwLjQzMDYgOC4zMDEwMSAxMS4wNzU1QzguMjE1NTQgMTEuNzI2OSA4LjQxNTY1IDEyLjQ5MzEgOC45Njc3MyAxMy4yMzgxQzkuMTExNTkgMTMuNDMyMiA5LjM4NTU4IDEzLjQ3MyA5LjU3OTcxIDEzLjMyOTFDOS43NzM4NSAxMy4xODUzIDkuODE0NiAxMi45MTEzIDkuNjcwNzQgMTIuNzE3MUM5LjIyNzMxIDEyLjExODggOS4xMTc5MyAxMS41NzUzIDkuMTY4NTggMTEuMTg5NEM5LjIxOTM2IDEwLjgwMjQgOS40MTk1NSAxMC41OSA5LjYxMzQ2IDEwLjUyMzVDOS45NTk4OCAxMC40MzA4IDEwLjIwMjIgMTAuNTE2IDEwLjM1NzkgMTAuNjMyOUMxMC40NDEzIDEwLjY5NTUgMTAuNTAzMyAxMC43NyAxMC41NDI4IDEwLjgzOTRDMTAuNTg0OCAxMC45MTE0IDEwLjU4ODMgMTAuOTQ4IDEwLjU5MDcgMTEuMDEyOEMxMC42MDAzIDExLjMyMjMgMTAuNzA3MSAxMS41OTM3IDEwLjkwMzQgMTEuNzkxMUMxMS4xMDYzIDExLjk5NSAxMS4zNzQxIDEyLjA4ODEgMTEuNjMzOSAxMi4wODNDMTIuMTY2NCAxMi4wNzI3IDEyLjY2IDExLjY1NjggMTIuNjg3NSAxMC45ODQ3WiIvPiYjeGE7PHBhdGggZmlsbD0idXJsKCNwYWludDRfbGluZWFyXzM4OTBfMjE1MTQpIiBkPSJNOC41NzMzMSA3LjI4NTg0QzguMzc4MDUgNy40ODExMSA4LjA2MTQ3IDcuNDgxMTEgNy44NjYyMSA3LjI4NTg1QzcuNjcwOTQgNy4wOTA1OSA3LjY3MDk0IDYuNzc0IDcuODY2MiA2LjU3ODc0TDguNTI5OCA1LjkxNTEzSDQuNTcwNzdDNC4yOTQ2MiA1LjkxNTEzIDQuMDcwNzcgNS42OTEyNyA0LjA3MDc3IDUuNDE1MTNDNC4wNzA3NyA1LjEzODk5IDQuMjk0NjIgNC45MTUxMyA0LjU3MDc3IDQuOTE1MTNIOC41Mjk4MUw3Ljg2NjIgNC4yNTE1QzcuNjcwOTQgNC4wNTYyMyA3LjY3MDk0IDMuNzM5NjUgNy44NjYyMSAzLjU0NDM5QzguMDYxNDcgMy4zNDkxMyA4LjM3ODA1IDMuMzQ5MTQgOC41NzMzMSAzLjU0NDRMMTAuMDkwNSA1LjA2MTU4QzEwLjI4NTcgNS4yNTY4NCAxMC4yODU3IDUuNTczNDIgMTAuMDkwNSA1Ljc2ODY4TDguNTczMzEgNy4yODU4NFoiLz4mI3hhOzxwYXRoIGZpbGw9InVybCgjcGFpbnQ1X2xpbmVhcl8zODkwXzIxNTE0KSIgZD0iTTQuNjYyNjEgNi43NzE2MkM0Ljg1Nzg3IDYuNTc2MzUgNS4xNzQ0NSA2LjU3NjM1IDUuMzY5NzIgNi43NzE2MUM1LjU2NDk4IDYuOTY2ODcgNS41NjQ5OCA3LjI4MzQ2IDUuMzY5NzIgNy40Nzg3Mkw0LjcwNjEyIDguMTQyMzNINi40MTIzOEM2LjY4ODUyIDguMTQyMzMgNi45MTIzOCA4LjM2NjE5IDYuOTEyMzggOC42NDIzM0M2LjkxMjM4IDguOTE4NDcgNi42ODg1MiA5LjE0MjMzIDYuNDEyMzggOS4xNDIzM0g0LjcwNjExTDUuMzY5NzIgOS44MDU5NkM1LjU2NDk4IDEwLjAwMTIgNS41NjQ5OCAxMC4zMTc4IDUuMzY5NzIgMTAuNTEzMUM1LjE3NDQ1IDEwLjcwODMgNC44NTc4NyAxMC43MDgzIDQuNjYyNjEgMTAuNTEzMUwzLjE0NTQ3IDguOTk1ODhDMi45NTAyMSA4LjgwMDYyIDIuOTUwMjEgOC40ODQwNCAzLjE0NTQ3IDguMjg4NzhMNC42NjI2MSA2Ljc3MTYyWiIvPiYjeGE7PGRlZnM+JiN4YTs8bGluZWFyR3JhZGllbnQgZ3JhZGllbnRVbml0cz0idXNlclNwYWNlT25Vc2UiIHkyPSIxNC43NDU4IiB4Mj0iMTMuNjg2OSIgeTE9IjIuMjY4OTQiIHgxPSIxLjQ0OTk1IiBpZD0icGFpbnQwX2xpbmVhcl8zODkwXzIxNTE0Ij4mI3hhOzxzdG9wIHN0b3AtY29sb3I9IndoaXRlIi8+JiN4YTs8c3RvcCBzdG9wLWNvbG9yPSIjRUFFQ0VFIiBvZmZzZXQ9IjEiLz4mI3hhOzwvbGluZWFyR3JhZGllbnQ+JiN4YTs8bGluZWFyR3JhZGllbnQgZ3JhZGllbnRVbml0cz0idXNlclNwYWNlT25Vc2UiIHkyPSIxMS44NzczIiB4Mj0iMTIuNjYyMSIgeTE9IjguMDcwODIiIHgxPSI4LjMxNTA2IiBpZD0icGFpbnQxX2xpbmVhcl8zODkwXzIxNTE0Ij4mI3hhOzxzdG9wIHN0b3AtY29sb3I9IiMxMzQ4RkYiLz4mI3hhOzxzdG9wIHN0b3AtY29sb3I9IiMwNjIzOEQiIG9mZnNldD0iMSIvPiYjeGE7PC9saW5lYXJHcmFkaWVudD4mI3hhOzxsaW5lYXJHcmFkaWVudCBncmFkaWVudFVuaXRzPSJ1c2VyU3BhY2VPblVzZSIgeTI9IjExLjg3NzMiIHgyPSIxMi42NjIxIiB5MT0iOC4wNzA4MiIgeDE9IjguMzE1MDYiIGlkPSJwYWludDJfbGluZWFyXzM4OTBfMjE1MTQiPiYjeGE7PHN0b3Agc3RvcC1jb2xvcj0iIzEzNDhGRiIvPiYjeGE7PHN0b3Agc3RvcC1jb2xvcj0iIzA2MjM4RCIgb2Zmc2V0PSIxIi8+JiN4YTs8L2xpbmVhckdyYWRpZW50PiYjeGE7PGxpbmVhckdyYWRpZW50IGdyYWRpZW50VW5pdHM9InVzZXJTcGFjZU9uVXNlIiB5Mj0iMTEuODc3MyIgeDI9IjEyLjY2MjEiIHkxPSI4LjA3MDgyIiB4MT0iOC4zMTUwNiIgaWQ9InBhaW50M19saW5lYXJfMzg5MF8yMTUxNCI+JiN4YTs8c3RvcCBzdG9wLWNvbG9yPSIjMTM0OEZGIi8+JiN4YTs8c3RvcCBzdG9wLWNvbG9yPSIjMDYyMzhEIiBvZmZzZXQ9IjEiLz4mI3hhOzwvbGluZWFyR3JhZGllbnQ+JiN4YTs8bGluZWFyR3JhZGllbnQgZ3JhZGllbnRVbml0cz0idXNlclNwYWNlT25Vc2UiIHkyPSI5LjU1MzU0IiB4Mj0iOS4xNjg1IiB5MT0iNC40ODM4NyIgeDE9IjQuMDg0MDEiIGlkPSJwYWludDRfbGluZWFyXzM4OTBfMjE1MTQiPiYjeGE7PHN0b3Agc3RvcC1jb2xvcj0iIzAxOTVGRiIvPiYjeGE7PHN0b3Agc3RvcC1jb2xvcj0iIzExNDdFOSIgb2Zmc2V0PSIwLjk5MTAyOCIvPiYjeGE7PC9saW5lYXJHcmFkaWVudD4mI3hhOzxsaW5lYXJHcmFkaWVudCBncmFkaWVudFVuaXRzPSJ1c2VyU3BhY2VPblVzZSIgeTI9IjkuNTUzNTQiIHgyPSI5LjE2ODUiIHkxPSI0LjQ4Mzg3IiB4MT0iNC4wODQwMSIgaWQ9InBhaW50NV9saW5lYXJfMzg5MF8yMTUxNCI+JiN4YTs8c3RvcCBzdG9wLWNvbG9yPSIjMDE5NUZGIi8+JiN4YTs8c3RvcCBzdG9wLWNvbG9yPSIjMTE0N0U5IiBvZmZzZXQ9IjAuOTkxMDI4Ii8+JiN4YTs8L2xpbmVhckdyYWRpZW50PiYjeGE7PC9kZWZzPiYjeGE7PC9zdmc+;fontColor=#1D2D3E;" vertex="1" parent="KJaW32-MUoOeKXqnR98N-18">
          <mxGeometry x="296" y="25.60313081184045" width="25.68694388049228" height="25.68694388049228" as="geometry" />
        </mxCell>
        <mxCell id="KJaW32-MUoOeKXqnR98N-22" value="w" style="shape=image;verticalLabelPosition=bottom;labelBackgroundColor=default;verticalAlign=top;aspect=fixed;imageAspect=0;image=data:image/svg+xml,PHN2ZyB4bWxuczp4bGluaz0iaHR0cDovL3d3dy53My5vcmcvMTk5OS94bGluayIgeG1sbnM9Imh0dHA6Ly93d3cudzMub3JnLzIwMDAvc3ZnIiB2aWV3Qm94PSIwIDAgMTQ0Ljc0NyAzOS44MzIiIGlkPSJhIj48ZGVmcz48bGluZWFyR3JhZGllbnQgZ3JhZGllbnRVbml0cz0idXNlclNwYWNlT25Vc2UiIHkyPSIzOS44MzIiIHgyPSI0MC4yNTgiIHkxPSIwIiB4MT0iNDAuMjU4IiBpZD0iYiI+PHN0b3Agc3RvcC1jb2xvcj0iIzAwYjhmMSIgb2Zmc2V0PSIwIi8+PHN0b3Agc3RvcC1jb2xvcj0iIzAwYjVlZiIgb2Zmc2V0PSIuMDE2Ii8+PHN0b3Agc3RvcC1jb2xvcj0iIzBkOTBkOCIgb2Zmc2V0PSIuMzA4Ii8+PHN0b3Agc3RvcC1jb2xvcj0iIzE2NzVjOCIgb2Zmc2V0PSIuNTc4Ii8+PHN0b3Agc3RvcC1jb2xvcj0iIzFjNjRiZSIgb2Zmc2V0PSIuODE3Ii8+PHN0b3Agc3RvcC1jb2xvcj0iIzFlNWZiYiIgb2Zmc2V0PSIxIi8+PC9saW5lYXJHcmFkaWVudD48L2RlZnM+PHBvbHlsaW5lIGZpbGwtcnVsZT0iZXZlbm9kZCIgZmlsbD0idXJsKCNiKSIgcG9pbnRzPSIwIDM5LjgzMiA0MC42OTIgMzkuODMyIDgwLjUxNyAwIDAgMCAwIDM5LjgzMiIvPjxwYXRoIGZpbGwtcnVsZT0iZXZlbm9kZCIgZmlsbD0iI2ZmZiIgZD0ibTQ3Ljc4Miw3LjQ4OWwtNy45MjUtLjAwNXYxOC44NDVsLTYuOTI0LTE4Ljg0NWgtNi44NjVsLTUuOTEyLDE1Ljc1OWMtLjYzLTMuOTczLTQuNzQtNS4zNDUtNy45NzQtNi4zNzQtMi4xMzUtLjY4Ni00LjQwMS0xLjY5NC00LjM4LTIuODA5LjAxNy0uOTE1LDEuMjE1LTEuNzY1LDMuNTg5LTEuNjM3LDEuNTk1LjA4NCwzLjAwMS4yMTMsNS44LDEuNTYzbDIuNzUzLTQuNzk1Yy0yLjU1NS0xLjMtNi4wODYtMi4xMjEtOC45NzgtMi4xMjRoLS4wMTdjLTMuMzc0LDAtNi4xODUsMS4wOTMtNy45MjgsMi44OTQtMS4yMTQsMS4yNTgtMS44NjksMi44NTYtMS44OTYsNC42MjMtLjA0NCwyLjQzMi44NDgsNC4xNTcsMi43MjEsNS41MzMsMS41ODMsMS4xNiwzLjYwNiwxLjkxMiw1LjM5LDIuNDY1LDIuMjAxLjY4MSwzLjk5NiwxLjI3NCwzLjk3NSwyLjUzOS0uMDE2LjQ1OS0uMTkxLjg4OC0uNTIxLDEuMjM2LS41NDguNTY2LTEuMzkxLjc3OS0yLjU1NS43OTktMi4yNDQuMDQ4LTMuOTEtLjMwMy02LjU2Mi0xLjg3bC0yLjQ0OCw0Ljg2MWMyLjY0NCwxLjUwNiw1Ljc3NiwyLjM4OCw4Ljk3MiwyLjM4OGwuNDExLS4wMDZjMi43ODItLjA1LDUuMDI2LS44NDIsNi44Mi0yLjI4Ni4xMDMtLjA4MS4xOTYtLjE2Ni4yOTEtLjI1bC0uNzk1LDIuMTIzaDcuMmwxLjIwOC0zLjY3NGMxLjI2NS40MzMsMi43MDQuNjcxLDQuMjMyLjY3MSwxLjQ4NywwLDIuODg5LS4yMjksNC4xMzEtLjYzNWwxLjE2NCwzLjYzN2gxMS43NDJ2LTcuNjA3aDIuNTYxYzYuMTg4LDAsOS44NTEtMy4xNTQsOS44NTEtOC40MzYsMC01Ljg4NS0zLjU1Ny04LjU4NS0xMS4xMzItOC41ODVabS0xOC4zMTcsMTYuMTI0Yy0uOTI1LDAtMS43OTItLjE2LTIuNTM5LS40NDNsMi41MTItNy45MjZoLjA0OGwyLjQ2OCw3Ljk0OGMtLjc0Mi4yNjMtMS41ODkuNDIxLTIuNDg4LjQyMVptMTguNzgzLTQuNTUzaC0xLjc0NnYtNi4zODZoMS43NDZjMi4zMjgsMCw0LjE4NS43NzMsNC4xODUsMy4xNTEsMCwyLjQ2MS0xLjg1NywzLjIzNi00LjE4NSwzLjIzNiIvPjxwYXRoIGZpbGw9IiMwMDJhODYiIGQ9Im04MC4yMTcsNy40MDFoMTAuMDYzYzUuNTk1LDAsOC42NzQsMS45MTcsOC42NzQsNi4xNTgsMCwyLjkwMy0xLjUxMyw1LjAxNC00LjMxMSw1LjcsMy4yOS40NTgsNS4yNzgsMi41ODYsNS4yNzgsNS44OTQsMCw1LjAxNC00LjA2NCw3LjAzNy05LjE4NCw3LjAzN2gtMTAuNTIxVjcuNDAxWm0xMy45NjksNi44MjZjMC0yLjE2NC0xLjQ5Ni0yLjk3My00LjI0LTIuOTczaC01LjA0OXY2LjI5OGg0Ljg5MWMzLjIwMiwwLDQuMzk4LTEuMTYxLDQuMzk4LTMuMzI1Wm0xLjAyMSwxMC41MjFjMC0yLjM1Ny0xLjc3Ny0zLjQ2Ni00LjgzOS0zLjQ2NmgtNS40NzF2Ny4wNTVoNS41MDZjMi44MTUsMCw0LjgwNC0uNzc0LDQuODA0LTMuNTg5WiIvPjxwYXRoIGZpbGw9IiMwMDJhODYiIGQ9Im0xMDkuMDUxLDExLjVoLTcuNTgzdi00LjA5OWgxOS44NDZ2NC4wOTloLTcuNTY1djIwLjY5aC00LjY5N1YxMS41WiIvPjxwYXRoIGZpbGw9IiMwMDJhODYiIGQ9Im0xMjUuMTQ4LDcuNDAxaDEwLjUwNGM2LjE5MiwwLDkuMDk2LDMuMTg1LDkuMDk2LDcuODk5LDAsNC4zOTgtMi44MzMsOC4xNDYtOC44NSw4LjE0NmgtNi4wN3Y4Ljc0NGgtNC42OFY3LjQwMVptMTQuOTAyLDcuOTUyYzAtMi41NTEtMS42ODktMy45MjMtNC45NDQtMy45MjNoLTUuMjc4djguMDRoNS40MTljMy4yNzIsMCw0LjgwNC0xLjU4Myw0LjgwNC00LjExN1oiLz48L3N2Zz4=;strokeWidth=1.5;" vertex="1" parent="1">
          <mxGeometry x="186.91000000000022" y="290.00000000000006" width="67.25" height="18.55" as="geometry" />
        </mxCell>
        <mxCell id="KJaW32-MUoOeKXqnR98N-23" value="" style="endArrow=none;html=1;strokeColor=#475E75;bendable=1;rounded=0;endFill=0;endSize=4;strokeWidth=1.5;startSize=4;startArrow=none;startFill=0;edgeStyle=orthogonalEdgeStyle;exitX=1;exitY=0.5;exitDx=0;exitDy=0;exitPerimeter=0;entryX=0;entryY=0.5;entryDx=0;entryDy=0;" edge="1" parent="1" target="KJaW32-MUoOeKXqnR98N-39">
          <mxGeometry width="50" height="50" relative="1" as="geometry">
            <mxPoint x="718.4801492537313" y="569.3388059701492" as="sourcePoint" />
            <mxPoint x="870.91" y="569" as="targetPoint" />
            <Array as="points">
              <mxPoint x="718.91" y="568" />
            </Array>
          </mxGeometry>
        </mxCell>
        <mxCell id="KJaW32-MUoOeKXqnR98N-24" value="" style="strokeColor=#0070F2;shadow=0;strokeWidth=2;rounded=1;absoluteArcSize=1;arcSize=20;whiteSpace=wrap;verticalAlign=bottom;spacing=10;fontSize=10;fontColor=#556B82;align=left;container=0;" vertex="1" parent="1">
          <mxGeometry x="1010" y="358" width="179" height="167" as="geometry" />
        </mxCell>
        <mxCell id="KJaW32-MUoOeKXqnR98N-25" value="NETWORK" style="text;html=1;align=left;verticalAlign=middle;resizable=0;points=[];autosize=1;strokeColor=none;fillColor=none;fontSize=14;fontStyle=1;fontColor=#5B738B;" vertex="1" parent="1">
          <mxGeometry x="985.91" y="270" width="100" height="30" as="geometry" />
        </mxCell>
        <mxCell id="KJaW32-MUoOeKXqnR98N-26" value="" style="endArrow=blockThin;html=1;strokeColor=#188918;bendable=1;rounded=0;endFill=1;endSize=4;strokeWidth=1.5;startSize=4;startArrow=none;startFill=0;edgeStyle=orthogonalEdgeStyle;" edge="1" parent="1" source="KJaW32-MUoOeKXqnR98N-28">
          <mxGeometry width="50" height="50" relative="1" as="geometry">
            <mxPoint x="1108.41" y="790" as="sourcePoint" />
            <mxPoint x="1096.4554545454546" y="715" as="targetPoint" />
          </mxGeometry>
        </mxCell>
        <mxCell id="KJaW32-MUoOeKXqnR98N-27" value="" style="endArrow=blockThin;html=1;strokeColor=#475E75;bendable=1;rounded=0;endFill=1;endSize=4;strokeWidth=1.5;startSize=4;startArrow=none;startFill=0;edgeStyle=orthogonalEdgeStyle;entryX=-0.001;entryY=0.123;entryDx=0;entryDy=0;entryPerimeter=0;exitX=1;exitY=0.5;exitDx=0;exitDy=0;" edge="1" parent="1" source="KJaW32-MUoOeKXqnR98N-39">
          <mxGeometry width="50" height="50" relative="1" as="geometry">
            <mxPoint x="946.91" y="621" as="sourcePoint" />
            <mxPoint x="1006.7310000000003" y="568.5410000000002" as="targetPoint" />
            <Array as="points" />
          </mxGeometry>
        </mxCell>
        <mxCell id="KJaW32-MUoOeKXqnR98N-28" value="SAML2/OIDC" style="rounded=1;whiteSpace=wrap;html=1;strokeColor=#188918;strokeWidth=1.5;arcSize=16;fillColor=#F5FAE5;perimeterSpacing=0;absoluteArcSize=1;fontColor=#188918;fontSize=10;fontStyle=1" vertex="1" parent="1">
          <mxGeometry x="854.91" y="779" width="70" height="16" as="geometry" />
        </mxCell>
        <mxCell id="KJaW32-MUoOeKXqnR98N-29" style="edgeStyle=elbowEdgeStyle;rounded=0;orthogonalLoop=1;jettySize=auto;html=1;strokeColor=#475E75;endArrow=blockThin;endFill=1;strokeWidth=1.5;sourcePerimeterSpacing=0;targetPerimeterSpacing=0;endSize=4;startSize=4;elbow=vertical;exitX=0.625;exitY=0;exitDx=0;exitDy=0;exitPerimeter=0;entryX=-0.012;entryY=0.574;entryDx=0;entryDy=0;entryPerimeter=0;" edge="1" parent="1" target="KJaW32-MUoOeKXqnR98N-12">
          <mxGeometry relative="1" as="geometry">
            <mxPoint x="604.6413432835819" y="623.5731343283582" as="sourcePoint" />
            <mxPoint x="684.91" y="572.8635820895523" as="targetPoint" />
            <Array as="points">
              <mxPoint x="644.91" y="573" />
            </Array>
          </mxGeometry>
        </mxCell>
        <mxCell id="KJaW32-MUoOeKXqnR98N-30" style="edgeStyle=elbowEdgeStyle;rounded=0;orthogonalLoop=1;jettySize=auto;html=1;strokeColor=#475E75;endArrow=none;endFill=0;strokeWidth=1.5;sourcePerimeterSpacing=0;targetPerimeterSpacing=0;endSize=4;startSize=4;elbow=vertical;startArrow=none;startFill=0;entryX=1.034;entryY=0.455;entryDx=0;entryDy=0;entryPerimeter=0;exitX=0.805;exitY=0.115;exitDx=0;exitDy=0;exitPerimeter=0;" edge="1" parent="1" source="KJaW32-MUoOeKXqnR98N-12" target="KJaW32-MUoOeKXqnR98N-8">
          <mxGeometry relative="1" as="geometry">
            <mxPoint x="746.91" y="560" as="sourcePoint" />
            <mxPoint x="710.4801492537313" y="359.24029850746274" as="targetPoint" />
            <Array as="points">
              <mxPoint x="740.91" y="458" />
            </Array>
          </mxGeometry>
        </mxCell>
        <mxCell id="KJaW32-MUoOeKXqnR98N-31" value="" style="group" vertex="1" connectable="0" parent="1">
          <mxGeometry x="40" y="210" width="130" height="257" as="geometry" />
        </mxCell>
        <mxCell id="KJaW32-MUoOeKXqnR98N-32" style="edgeStyle=orthogonalEdgeStyle;rounded=0;orthogonalLoop=1;jettySize=auto;html=1;strokeColor=#475E75;endArrow=blockThin;endFill=1;" edge="1" parent="KJaW32-MUoOeKXqnR98N-31" source="KJaW32-MUoOeKXqnR98N-33" target="KJaW32-MUoOeKXqnR98N-36">
          <mxGeometry relative="1" as="geometry" />
        </mxCell>
        <mxCell id="KJaW32-MUoOeKXqnR98N-33" value="End User" style="shape=image;editableCssRules=.*;verticalLabelPosition=bottom;labelBackgroundColor=default;verticalAlign=top;aspect=fixed;imageAspect=0;image=data:image/svg+xml,PHN2ZyB4bWxucz0iaHR0cDovL3d3dy53My5vcmcvMjAwMC9zdmciIHZpZXdCb3g9Ii0wLjUgLTAuNSAyOCAyOCIgaGVpZ2h0PSIyOCIgd2lkdGg9IjI4Ij4mI3hhOwkgIDxzdHlsZSB0eXBlPSJ0ZXh0L2NzcyI+LnN0MCB7IHN0b3AtY29sb3I6IHJnYig5MSwgMTE1LCAxMzkpOyB9IC5zdDEgeyBzdG9wLWNvbG9yOiByZ2IoMzQsIDUzLCA3Mik7IH0gPC9zdHlsZT4mI3hhOwk8ZGVmcz4mI3hhOwkJPGxpbmVhckdyYWRpZW50IGdyYWRpZW50VW5pdHM9InVzZXJTcGFjZU9uVXNlIiB5Mj0iMjUuMzA5IiB4Mj0iMjMuNDU0IiB5MT0iMy40NzQiIHgxPSIyLjAzOSIgaWQ9IkEiPiYjeGE7CQkJPHN0b3AgY2xhc3M9InN0MCIvPiYjeGE7CQkJPHN0b3AgY2xhc3M9InN0MSIgb2Zmc2V0PSIxIi8+JiN4YTsJCTwvbGluZWFyR3JhZGllbnQ+JiN4YTsJPC9kZWZzPiYjeGE7CTxwYXRoIGZpbGw9InVybCgjQSkiIGQ9Ik0tLjUgMTMuNDcyYzAtMS45My4zNzEtMy43MyAxLjExMy01LjQuNzQyLTEuNzA3IDEuNzQ0LTMuMTkyIDMuMDA2LTQuNDUzUzYuMzY1IDEuMzU2IDguMDczLjYxMyAxMS41OTgtLjUgMTMuNTI4LS41czMuNzMuMzcxIDUuNCAxLjExM2MxLjcwNy43NDIgMy4xOTIgMS43NDQgNC40NTMgMy4wMDZzMi4yNjQgMi43NDYgMy4wMDYgNC40NTNjLjc0MiAxLjY3IDEuMTEzIDMuNDcgMS4xMTMgNS40cy0uMzcxIDMuNzQ4LTEuMTEzIDUuNDU1LTEuNzQ0IDMuMTkyLTMuMDA2IDQuNDUzYTE0LjI4IDE0LjI4IDAgMCAxLTQuNDUzIDMuMDA2Yy0xLjY3Ljc0Mi0zLjQ3IDEuMTEzLTUuNCAxLjExM3MtMy43NDgtLjM3MS01LjQ1NS0xLjExM2ExNC4yOCAxNC4yOCAwIDAgMS00LjQ1My0zLjAwNiAxNC4yOCAxNC4yOCAwIDAgMS0zLjAwNi00LjQ1M0MtLjEyOSAxNy4yMi0uNSAxNS40MDItLjUgMTMuNDcyem0xNi44MTEgNC4yMzFhNi42NSA2LjY1IDAgMCAxIDMuMjg0LjgzNWMxLjAwMi41MiAxLjgxOCAxLjI0MyAyLjQ0OSAyLjE3MWExMC4xNCAxMC4xNCAwIDAgMCAxLjk0OC0zLjI4NGMuNDgyLTEuMjI1LjcyNC0yLjU0Mi43MjQtMy45NTIgMC0xLjU1OS0uMjk3LTMuMDA2LS44OTEtNC4zNDItLjU5NC0xLjM3My0xLjM5Mi0yLjU2MS0yLjM5NC0zLjU2M3MtMi4xOS0xLjgtMy41NjMtMi4zOTRjLTEuMzM2LS41OTQtMi43ODMtLjg5MS00LjM0Mi0uODkxcy0zLjAyNC4yOTctNC4zOTguODkxYy0xLjMzNi41OTQtMi41MjQgMS4zOTItMy41NjMgMi4zOTRBMTEuMzUgMTEuMzUgMCAwIDAgMy4xNzQgOS4xM2MtLjU5NCAxLjMzNi0uODkxIDIuNzgzLS44OTEgNC4zNDIgMCAxLjQxLjIyMyAyLjcyOC42NjggMy45NTIuNDgyIDEuMjI1IDEuMTUgMi4zMTkgMi4wMDQgMy4yODQuNjMxLS45MjggMS40NDctMS42NTEgMi40NDktMi4xNzFhNi42NSA2LjY1IDAgMCAxIDMuMjg0LS44MzV6bTIuNzgzLTcuMDE0YTUuNjggNS42OCAwIDAgMS0uNDQ1IDIuMjI3IDUuODcgNS44NyAwIDAgMS0xLjIyNSAxLjc4MWMtLjQ4Mi40ODItMS4wNTguODcyLTEuNzI2IDEuMTY5cy0xLjM5Mi40NDUtMi4xNzEuNDQ1YTUuNjggNS42OCAwIDAgMS0yLjIyNy0uNDQ1IDYuNDQgNi40NCAwIDAgMS0xLjc4MS0xLjE2OSA2LjQ0IDYuNDQgMCAwIDEtMS4xNjktMS43ODEgNS42OCA1LjY4IDAgMCAxLS40NDUtMi4yMjdjMC0uNzc5LjE0OC0xLjUwMy40NDUtMi4xNzFBNi40NCA2LjQ0IDAgMCAxIDkuNTIgNi43MzdhNS44NyA1Ljg3IDAgMCAxIDEuNzgxLTEuMjI1IDUuNjggNS42OCAwIDAgMSAyLjIyNy0uNDQ1Yy43NzkgMCAxLjUwMy4xNDggMi4xNzEuNDQ1czEuMjQzLjcwNSAxLjcyNiAxLjIyNWE1Ljg3IDUuODcgMCAwIDEgMS4yMjUgMS43ODFjLjI5Ny42NjguNDQ1IDEuMzkyLjQ0NSAyLjE3MXptLTIuNzgzIDBjMC0uNzc5LS4yNzgtMS40MjktLjgzNS0xLjk0OC0uNTU3LS41NTctMS4yMDYtLjgzNS0xLjk0OC0uODM1YTIuNzMgMi43MyAwIDAgMC0yLjAwNC44MzVjLS41NTcuNTItLjgzNSAxLjE2OS0uODM1IDEuOTQ4YTIuNzMgMi43MyAwIDAgMCAuODM1IDIuMDA0Yy41NTcuNTIgMS4yMjUuNzc5IDIuMDA0Ljc3OS43NDIgMCAxLjM5Mi0uMjYgMS45NDgtLjc3OWEyLjczIDIuNzMgMCAwIDAgLjgzNS0yLjAwNHpNNy4wNzEgMjIuNjU3Yy44OTEuNjMxIDEuODc0IDEuMTMyIDIuOTUgMS41MDMgMS4xMTMuMzcxIDIuMjgyLjU1NyAzLjUwNy41NTcgMS4xODggMCAyLjMxOS0uMTg2IDMuMzk2LS41NTcgMS4xMTMtLjM3MSAyLjExNS0uODcyIDMuMDA2LTEuNTAzLS4zNzEtLjY2OC0uODkxLTEuMTg4LTEuNTU5LTEuNTU5LS42MzEtLjQwOC0xLjMxNy0uNjEyLTIuMDYtLjYxMmgtNS42MjJjLS43NDIgMC0xLjQ0Ny4yMDQtMi4xMTUuNjEyLS42MzEuMzcxLTEuMTMyLjg5MS0xLjUwMyAxLjU1OXoiLz4mI3hhOzwvc3ZnPg==;fontSize=12;fontColor=#1D2D3E;" vertex="1" parent="KJaW32-MUoOeKXqnR98N-31">
          <mxGeometry x="17.91" y="190" width="28" height="28" as="geometry" />
        </mxCell>
        <mxCell id="KJaW32-MUoOeKXqnR98N-34" style="edgeStyle=orthogonalEdgeStyle;rounded=0;orthogonalLoop=1;jettySize=auto;html=1;endArrow=blockThin;endFill=1;strokeColor=#475E75;" edge="1" parent="KJaW32-MUoOeKXqnR98N-31" source="KJaW32-MUoOeKXqnR98N-36">
          <mxGeometry relative="1" as="geometry">
            <mxPoint x="116.91" y="288.5000000000002" as="targetPoint" />
          </mxGeometry>
        </mxCell>
        <mxCell id="KJaW32-MUoOeKXqnR98N-35" style="edgeStyle=orthogonalEdgeStyle;rounded=0;orthogonalLoop=1;jettySize=auto;html=1;targetPerimeterSpacing=0;sourcePerimeterSpacing=55;endArrow=none;endFill=0;strokeColor=#188918;strokeWidth=1.5;" edge="1" parent="KJaW32-MUoOeKXqnR98N-31" source="KJaW32-MUoOeKXqnR98N-36">
          <mxGeometry relative="1" as="geometry">
            <mxPoint x="31.910000000000228" y="431" as="targetPoint" />
          </mxGeometry>
        </mxCell>
        <mxCell id="KJaW32-MUoOeKXqnR98N-36" value="Application&lt;br&gt;Clients&lt;br&gt;&lt;font color=&quot;#556b82&quot; style=&quot;font-size: 10px;&quot;&gt;Mobile or Desktop&lt;/font&gt;" style="shape=image;editableCssRules=.*;verticalLabelPosition=bottom;labelBackgroundColor=none;verticalAlign=top;aspect=fixed;imageAspect=0;image=data:image/svg+xml,PHN2ZyB4bWxucz0iaHR0cDovL3d3dy53My5vcmcvMjAwMC9zdmciIHZpZXdCb3g9Ii0wLjUgLTAuNSAyOCAyMy4zNDMiIGhlaWdodD0iMjMuMzQzIiB3aWR0aD0iMjgiPiYjeGE7CSAgPHN0eWxlIHR5cGU9InRleHQvY3NzIj4uc3QwIHsgc3RvcC1jb2xvcjogcmdiKDkxLCAxMTUsIDEzOSk7IH0gLnN0MSB7IHN0b3AtY29sb3I6IHJnYigzNCwgNTMsIDcyKTsgfSA8L3N0eWxlPiYjeGE7CTxkZWZzPiYjeGE7CQk8bGluZWFyR3JhZGllbnQgZ3JhZGllbnRVbml0cz0idXNlclNwYWNlT25Vc2UiIHkyPSIyNC4yMTciIHgyPSIxOS41NCIgeTE9IjIuODEzIiB4MT0iMi4wMzkiIGlkPSJBIj4mI3hhOwkJCTxzdG9wIGNsYXNzPSJzdDAiLz4mI3hhOwkJCTxzdG9wIGNsYXNzPSJzdDEiIG9mZnNldD0iMSIvPiYjeGE7CQk8L2xpbmVhckdyYWRpZW50PiYjeGE7CTwvZGVmcz4mI3hhOwk8cGF0aCBmaWxsPSJ1cmwoI0EpIiBkPSJNMTMuNTI3IDE4LjE4NnYyLjNoMS4xNWMuNzY4IDAgMS4xNS40MDMgMS4xNSAxLjIwNi4wMDQuMTUyLS4wMjIuMzA0LS4wNzkuNDQ1cy0uMTQxLjI3LS4yNDkuMzc3Yy0uMTgyLjIxNy0uNDU2LjMyOC0uODIyLjMyOEg3LjY2NGMtLjE1Mi4wMDQtLjMwMy0uMDIzLS40NDQtLjA4cy0uMjY5LS4xNDItLjM3Ni0uMjUtLjE5My0uMjM1LS4yNS0uMzc2LS4wODQtLjI5Mi0uMDgtLjQ0NGMwLS4zNjYuMTEtLjY1Ny4zMy0uODc3LjEwNy0uMTA4LjIzNS0uMTkzLjM3Ni0uMjVzLjI5Mi0uMDg0LjQ0NC0uMDhoMy41MDd2LTIuM0gzLjAwN2EzLjUzIDMuNTMgMCAwIDEtMi41MjEtLjk4NyAzLjUzIDMuNTMgMCAwIDEtLjk4NS0yLjUxOVYzLjAwOWMwLS45ODcuMzMtMS44MDkuOTg3LTIuNDY3LjMyNy0uMzM2LjcxOS0uNjAyIDEuMTUyLS43ODJzLjg5OS0uMjY4IDEuMzY4LS4yNmgxOC42ODNBMy4yNSAzLjI1IDAgMCAxIDI0LjE1Ni41NDJjLjY5NC42NTggMS4wNDEgMS40OCAxLjA0MSAyLjQ2NXYyLjM1NmMuMDA0LjE1Mi0uMDIyLjMwNC0uMDc5LjQ0NXMtLjE0MS4yNy0uMjQ5LjM3N2MtLjExNi4xMTItLjI1NC4xOTgtLjQwNC4yNTVzLS4zMTEuMDgyLS40NzIuMDc1Yy0uMTUyLjAwNC0uMzA0LS4wMjMtLjQ0NS0uMDhzLS4yNy0uMTQyLS4zNzctLjI1LS4xOTMtLjIzNi0uMjUtLjM3Ny0uMDg0LS4yOTMtLjA4LS40NDVWMy4wMDljMC0uNzY4LS4zODItMS4xNTItMS4xNS0xLjE1MkgzLjAwN2MtLjc2OCAwLTEuMTUuMzg0LTEuMTUgMS4xNXYxMS42NzJjMCAuNzY2LjM4MiAxLjE1IDEuMTUgMS4xNWgxMS42N2MuNzY4IDAgMS4xNS40MDMgMS4xNSAxLjIwNi4wMDQuMTUyLS4wMjMuMzAzLS4wNzkuNDQ0cy0uMTQxLjI2OS0uMjQ5LjM3NmMtLjE4Mi4yMTktLjQ1Ni4zMy0uODIyLjMzem0xMi44MjItOS4zN2MuNzY2IDAgMS4xNS40MDMgMS4xNSAxLjIwNnYxMS42N2MuMDA0LjE1Mi0uMDIzLjMwNC0uMDguNDQ1cy0uMTQyLjI3LS4yNS4zNzdjLS4xODIuMjE3LS40NTYuMzI4LS44MjIuMzI4aC03LjAxM2MtLjE1Mi4wMDQtLjMwMy0uMDIzLS40NDQtLjA4cy0uMjY5LS4xNDItLjM3Ni0uMjUtLjE5My0uMjM1LS4yNS0uMzc2LS4wODQtLjI5Mi0uMDgtLjQ0NHYtMTEuNjdjMC0uMzY2LjExLS42NTcuMzMtLjg3Ny4xMDctLjEwOC4yMzYtLjE5My4zNzctLjI1cy4yOTMtLjA4NC40NDUtLjA4em0tNS44MDkgMi4zNTZ2OC4xNjNoNC42NTd2LTguMTY0eiIvPiYjeGE7PC9zdmc+;html=1;fontColor=#1D2D3E;" vertex="1" parent="KJaW32-MUoOeKXqnR98N-31">
          <mxGeometry x="17.91" y="277" width="28" height="23" as="geometry" />
        </mxCell>
        <mxCell id="KJaW32-MUoOeKXqnR98N-37" style="edgeStyle=orthogonalEdgeStyle;rounded=0;orthogonalLoop=1;jettySize=auto;html=1;endArrow=blockThin;endFill=1;strokeWidth=1.5;strokeColor=#188918;endSize=4;startSize=4;" edge="1" parent="KJaW32-MUoOeKXqnR98N-31">
          <mxGeometry relative="1" as="geometry">
            <mxPoint x="116.91" y="439" as="targetPoint" />
            <mxPoint x="66.90999999999977" y="438.99999999999955" as="sourcePoint" />
          </mxGeometry>
        </mxCell>
        <mxCell id="KJaW32-MUoOeKXqnR98N-38" value="SAML2/OIDC" style="rounded=1;whiteSpace=wrap;html=1;strokeColor=#188918;strokeWidth=1.5;arcSize=16;fillColor=#F5FAE5;perimeterSpacing=0;absoluteArcSize=1;fontColor=#188918;fontSize=10;fontStyle=1" vertex="1" parent="KJaW32-MUoOeKXqnR98N-31">
          <mxGeometry y="240.99999999999997" width="70" height="16" as="geometry" />
        </mxCell>
        <mxCell id="KJaW32-MUoOeKXqnR98N-39" value="HTTPS" style="rounded=1;whiteSpace=wrap;html=1;strokeColor=#475E75;strokeWidth=1.5;arcSize=16;fillColor=#FFFFFF;perimeterSpacing=0;absoluteArcSize=1;fontColor=#475E75;fontSize=10;fontStyle=1" vertex="1" parent="1">
          <mxGeometry x="917.41" y="560.1" width="51" height="16" as="geometry" />
        </mxCell>
        <mxCell id="KJaW32-MUoOeKXqnR98N-40" value="&lt;span style=&quot;font-family: Helvetica; font-style: normal; font-variant-ligatures: normal; font-variant-caps: normal; font-weight: 700; letter-spacing: normal; orphans: 2; text-indent: 0px; text-transform: none; widows: 2; word-spacing: 0px; -webkit-text-stroke-width: 0px; text-decoration-thickness: initial; text-decoration-style: initial; text-decoration-color: initial; float: none; font-size: 10px; display: inline !important;&quot;&gt;&lt;font style=&quot;font-size: 10px;&quot;&gt;SAP S/4HANA&lt;/font&gt;&lt;/span&gt;" style="text;whiteSpace=wrap;html=1;align=left;container=0;verticalAlign=middle;fontColor=#1D2D3E;fontSize=10;" vertex="1" parent="1">
          <mxGeometry x="1017.91" y="640.7245164744882" width="102.09375000000001" height="24.57146471685887" as="geometry" />
        </mxCell>
        <mxCell id="KJaW32-MUoOeKXqnR98N-41" value="&lt;span style=&quot;font-family: Helvetica; font-style: normal; font-variant-ligatures: normal; font-variant-caps: normal; font-weight: 700; letter-spacing: normal; orphans: 2; text-indent: 0px; text-transform: none; widows: 2; word-spacing: 0px; -webkit-text-stroke-width: 0px; text-decoration-thickness: initial; text-decoration-style: initial; text-decoration-color: initial; float: none; font-size: 10px; display: inline !important;&quot;&gt;&lt;font style=&quot;font-size: 10px;&quot;&gt;SAP SuccessFactors&lt;/font&gt;&lt;/span&gt;" style="text;whiteSpace=wrap;html=1;align=left;container=0;verticalAlign=middle;fontColor=#1D2D3E;fontSize=10;" vertex="1" parent="1">
          <mxGeometry x="1021" y="470.82844215191824" width="151.25" height="24.57146471685887" as="geometry" />
        </mxCell>
        <mxCell id="KJaW32-MUoOeKXqnR98N-42" value="" style="shape=image;editableCssRules=.*;part=0;verticalLabelPosition=bottom;labelBackgroundColor=default;verticalAlign=top;imageAspect=0;image=data:image/svg+xml,PHN2ZyB4bWxucz0iaHR0cDovL3d3dy53My5vcmcvMjAwMC9zdmciIHZpZXdCb3g9Ii0wLjUgLTAuNSAyOCAxOC40MTIiIGhlaWdodD0iMTguNDEyIiB3aWR0aD0iMjgiPiYjeGE7CSAgPHN0eWxlIHR5cGU9InRleHQvY3NzIj4uc3QwIHsgc3RvcC1jb2xvcjogcmdiKDM1LCAxNDksIDI1NSk7IH0gLnN0MSB7IHN0b3AtY29sb3I6IHJnYigwLCA4NywgMjEwKTsgfSA8L3N0eWxlPiYjeGE7CTxkZWZzPiYjeGE7CQk8bGluZWFyR3JhZGllbnQgZ3JhZGllbnRVbml0cz0idXNlclNwYWNlT25Vc2UiIHkyPSIyMi4wMDgiIHgyPSIxNC44NjkiIHkxPSIyLjExMyIgeDE9IjIuMDM5IiBpZD0iQSI+JiN4YTsJCQk8c3RvcCBjbGFzcz0ic3QwIi8+JiN4YTsJCQk8c3RvcCBjbGFzcz0ic3QxIiBvZmZzZXQ9IjEiLz4mI3hhOwkJPC9saW5lYXJHcmFkaWVudD4mI3hhOwk8L2RlZnM+JiN4YTsJPHBhdGggZmlsbD0idXJsKCNBKSIgZD0iTTUuOTAzIDYuMDQ3QzYuNDM0IDIuMzQ1IDkuNjE5LS41IDEzLjQ2Ny0uNWMyLjgwMSAwIDUuMjQ3IDEuNTA2IDYuNTc3IDMuNzQ5aC4xMjRjNC4wNDkgMCA3LjMzMSAzLjI4MiA3LjMzMSA3LjMzMXMtMy4yODIgNy4zMzEtNy4zMzEgNy4zMzFoLTQuMDU0Yy0uMDg3IDAtLjE3My0uMDAyLS4yNTktLjAwNS0uMDc4LjAwMy0uMTU1LjAwNS0uMjMzLjAwNUg1LjQzMmMtMy4yNzYgMC01LjkzMi0yLjY1Ni01LjkzMi01LjkzMnMyLjY1Ni01LjkzMiA1LjkzMi01LjkzMnpNMTMuNDY3IDIuM2MtMi42NzQgMC00Ljg0MiAyLjE2OC00Ljg0MiA0Ljg0MmE0Ljk0IDQuOTQgMCAwIDAgLjAwNi4yMzggMS40IDEuNCAwIDAgMS0xLjM5OCAxLjQ2N2gtMS44Yy0xLjczIDAtMy4xMzIgMS40MDItMy4xMzIgMy4xMzJzMS40MDIgMy4xMzIgMy4xMzIgMy4xMzJoMTAuMTlhMy4xNCAzLjE0IDAgMCAwIC4xNi0uMDA0IDEuMzkgMS4zOSAwIDAgMSAuMTMxIDBjLjA2Ny4wMDMuMTM0LjAwNC4yMDIuMDA0aDQuMDU0YTQuNTMgNC41MyAwIDEgMCAwLTkuMDYyaC0uOTc3YTEuNCAxLjQgMCAwIDEtMS4yODMtLjg0QzE3LjE2MSAzLjQ5NCAxNS40NTIgMi4zIDEzLjQ2NyAyLjN6IiBmaWxsLXJ1bGU9ImV2ZW5vZGQiLz4mI3hhOzwvc3ZnPg==;labelPosition=center;align=left;fontSize=16;fontStyle=1;spacingLeft=0;" vertex="1" parent="1">
          <mxGeometry x="1016.91" y="588" width="34" height="22" as="geometry">
            <mxPoint x="260" y="-186" as="offset" />
          </mxGeometry>
        </mxCell>
        <mxCell id="KJaW32-MUoOeKXqnR98N-43" value="&lt;span style=&quot;color: rgb(0, 0, 0); font-family: Helvetica; font-size: 16px; font-style: normal; font-variant-ligatures: normal; font-variant-caps: normal; font-weight: 700; letter-spacing: normal; orphans: 2; text-align: left; text-indent: 0px; text-transform: none; widows: 2; word-spacing: 0px; -webkit-text-stroke-width: 0px; white-space: nowrap; background-color: rgb(255, 255, 255); text-decoration-thickness: initial; text-decoration-style: initial; text-decoration-color: initial; display: inline !important; float: none;&quot;&gt;SAP Cloud Solutions&lt;/span&gt;" style="text;whiteSpace=wrap;html=1;" vertex="1" parent="1">
          <mxGeometry x="1020" y="419.89" width="164" height="40" as="geometry" />
        </mxCell>
        <mxCell id="KJaW32-MUoOeKXqnR98N-44" value="" style="endArrow=none;html=1;strokeColor=#5B738B;bendable=1;rounded=0;endFill=0;endSize=4;strokeWidth=3;startSize=4;startArrow=none;startFill=0;jumpStyle=gap;" edge="1" parent="1">
          <mxGeometry width="50" height="50" relative="1" as="geometry">
            <mxPoint x="975.91" y="270" as="sourcePoint" />
            <mxPoint x="975.91" y="840" as="targetPoint" />
            <Array as="points" />
          </mxGeometry>
        </mxCell>
        <mxCell id="KJaW32-MUoOeKXqnR98N-45" value="" style="rounded=1;whiteSpace=wrap;html=1;strokeColor=#0070F2;fillColor=#ffffff;arcSize=24;absoluteArcSize=1;imageWidth=64;imageHeight=64;strokeWidth=1.5;part=1;verticalAlign=top;align=left;fontSize=16;fontStyle=1;spacingLeft=10;spacingTop=10;" vertex="1" parent="1">
          <mxGeometry x="225.91" y="467.45522388059703" width="310" height="155.97" as="geometry" />
        </mxCell>
        <mxCell id="KJaW32-MUoOeKXqnR98N-47" value="Mobile&#xa;Services" style="shape=mxgraph.sap.icon;labelPosition=center;verticalLabelPosition=bottom;align=center;verticalAlign=top;strokeWidth=1;strokeColor=#D5DADD;fillColor=#EDEFF0;gradientColor=#FCFCFC;gradientDirection=west;aspect=fixed;SAPIcon=SAP_Mobile_Services" vertex="1" parent="1">
          <mxGeometry x="460.12000000000006" y="484.9962686567164" width="31.570149253731337" height="31.570149253731337" as="geometry" />
        </mxCell>
        <mxCell id="KJaW32-MUoOeKXqnR98N-48" value="User Store" style="rounded=1;whiteSpace=wrap;html=1;strokeColor=#0070F2;strokeWidth=1.5;arcSize=16;fillColor=#EBF8FF;perimeterSpacing=0;absoluteArcSize=1;fontColor=#0070F2;fontSize=11;fontStyle=0" vertex="1" parent="1">
          <mxGeometry x="345.91" y="574.0970149253731" width="70" height="19.731343283582085" as="geometry" />
        </mxCell>
        <mxCell id="KJaW32-MUoOeKXqnR98N-49" value="UI Theme&#xa;Designer" style="shape=image;verticalLabelPosition=bottom;labelBackgroundColor=default;verticalAlign=top;aspect=fixed;imageAspect=0;image=data:image/svg+xml,PHN2ZyB4bWxucz0iaHR0cDovL3d3dy53My5vcmcvMjAwMC9zdmciIGZpbGw9Im5vbmUiIHZpZXdCb3g9IjAgMCAxNiAxNiIgaGVpZ2h0PSIxNiIgd2lkdGg9IjE2Ij4mI3hhOzxjaXJjbGUgc3Ryb2tlLXdpZHRoPSIwLjI4NTcwOCIgc3Ryb2tlPSIjRDVEQUREIiBmaWxsPSJ1cmwoI3BhaW50MF9saW5lYXJfMzg5MF8yMTUzNCkiIHI9IjcuODU2OTYiIGN5PSI3Ljk5NzM4IiBjeD0iNy45OTc4NiIvPiYjeGE7PGcgY2xpcC1wYXRoPSJ1cmwoI2NsaXAwXzM4OTBfMjE1MzQpIj4mI3hhOzxwYXRoIGZpbGw9InVybCgjcGFpbnQxX2xpbmVhcl8zODkwXzIxNTM0KSIgZD0iTTEwLjY4NjQgMTIuOTE5NEMxMC44NjI1IDEyLjkyMTIgMTEuMDQxMyAxMi44NzgxIDExLjIwNDkgMTIuNzg1M0wxMi41MjcyIDEyLjAzNTNDMTMuMDE0MSAxMS43NTkyIDEzLjE4MDkgMTEuMTQ3NiAxMi44OTk4IDEwLjY2OTNMMTAuNzM2NyA2Ljk4ODdDMTAuNTYwMiA2LjY4ODM4IDEwLjI0OTEgNi41MTIwMyA5LjkyMTQ5IDYuNDkwNzJMMTEuMTgwNyAxMS4xMDc1QzExLjM2MzYgMTEuNzc4MSAxMS4xNTIzIDEyLjQ2MTIgMTAuNjg2NCAxMi45MTk0WiIvPiYjeGE7PHBhdGggZmlsbD0idXJsKCNwYWludDJfbGluZWFyXzM4OTBfMjE1MzQpIiBkPSJNOS44NDA5NSAxMi40NjJDOS44MzE3OSAxMi40NDgxIDkuODIyOTQgMTIuNDMzOCA5LjgxNDQgMTIuNDE5M0w4LjczMjg2IDEwLjU3OUw4LjY4NTA2IDYuOTk3NjhMOS4wNzcwMiA2Ljc3NTM2TDEwLjMyMDQgMTEuMzM0QzEwLjQ0MjkgMTEuNzgzIDEwLjIzNCAxMi4yNDI1IDkuODQwOTUgMTIuNDYyWiIvPiYjeGE7PHBhdGggZmlsbD0idXJsKCNwYWludDNfbGluZWFyXzM4OTBfMjE1MzQpIiBkPSJNNy45MzU1MSAxMi45ODFDNy45OTM0NCAxMi45NzYzIDguMDUxNzIgMTIuOTY2NCA4LjEwOTggMTIuOTUxMUw5LjYxNzAyIDEyLjU1NDRDMTAuMTUxMSAxMi40MTM4IDEwLjQ2NjMgMTEuODY3OSAxMC4zMjA5IDExLjMzNTFMOC44NzEyOCA2LjAyMDE0QzguNzc5MDYgNS42ODIwNCA4LjUyMzU4IDUuNDMwNDUgOC4yMTI3IDUuMzI3NjRWMTIuMDA3NEM4LjIxMjcgMTIuMzYzOSA4LjExMTM5IDEyLjY5NzIgNy45MzU1MSAxMi45ODFaIi8+JiN4YTs8cGF0aCBmaWxsPSJ1cmwoI3BhaW50NF9saW5lYXJfMzg5MF8yMTUzNCkiIGQ9Ik03LjA5MzMxIDEyLjYzOUM2Ljk5NTU5IDEyLjUyNzYgNi45MjEwOCAxMi4zOTMgNi44Nzk2IDEyLjI0MDlMNS40Mjk5NCA2LjkyNjAxQzUuMjg0NjIgNi4zOTMxOSA1LjU5OTc3IDUuODQ3MjggNi4xMzM4NiA1LjcwNjY5TDcuMzIyMDIgNS4zOTM5M1YxMi4wMDc0QzcuMzIyMDIgMTIuMjQ2OSA3LjIzNjI4IDEyLjQ2NjggNy4wOTMzMSAxMi42MzlaIi8+JiN4YTs8cGF0aCBmaWxsPSJ1cmwoI3BhaW50NV9saW5lYXJfMzg5MF8yMTUzNCkiIGQ9Ik00Ljc1OTI4IDMuMDA3MzJDNC4yMDY5OSAzLjAwNzMyIDMuNzU5MjggMy40NTUwNCAzLjc1OTI4IDQuMDA3MzJWMTIuMDA3M0MzLjc1OTI4IDEyLjU1OTYgNC4yMDY5OSAxMy4wMDczIDQuNzU5MjggMTMuMDA3M0g2LjMyMjAxQzYuODc0MjkgMTMuMDA3MyA3LjMyMjAxIDEyLjU1OTYgNy4zMjIwMSAxMi4wMDczVjQuMDA3MzJDNy4zMjIwMSAzLjQ1NTA0IDYuODc0MjkgMy4wMDczMiA2LjMyMjAxIDMuMDA3MzJINC43NTkyOFpNNi4wNDEyMSA0LjczNjI3QzYuMDQxMjEgNS4wMTI0MSA1LjgxMzM0IDUuMjM2MjcgNS41MzIyNSA1LjIzNjI3QzUuMjUxMTYgNS4yMzYyNyA1LjAyMzI5IDUuMDEyNDEgNS4wMjMyOSA0LjczNjI3QzUuMDIzMjkgNC40NjAxMiA1LjI1MTE2IDQuMjM2MjcgNS41MzIyNSA0LjIzNjI3QzUuODEzMzQgNC4yMzYyNyA2LjA0MTIxIDQuNDYwMTIgNi4wNDEyMSA0LjczNjI3WiIgY2xpcC1ydWxlPSJldmVub2RkIiBmaWxsLXJ1bGU9ImV2ZW5vZGQiLz4mI3hhOzwvZz4mI3hhOzxkZWZzPiYjeGE7PGxpbmVhckdyYWRpZW50IGdyYWRpZW50VW5pdHM9InVzZXJTcGFjZU9uVXNlIiB5Mj0iMTQuNzQ1MyIgeDI9IjEzLjY4NTkiIHkxPSIyLjI2ODQ1IiB4MT0iMS40NDg5NyIgaWQ9InBhaW50MF9saW5lYXJfMzg5MF8yMTUzNCI+JiN4YTs8c3RvcCBzdG9wLWNvbG9yPSJ3aGl0ZSIvPiYjeGE7PHN0b3Agc3RvcC1jb2xvcj0iI0VBRUNFRSIgb2Zmc2V0PSIxIi8+JiN4YTs8L2xpbmVhckdyYWRpZW50PiYjeGE7PGxpbmVhckdyYWRpZW50IGdyYWRpZW50VW5pdHM9InVzZXJTcGFjZU9uVXNlIiB5Mj0iMTAuMjgxMSIgeDI9IjEzLjUxNDIiIHkxPSI3LjQ1NTI0IiB4MT0iOS4zMzYyNyIgaWQ9InBhaW50MV9saW5lYXJfMzg5MF8yMTUzNCI+JiN4YTs8c3RvcCBzdG9wLWNvbG9yPSIjMDBCQkZGIi8+JiN4YTs8c3RvcCBzdG9wLWNvbG9yPSIjMDA4QkZGIiBvZmZzZXQ9IjEiLz4mI3hhOzwvbGluZWFyR3JhZGllbnQ+JiN4YTs8bGluZWFyR3JhZGllbnQgZ3JhZGllbnRVbml0cz0idXNlclNwYWNlT25Vc2UiIHkyPSIxMC4yODExIiB4Mj0iMTMuNTE0MiIgeTE9IjcuNDU1MjQiIHgxPSI5LjMzNjI3IiBpZD0icGFpbnQyX2xpbmVhcl8zODkwXzIxNTM0Ij4mI3hhOzxzdG9wIHN0b3AtY29sb3I9IiMwMEJCRkYiLz4mI3hhOzxzdG9wIHN0b3AtY29sb3I9IiMwMDhCRkYiIG9mZnNldD0iMSIvPiYjeGE7PC9saW5lYXJHcmFkaWVudD4mI3hhOzxsaW5lYXJHcmFkaWVudCBncmFkaWVudFVuaXRzPSJ1c2VyU3BhY2VPblVzZSIgeTI9IjkuNjQyOTkiIHgyPSIxMS4wMjY1IiB5MT0iNi40NTM2MiIgeDE9IjYuMTI4MSIgaWQ9InBhaW50M19saW5lYXJfMzg5MF8yMTUzNCI+JiN4YTs8c3RvcCBzdG9wLWNvbG9yPSIjMTM0OEZGIi8+JiN4YTs8c3RvcCBzdG9wLWNvbG9yPSIjMDYyMzhEIiBvZmZzZXQ9IjEiLz4mI3hhOzwvbGluZWFyR3JhZGllbnQ+JiN4YTs8bGluZWFyR3JhZGllbnQgZ3JhZGllbnRVbml0cz0idXNlclNwYWNlT25Vc2UiIHkyPSI5LjY0Mjk5IiB4Mj0iMTEuMDI2NSIgeTE9IjYuNDUzNjIiIHgxPSI2LjEyODEiIGlkPSJwYWludDRfbGluZWFyXzM4OTBfMjE1MzQiPiYjeGE7PHN0b3Agc3RvcC1jb2xvcj0iIzEzNDhGRiIvPiYjeGE7PHN0b3Agc3RvcC1jb2xvcj0iIzA2MjM4RCIgb2Zmc2V0PSIxIi8+JiN4YTs8L2xpbmVhckdyYWRpZW50PiYjeGE7PGxpbmVhckdyYWRpZW50IGdyYWRpZW50VW5pdHM9InVzZXJTcGFjZU9uVXNlIiB5Mj0iNi4wODEwNSIgeDI9IjguNzIxOCIgeTE9IjQuNTAyNzYiIHgxPSI0LjI5MzM1IiBpZD0icGFpbnQ1X2xpbmVhcl8zODkwXzIxNTM0Ij4mI3hhOzxzdG9wIHN0b3AtY29sb3I9IiMwMTk1RkYiLz4mI3hhOzxzdG9wIHN0b3AtY29sb3I9IiMxMTQ3RTkiIG9mZnNldD0iMC45OTEwMjgiLz4mI3hhOzwvbGluZWFyR3JhZGllbnQ+JiN4YTs8Y2xpcFBhdGggaWQ9ImNsaXAwXzM4OTBfMjE1MzQiPiYjeGE7PHJlY3QgdHJhbnNmb3JtPSJ0cmFuc2xhdGUoMy4zOTc5NSAyLjk5NzU2KSIgZmlsbD0id2hpdGUiIGhlaWdodD0iMTAiIHdpZHRoPSIxMCIvPiYjeGE7PC9jbGlwUGF0aD4mI3hhOzwvZGVmcz4mI3hhOzwvc3ZnPg==;fontColor=#1D2D3E;" vertex="1" parent="1">
          <mxGeometry x="366.12000000000006" y="485" width="32" height="32" as="geometry" />
        </mxCell>
        <mxCell id="KJaW32-MUoOeKXqnR98N-50" value="User and role provisioning" style="edgeStyle=elbowEdgeStyle;rounded=0;orthogonalLoop=1;jettySize=auto;html=1;endArrow=blockThin;endFill=1;strokeWidth=1.5;strokeColor=#470BED;endSize=4;startSize=4;entryX=0.5;entryY=1;entryDx=0;entryDy=0;align=right;fontColor=#1D2D3E;fontSize=10;spacingRight=5;" edge="1" parent="1" target="KJaW32-MUoOeKXqnR98N-48">
          <mxGeometry x="0.6364" relative="1" as="geometry">
            <mxPoint x="380.91" y="659.1298507462686" as="targetPoint" />
            <mxPoint x="380.91" y="716.3507462686566" as="sourcePoint" />
            <mxPoint as="offset" />
          </mxGeometry>
        </mxCell>
        <mxCell id="KJaW32-MUoOeKXqnR98N-124" value="" style="edgeStyle=orthogonalEdgeStyle;rounded=0;orthogonalLoop=1;jettySize=auto;html=1;" edge="1" parent="1" source="KJaW32-MUoOeKXqnR98N-51" target="KJaW32-MUoOeKXqnR98N-20">
          <mxGeometry relative="1" as="geometry" />
        </mxCell>
        <mxCell id="KJaW32-MUoOeKXqnR98N-51" value="SCIM" style="rounded=1;whiteSpace=wrap;html=1;strokeColor=#470BED;strokeWidth=1.5;arcSize=16;fillColor=#F1ECFF;perimeterSpacing=0;absoluteArcSize=1;fontColor=#470BED;fontSize=10;fontStyle=1" vertex="1" parent="1">
          <mxGeometry x="360.91" y="676.8880597014926" width="40" height="15.785074626865672" as="geometry" />
        </mxCell>
        <mxCell id="KJaW32-MUoOeKXqnR98N-52" value="Navigation&#xa;Service" style="shape=image;editableCssRules=.*;verticalLabelPosition=bottom;labelBackgroundColor=default;verticalAlign=top;aspect=fixed;imageAspect=0;image=data:image/svg+xml,PHN2ZyB4bWxucz0iaHR0cDovL3d3dy53My5vcmcvMjAwMC9zdmciIHZpZXdCb3g9Ii0wLjUgLTAuNSAyNS4yIDI4IiBoZWlnaHQ9IjI4IiB3aWR0aD0iMjUuMiI+JiN4YTsJICA8c3R5bGUgdHlwZT0idGV4dC9jc3MiPiYjeGE7CQkuc3Qwe3N0b3AtY29sb3I6IzAwY2VhYzt9JiN4YTsJCS5zdDF7c3RvcC1jb2xvcjojMDc4MzhmO30mI3hhOwkgIDwvc3R5bGU+JiN4YTsJPGRlZnM+JiN4YTsJCTxsaW5lYXJHcmFkaWVudCBncmFkaWVudFVuaXRzPSJ1c2VyU3BhY2VPblVzZSIgeTI9IjIzLjA1NyIgeDI9IjIzLjEyNiIgeTE9IjMuNDc0IiB4MT0iMS43ODUiIGlkPSJBIj4mI3hhOwkJCTxzdG9wIGNsYXNzPSJzdDAiLz4mI3hhOwkJCTxzdG9wIGNsYXNzPSJzdDEiIG9mZnNldD0iMSIvPiYjeGE7CQk8L2xpbmVhckdyYWRpZW50PiYjeGE7CTwvZGVmcz4mI3hhOwk8cGF0aCBmaWxsPSJ1cmwoI0EpIiBkPSJNMTEuNzU3LS40ODNDMTEuNDQ1LS40MDEuMTg0IDQuNzExLjAyIDQuODM3YTEuNzkgMS43OSAwIDAgMC0uMzU2LjQ3MWwtLjE2NC4zMjN2Ny44ODJWMjEuNGwuMTM3LjI2OGMuMDc3LjE0OC4yMjQuMzQ1LjMzOS40MzguMTMxLjExNSAyLjE3MiAxLjA2MiA1Ljk1OSAyLjc2NCA2LjE4MyAyLjc4MSA2LjA3NCAyLjczNyA2LjU3NyAyLjU2Mi4zOTktLjEzNyAxMS4zNy01LjA4NSAxMS41OTUtNS4yMjcuMjMtLjE0OC40Ni0uNDYuNTM2LS43MjguMDgyLS4yNzQuMDcxLTE1LjY2NS0uMDA2LTE1Ljk1LS4wODItLjI4NS0uMzM0LS42MzUtLjU1OC0uNzY2LS4wOTMtLjA2LTIuNzM2LTEuMjY0LTUuODY2LTIuNjcxLTUuMTYtMi4zMjYtNS43MjQtMi41NjctNi4wMTktMi41ODQtLjE4MS0uMDExLS4zNzgtLjAwNS0uNDM4LjAxMXptNC4yMjQgNC42NTNsMy44MDggMS43NzNjLS4wNjYuMDY2LTcuNTg0IDMuNDQ4LTcuNjc3IDMuNDU0YTM0OS43NSAzNDkuNzUgMCAwIDEtNy43MjYtMy40NTRjLS4wMzMtLjAyNyA3LjU3My0zLjQ5MiA3LjY5My0zLjUwMy4wMjctLjAwNSAxLjc4NC43NzIgMy45MDEgMS43M3ptLTkuNDIzIDUuODQ2bDQuMTMxIDEuODYxdjYuMDA1bC0uMDM4IDYuMDFjLS4wMTYgMC0xLjkwNC0uODQzLTQuMTg2LTEuODY3bC00LjE0OC0xLjg3MnYtNi4wMTVsLjA1NS01Ljk5OWMuMDI3LjAwNSAxLjkxLjg1NCA0LjE4NiAxLjg3N3ptMTUuMzQ5IDQuMTIydjYuMDFsLTQuMTE1IDEuODU1LTQuMjEzIDEuODc4Yy0uMDkzLjAyMi0uMDk4LS4yNzQtLjA4OC01Ljk4OGwuMDE2LTYuMDEgNC4xNTgtMS44NzcgNC4yMDMtMS44NzdjLjAyMiAwIC4wMzggMi43MDQuMDM4IDYuMDF6Ii8+JiN4YTs8L3N2Zz4=;" vertex="1" parent="1">
          <mxGeometry x="276.91" y="489.37731343283576" width="24.66417910447761" height="27.62388059701492" as="geometry" />
        </mxCell>
        <mxCell id="KJaW32-MUoOeKXqnR98N-53" value="" style="rounded=0;whiteSpace=wrap;html=1;strokeColor=#eaecee;strokeWidth=1.5;arcSize=16;fillColor=#FFFFFF;perimeterSpacing=0;imageHeight=24;absoluteArcSize=1;points=[];connectable=0;container=0;" vertex="1" parent="1">
          <mxGeometry x="761.5" y="-820" width="323" height="114" as="geometry" />
        </mxCell>
        <mxCell id="KJaW32-MUoOeKXqnR98N-54" value="&lt;font size=&quot;1&quot; style=&quot;&quot; face=&quot;arial&quot; color=&quot;#1d2d3e&quot;&gt;&lt;b style=&quot;font-size: 12px;&quot;&gt;Legenda&lt;/b&gt;&lt;/font&gt;" style="text;html=1;align=left;verticalAlign=top;resizable=0;points=[];autosize=1;strokeColor=none;fillColor=none;fontSize=12;fontColor=default;fontFamily=Helvetica;" vertex="1" parent="1">
          <mxGeometry x="782.4982051282052" y="-811" width="70" height="30" as="geometry" />
        </mxCell>
        <mxCell id="KJaW32-MUoOeKXqnR98N-55" value="&lt;div style=&quot;font-size: 10px; line-height: 100%;&quot;&gt;&lt;span style=&quot;font-family: arial; font-size: 10px; background-color: initial;&quot;&gt;&lt;font style=&quot;font-size: 10px;&quot;&gt;Job&lt;/font&gt;&lt;/span&gt;&lt;/div&gt;" style="text;html=1;align=left;verticalAlign=middle;resizable=0;points=[];autosize=1;strokeColor=none;fillColor=none;fontSize=10;fontColor=#1D2D3E;fontFamily=Helvetica;labelPosition=center;verticalLabelPosition=middle;" vertex="1" parent="1">
          <mxGeometry x="801.3699999999999" y="-739" width="40" height="20" as="geometry" />
        </mxCell>
        <mxCell id="KJaW32-MUoOeKXqnR98N-56" value="" style="ellipse;whiteSpace=wrap;html=1;aspect=fixed;strokeColor=none;fillColor=#475E75;fontColor=#475E75;" vertex="1" parent="1">
          <mxGeometry x="782.8699999999999" y="-736.5" width="16" height="16" as="geometry" />
        </mxCell>
        <mxCell id="KJaW32-MUoOeKXqnR98N-57" value="" style="ellipse;whiteSpace=wrap;html=1;aspect=fixed;strokeColor=none;fillColor=#188918;" vertex="1" parent="1">
          <mxGeometry x="782.5" y="-759.5" width="16" height="16" as="geometry" />
        </mxCell>
        <mxCell id="KJaW32-MUoOeKXqnR98N-58" value="&lt;div style=&quot;font-size: 10px; line-height: 100%;&quot;&gt;&lt;span style=&quot;font-family: arial; font-size: 10px; background-color: initial;&quot;&gt;&lt;font style=&quot;font-size: 10px;&quot;&gt;Eventos&lt;/font&gt;&lt;/span&gt;&lt;/div&gt;" style="text;html=1;align=left;verticalAlign=middle;resizable=0;points=[];autosize=1;strokeColor=none;fillColor=none;fontSize=10;fontColor=#1D2D3E;fontFamily=Helvetica;labelPosition=center;verticalLabelPosition=middle;" vertex="1" parent="1">
          <mxGeometry x="801" y="-762" width="60" height="20" as="geometry" />
        </mxCell>
        <mxCell id="KJaW32-MUoOeKXqnR98N-59" value="" style="ellipse;whiteSpace=wrap;html=1;aspect=fixed;strokeColor=none;fillColor=#7F00FF;fontColor=#475E75;" vertex="1" parent="1">
          <mxGeometry x="782.8699999999999" y="-782.5" width="16" height="16" as="geometry" />
        </mxCell>
        <mxCell id="KJaW32-MUoOeKXqnR98N-60" value="&lt;div style=&quot;font-size: 10px; line-height: 100%;&quot;&gt;&lt;span style=&quot;font-family: arial; font-size: 10px; background-color: initial;&quot;&gt;&lt;font style=&quot;font-size: 10px;&quot;&gt;Monitor SAP&lt;/font&gt;&lt;/span&gt;&lt;/div&gt;" style="text;html=1;align=left;verticalAlign=middle;resizable=0;points=[];autosize=1;strokeColor=none;fillColor=none;fontSize=10;fontColor=#1D2D3E;fontFamily=Helvetica;labelPosition=center;verticalLabelPosition=middle;" vertex="1" parent="1">
          <mxGeometry x="801.3699999999999" y="-782.5" width="80" height="20" as="geometry" />
        </mxCell>
        <mxCell id="KJaW32-MUoOeKXqnR98N-65" value="" style="endArrow=classic;html=1;strokeColor=#188918;bendable=1;rounded=0;endFill=1;endSize=4;strokeWidth=1.5;startSize=4;startArrow=classic;startFill=1;entryX=0.04;entryY=0.52;entryDx=0;entryDy=0;entryPerimeter=0;align=center;verticalAlign=middle;fontFamily=Helvetica;fontSize=11;fontColor=default;labelBackgroundColor=default;" edge="1" parent="1">
          <mxGeometry width="50" height="50" relative="1" as="geometry">
            <mxPoint x="976.5" y="-778.22" as="sourcePoint" />
            <mxPoint x="998.5" y="-778.22" as="targetPoint" />
            <Array as="points" />
          </mxGeometry>
        </mxCell>
        <mxCell id="KJaW32-MUoOeKXqnR98N-66" value="&lt;div style=&quot;font-size: 10px; line-height: 100%;&quot;&gt;&lt;span style=&quot;font-family: arial; font-size: 10px; background-color: initial;&quot;&gt;&lt;font style=&quot;font-size: 10px;&quot;&gt;Sync&lt;/font&gt;&lt;/span&gt;&lt;/div&gt;" style="text;html=1;align=left;verticalAlign=middle;resizable=0;points=[];autosize=1;strokeColor=none;fillColor=none;fontSize=10;fontColor=#1D2D3E;fontFamily=Helvetica;labelPosition=center;verticalLabelPosition=middle;" vertex="1" parent="1">
          <mxGeometry x="1007.5" y="-788.5" width="50" height="20" as="geometry" />
        </mxCell>
        <mxCell id="KJaW32-MUoOeKXqnR98N-67" value="" style="endArrow=none;html=1;strokeColor=#188918;bendable=1;rounded=0;endFill=0;endSize=3;strokeWidth=1.5;dashed=1;" edge="1" parent="1">
          <mxGeometry width="50" height="50" relative="1" as="geometry">
            <mxPoint x="998.75" y="-753.53" as="sourcePoint" />
            <mxPoint x="977.75" y="-753.53" as="targetPoint" />
            <Array as="points" />
          </mxGeometry>
        </mxCell>
        <mxCell id="KJaW32-MUoOeKXqnR98N-68" value="&lt;div style=&quot;font-size: 10px; line-height: 100%;&quot;&gt;&lt;span style=&quot;font-family: arial; font-size: 10px; background-color: initial;&quot;&gt;&lt;font style=&quot;font-size: 10px;&quot;&gt;Evento&lt;/font&gt;&lt;/span&gt;&lt;/div&gt;" style="text;html=1;align=left;verticalAlign=middle;resizable=0;points=[];autosize=1;strokeColor=none;fillColor=none;fontSize=10;fontColor=#1D2D3E;fontFamily=Helvetica;labelPosition=center;verticalLabelPosition=middle;" vertex="1" parent="1">
          <mxGeometry x="1007.5" y="-764.5" width="50" height="20" as="geometry" />
        </mxCell>
        <mxCell id="KJaW32-MUoOeKXqnR98N-69" value="" style="endArrow=none;html=1;strokeColor=#FF0000;bendable=1;rounded=0;endFill=0;strokeWidth=2;startArrow=classicThin;startFill=1;" edge="1" parent="1">
          <mxGeometry width="50" height="50" relative="1" as="geometry">
            <mxPoint x="998.75" y="-728.03" as="sourcePoint" />
            <mxPoint x="977.75" y="-728.03" as="targetPoint" />
            <Array as="points" />
          </mxGeometry>
        </mxCell>
        <mxCell id="KJaW32-MUoOeKXqnR98N-70" value="&lt;div style=&quot;font-size: 10px; line-height: 100%;&quot;&gt;&lt;font face=&quot;arial&quot;&gt;Erro&lt;/font&gt;&lt;/div&gt;" style="text;html=1;align=left;verticalAlign=middle;resizable=0;points=[];autosize=1;strokeColor=none;fillColor=none;fontSize=10;fontColor=#1D2D3E;fontFamily=Helvetica;labelPosition=center;verticalLabelPosition=middle;" vertex="1" parent="1">
          <mxGeometry x="1007.5" y="-739" width="40" height="20" as="geometry" />
        </mxCell>
        <mxCell id="KJaW32-MUoOeKXqnR98N-71" value="&lt;font face=&quot;arial&quot; color=&quot;#475e75&quot;&gt;This BTP Solution Diagram&amp;nbsp;&lt;/font&gt;&lt;span style=&quot;color: rgb(71, 94, 117); font-family: arial;&quot;&gt;depicts the BTP services setup within a customer&#39;s subaccount for&lt;/span&gt;&lt;br style=&quot;color: rgb(71, 94, 117); font-family: arial;&quot;&gt;&lt;span style=&quot;color: rgb(71, 94, 117); font-family: arial;&quot;&gt;SAP Start as predefined entry point for accessing SAP cloud buisness solutions which is also&lt;/span&gt;&lt;div&gt;&lt;span style=&quot;color: rgb(71, 94, 117); font-family: arial;&quot;&gt;integrated&amp;nbsp;&lt;/span&gt;&lt;span style=&quot;background-color: initial; color: rgb(71, 94, 117); font-family: arial;&quot;&gt;with SAP Task Center and Joule&lt;/span&gt;&lt;font style=&quot;background-color: initial;&quot; face=&quot;arial&quot; color=&quot;#475e75&quot;&gt;.&lt;/font&gt;&lt;/div&gt;" style="text;html=1;align=left;verticalAlign=middle;resizable=0;points=[];autosize=1;strokeColor=none;fillColor=none;fontSize=12;fontColor=#1D2D3E;fontFamily=Helvetica;" vertex="1" parent="1">
          <mxGeometry x="48.16000000000008" y="766" width="520" height="60" as="geometry" />
        </mxCell>
        <mxCell id="KJaW32-MUoOeKXqnR98N-72" value="&lt;font face=&quot;arial&quot; color=&quot;#475e75&quot;&gt;&lt;b&gt;Diagram Level: 2&lt;/b&gt;&lt;/font&gt;" style="text;html=1;align=left;verticalAlign=middle;resizable=0;points=[];autosize=1;strokeColor=none;fillColor=none;fontSize=12;fontColor=#1D2D3E;fontFamily=Helvetica;" vertex="1" parent="1">
          <mxGeometry x="48.16000000000008" y="746.5" width="120" height="30" as="geometry" />
        </mxCell>
        <mxCell id="KJaW32-MUoOeKXqnR98N-73" value="SAP Fieldglass" style="text;html=1;align=left;verticalAlign=middle;resizable=0;points=[];autosize=1;strokeColor=none;fillColor=none;fontSize=10;fontColor=#1A2733;fontFamily=Helvetica;fontStyle=1" vertex="1" parent="1">
          <mxGeometry x="1016.91" y="681.11" width="90" height="30" as="geometry" />
        </mxCell>
        <mxCell id="KJaW32-MUoOeKXqnR98N-74" value="" style="shape=image;verticalLabelPosition=bottom;labelBackgroundColor=default;verticalAlign=top;aspect=fixed;imageAspect=0;image=data:image/svg+xml,PHN2ZyB4bWxucz0iaHR0cDovL3d3dy53My5vcmcvMjAwMC9zdmciIGZpbGw9Im5vbmUiIHZpZXdCb3g9IjAgMCAxNiAxNiIgaGVpZ2h0PSIxNiIgd2lkdGg9IjE2Ij4mI3hhOzxwYXRoIGZpbGw9IiMxRDJEM0UiIGQ9Ik0xMi41NTEyIDUuMjQyMzJDMTAuODU3MiA0Ljk1MzA0IDEwLjMxNTEgMy42MDQ3MiAxMC4xMzYgMi43NjE0MUMxMC4xMTY2IDIuNjc4MDYgMTAuMDEwMSAyLjY4Mjk3IDkuOTk1NjIgMi43NjYzMkM5LjcxMDA2IDQuNDgyMzYgOC4zNzkwMyA1LjAzMTQ5IDcuNTQ2NTMgNS4yMTI5QzcuNDY0MjUgNS4yMzI1MSA3LjQ2OTA5IDUuMzQwMzggNy41NTEzNyA1LjM1NTA5QzkuMjQ1NDEgNS42NDQzNiA5Ljc4NzUgNi45OTI2OCA5Ljk2NjU4IDcuODM1OTlDOS45ODU5NCA3LjkxOTM0IDEwLjA5MjQgNy45MTQ0NCAxMC4xMDY5IDcuODMxMDlDMTAuMzkyNSA2LjExNTA1IDExLjcyMzUgNS41NjU5MSAxMi41NTYgNS4zODQ1QzEyLjYzODMgNS4zNjQ4OSAxMi42MzM1IDUuMjU3MDMgMTIuNTUxMiA1LjI0MjMyWiIvPiYjeGE7PHBhdGggZmlsbD0iIzFEMkQzRSIgZD0iTTQuNDEwMjYgMEM0LjE2MzA3IDAgMy45MjkwNiAwLjExMjg4NCAzLjc3MzI1IDAuMzA3Mjc4TDAuMTgzNTExIDQuNzg2MThDLTAuMDUyMjA1NyA1LjA4MDI4IC0wLjA2MTc4MjUgNS40OTg2NCAwLjE2MDIyMyA1LjgwMzQ5TDcuMzM5NzEgMTUuNjYyMkM3LjQ5NDM4IDE1Ljg3NDYgNy43Mzk0NSAxNiA4IDE2QzguMjYwNTUgMTYgOC41MDU2MiAxNS44NzQ2IDguNjYwMjkgMTUuNjYyMkwxNS44Mzk4IDUuODAzNDlDMTYuMDYxOCA1LjQ5ODY0IDE2LjA1MjIgNS4wODAyOCAxNS44MTY1IDQuNzg2MThMMTIuMjI2NyAwLjMwNzI3OEMxMi4wNzA5IDAuMTEyODg0IDExLjgzNjkgMCAxMS41ODk3IDBINC40MTAyNlpNMS44NTc4NyA1LjMzNDQ0TDQuODAwOTggMS42NjIzNEgxMS4xOTlMMTQuMTQyMSA1LjMzNDQ0TDggMTMuNzY4N0wxLjg1Nzg3IDUuMzM0NDRaIiBjbGlwLXJ1bGU9ImV2ZW5vZGQiIGZpbGwtcnVsZT0iZXZlbm9kZCIvPiYjeGE7PC9zdmc+;" vertex="1" parent="1">
          <mxGeometry x="1140.5" y="455.01" width="16" height="16" as="geometry" />
        </mxCell>
        <mxCell id="KJaW32-MUoOeKXqnR98N-75" value="" style="shape=image;verticalLabelPosition=bottom;labelBackgroundColor=default;verticalAlign=top;aspect=fixed;imageAspect=0;image=data:image/svg+xml,PHN2ZyB4bWxucz0iaHR0cDovL3d3dy53My5vcmcvMjAwMC9zdmciIGZpbGw9Im5vbmUiIHZpZXdCb3g9IjAgMCAxNiAxNiIgaGVpZ2h0PSIxNiIgd2lkdGg9IjE2Ij4mI3hhOzxwYXRoIGZpbGw9IiMxRDJEM0UiIGQ9Ik0xMi41NTEyIDUuMjQyMzJDMTAuODU3MiA0Ljk1MzA0IDEwLjMxNTEgMy42MDQ3MiAxMC4xMzYgMi43NjE0MUMxMC4xMTY2IDIuNjc4MDYgMTAuMDEwMSAyLjY4Mjk3IDkuOTk1NjIgMi43NjYzMkM5LjcxMDA2IDQuNDgyMzYgOC4zNzkwMyA1LjAzMTQ5IDcuNTQ2NTMgNS4yMTI5QzcuNDY0MjUgNS4yMzI1MSA3LjQ2OTA5IDUuMzQwMzggNy41NTEzNyA1LjM1NTA5QzkuMjQ1NDEgNS42NDQzNiA5Ljc4NzUgNi45OTI2OCA5Ljk2NjU4IDcuODM1OTlDOS45ODU5NCA3LjkxOTM0IDEwLjA5MjQgNy45MTQ0NCAxMC4xMDY5IDcuODMxMDlDMTAuMzkyNSA2LjExNTA1IDExLjcyMzUgNS41NjU5MSAxMi41NTYgNS4zODQ1QzEyLjYzODMgNS4zNjQ4OSAxMi42MzM1IDUuMjU3MDMgMTIuNTUxMiA1LjI0MjMyWiIvPiYjeGE7PHBhdGggZmlsbD0iIzFEMkQzRSIgZD0iTTQuNDEwMjYgMEM0LjE2MzA3IDAgMy45MjkwNiAwLjExMjg4NCAzLjc3MzI1IDAuMzA3Mjc4TDAuMTgzNTExIDQuNzg2MThDLTAuMDUyMjA1NyA1LjA4MDI4IC0wLjA2MTc4MjUgNS40OTg2NCAwLjE2MDIyMyA1LjgwMzQ5TDcuMzM5NzEgMTUuNjYyMkM3LjQ5NDM4IDE1Ljg3NDYgNy43Mzk0NSAxNiA4IDE2QzguMjYwNTUgMTYgOC41MDU2MiAxNS44NzQ2IDguNjYwMjkgMTUuNjYyMkwxNS44Mzk4IDUuODAzNDlDMTYuMDYxOCA1LjQ5ODY0IDE2LjA1MjIgNS4wODAyOCAxNS44MTY1IDQuNzg2MThMMTIuMjI2NyAwLjMwNzI3OEMxMi4wNzA5IDAuMTEyODg0IDExLjgzNjkgMCAxMS41ODk3IDBINC40MTAyNlpNMS44NTc4NyA1LjMzNDQ0TDQuODAwOTggMS42NjIzNEgxMS4xOTlMMTQuMTQyMSA1LjMzNDQ0TDggMTMuNzY4N0wxLjg1Nzg3IDUuMzM0NDRaIiBjbGlwLXJ1bGU9ImV2ZW5vZGQiIGZpbGwtcnVsZT0iZXZlbm9kZCIvPiYjeGE7PC9zdmc+;" vertex="1" parent="1">
          <mxGeometry x="1140.5" y="475.3" width="16" height="16" as="geometry" />
        </mxCell>
        <mxCell id="KJaW32-MUoOeKXqnR98N-77" value="" style="edgeStyle=orthogonalEdgeStyle;rounded=0;orthogonalLoop=1;jettySize=auto;html=1;" edge="1" parent="1" source="KJaW32-MUoOeKXqnR98N-33">
          <mxGeometry relative="1" as="geometry">
            <mxPoint x="71.91" y="508" as="targetPoint" />
          </mxGeometry>
        </mxCell>
        <mxCell id="KJaW32-MUoOeKXqnR98N-78" value="Compras" style="shape=image;editableCssRules=.*;verticalLabelPosition=bottom;labelBackgroundColor=default;verticalAlign=top;aspect=fixed;imageAspect=0;image=data:image/svg+xml,PHN2ZyB4bWxucz0iaHR0cDovL3d3dy53My5vcmcvMjAwMC9zdmciIHZpZXdCb3g9Ii0wLjUgLTAuNSAyOCAyOCIgaGVpZ2h0PSIyOCIgd2lkdGg9IjI4Ij4mI3hhOwkgIDxzdHlsZSB0eXBlPSJ0ZXh0L2NzcyI+LnN0MCB7IHN0b3AtY29sb3I6IHJnYig5MSwgMTE1LCAxMzkpOyB9IC5zdDEgeyBzdG9wLWNvbG9yOiByZ2IoMzQsIDUzLCA3Mik7IH0gPC9zdHlsZT4mI3hhOwk8ZGVmcz4mI3hhOwkJPGxpbmVhckdyYWRpZW50IGdyYWRpZW50VW5pdHM9InVzZXJTcGFjZU9uVXNlIiB5Mj0iMjUuMzA5IiB4Mj0iMjMuNDU0IiB5MT0iMy40NzQiIHgxPSIyLjAzOSIgaWQ9IkEiPiYjeGE7CQkJPHN0b3AgY2xhc3M9InN0MCIvPiYjeGE7CQkJPHN0b3AgY2xhc3M9InN0MSIgb2Zmc2V0PSIxIi8+JiN4YTsJCTwvbGluZWFyR3JhZGllbnQ+JiN4YTsJPC9kZWZzPiYjeGE7CTxwYXRoIGZpbGw9InVybCgjQSkiIGQ9Ik0tLjUgMTMuNDcyYzAtMS45My4zNzEtMy43MyAxLjExMy01LjQuNzQyLTEuNzA3IDEuNzQ0LTMuMTkyIDMuMDA2LTQuNDUzUzYuMzY1IDEuMzU2IDguMDczLjYxMyAxMS41OTgtLjUgMTMuNTI4LS41czMuNzMuMzcxIDUuNCAxLjExM2MxLjcwNy43NDIgMy4xOTIgMS43NDQgNC40NTMgMy4wMDZzMi4yNjQgMi43NDYgMy4wMDYgNC40NTNjLjc0MiAxLjY3IDEuMTEzIDMuNDcgMS4xMTMgNS40cy0uMzcxIDMuNzQ4LTEuMTEzIDUuNDU1LTEuNzQ0IDMuMTkyLTMuMDA2IDQuNDUzYTE0LjI4IDE0LjI4IDAgMCAxLTQuNDUzIDMuMDA2Yy0xLjY3Ljc0Mi0zLjQ3IDEuMTEzLTUuNCAxLjExM3MtMy43NDgtLjM3MS01LjQ1NS0xLjExM2ExNC4yOCAxNC4yOCAwIDAgMS00LjQ1My0zLjAwNiAxNC4yOCAxNC4yOCAwIDAgMS0zLjAwNi00LjQ1M0MtLjEyOSAxNy4yMi0uNSAxNS40MDItLjUgMTMuNDcyem0xNi44MTEgNC4yMzFhNi42NSA2LjY1IDAgMCAxIDMuMjg0LjgzNWMxLjAwMi41MiAxLjgxOCAxLjI0MyAyLjQ0OSAyLjE3MWExMC4xNCAxMC4xNCAwIDAgMCAxLjk0OC0zLjI4NGMuNDgyLTEuMjI1LjcyNC0yLjU0Mi43MjQtMy45NTIgMC0xLjU1OS0uMjk3LTMuMDA2LS44OTEtNC4zNDItLjU5NC0xLjM3My0xLjM5Mi0yLjU2MS0yLjM5NC0zLjU2M3MtMi4xOS0xLjgtMy41NjMtMi4zOTRjLTEuMzM2LS41OTQtMi43ODMtLjg5MS00LjM0Mi0uODkxcy0zLjAyNC4yOTctNC4zOTguODkxYy0xLjMzNi41OTQtMi41MjQgMS4zOTItMy41NjMgMi4zOTRBMTEuMzUgMTEuMzUgMCAwIDAgMy4xNzQgOS4xM2MtLjU5NCAxLjMzNi0uODkxIDIuNzgzLS44OTEgNC4zNDIgMCAxLjQxLjIyMyAyLjcyOC42NjggMy45NTIuNDgyIDEuMjI1IDEuMTUgMi4zMTkgMi4wMDQgMy4yODQuNjMxLS45MjggMS40NDctMS42NTEgMi40NDktMi4xNzFhNi42NSA2LjY1IDAgMCAxIDMuMjg0LS44MzV6bTIuNzgzLTcuMDE0YTUuNjggNS42OCAwIDAgMS0uNDQ1IDIuMjI3IDUuODcgNS44NyAwIDAgMS0xLjIyNSAxLjc4MWMtLjQ4Mi40ODItMS4wNTguODcyLTEuNzI2IDEuMTY5cy0xLjM5Mi40NDUtMi4xNzEuNDQ1YTUuNjggNS42OCAwIDAgMS0yLjIyNy0uNDQ1IDYuNDQgNi40NCAwIDAgMS0xLjc4MS0xLjE2OSA2LjQ0IDYuNDQgMCAwIDEtMS4xNjktMS43ODEgNS42OCA1LjY4IDAgMCAxLS40NDUtMi4yMjdjMC0uNzc5LjE0OC0xLjUwMy40NDUtMi4xNzFBNi40NCA2LjQ0IDAgMCAxIDkuNTIgNi43MzdhNS44NyA1Ljg3IDAgMCAxIDEuNzgxLTEuMjI1IDUuNjggNS42OCAwIDAgMSAyLjIyNy0uNDQ1Yy43NzkgMCAxLjUwMy4xNDggMi4xNzEuNDQ1czEuMjQzLjcwNSAxLjcyNiAxLjIyNWE1Ljg3IDUuODcgMCAwIDEgMS4yMjUgMS43ODFjLjI5Ny42NjguNDQ1IDEuMzkyLjQ0NSAyLjE3MXptLTIuNzgzIDBjMC0uNzc5LS4yNzgtMS40MjktLjgzNS0xLjk0OC0uNTU3LS41NTctMS4yMDYtLjgzNS0xLjk0OC0uODM1YTIuNzMgMi43MyAwIDAgMC0yLjAwNC44MzVjLS41NTcuNTItLjgzNSAxLjE2OS0uODM1IDEuOTQ4YTIuNzMgMi43MyAwIDAgMCAuODM1IDIuMDA0Yy41NTcuNTIgMS4yMjUuNzc5IDIuMDA0Ljc3OS43NDIgMCAxLjM5Mi0uMjYgMS45NDgtLjc3OWEyLjczIDIuNzMgMCAwIDAgLjgzNS0yLjAwNHpNNy4wNzEgMjIuNjU3Yy44OTEuNjMxIDEuODc0IDEuMTMyIDIuOTUgMS41MDMgMS4xMTMuMzcxIDIuMjgyLjU1NyAzLjUwNy41NTcgMS4xODggMCAyLjMxOS0uMTg2IDMuMzk2LS41NTcgMS4xMTMtLjM3MSAyLjExNS0uODcyIDMuMDA2LTEuNTAzLS4zNzEtLjY2OC0uODkxLTEuMTg4LTEuNTU5LTEuNTU5LS42MzEtLjQwOC0xLjMxNy0uNjEyLTIuMDYtLjYxMmgtNS42MjJjLS43NDIgMC0xLjQ0Ny4yMDQtMi4xMTUuNjEyLS42MzEuMzcxLTEuMTMyLjg5MS0xLjUwMyAxLjU1OXoiLz4mI3hhOzwvc3ZnPg==;fontSize=12;fontColor=#1D2D3E;" vertex="1" parent="1">
          <mxGeometry x="48.16" y="-640" width="28" height="28" as="geometry" />
        </mxCell>
        <mxCell id="KJaW32-MUoOeKXqnR98N-79" value="Fiscal" style="shape=image;editableCssRules=.*;verticalLabelPosition=bottom;labelBackgroundColor=default;verticalAlign=top;aspect=fixed;imageAspect=0;image=data:image/svg+xml,PHN2ZyB4bWxucz0iaHR0cDovL3d3dy53My5vcmcvMjAwMC9zdmciIHZpZXdCb3g9Ii0wLjUgLTAuNSAyOCAyOCIgaGVpZ2h0PSIyOCIgd2lkdGg9IjI4Ij4mI3hhOwkgIDxzdHlsZSB0eXBlPSJ0ZXh0L2NzcyI+LnN0MCB7IHN0b3AtY29sb3I6IHJnYig5MSwgMTE1LCAxMzkpOyB9IC5zdDEgeyBzdG9wLWNvbG9yOiByZ2IoMzQsIDUzLCA3Mik7IH0gPC9zdHlsZT4mI3hhOwk8ZGVmcz4mI3hhOwkJPGxpbmVhckdyYWRpZW50IGdyYWRpZW50VW5pdHM9InVzZXJTcGFjZU9uVXNlIiB5Mj0iMjUuMzA5IiB4Mj0iMjMuNDU0IiB5MT0iMy40NzQiIHgxPSIyLjAzOSIgaWQ9IkEiPiYjeGE7CQkJPHN0b3AgY2xhc3M9InN0MCIvPiYjeGE7CQkJPHN0b3AgY2xhc3M9InN0MSIgb2Zmc2V0PSIxIi8+JiN4YTsJCTwvbGluZWFyR3JhZGllbnQ+JiN4YTsJPC9kZWZzPiYjeGE7CTxwYXRoIGZpbGw9InVybCgjQSkiIGQ9Ik0tLjUgMTMuNDcyYzAtMS45My4zNzEtMy43MyAxLjExMy01LjQuNzQyLTEuNzA3IDEuNzQ0LTMuMTkyIDMuMDA2LTQuNDUzUzYuMzY1IDEuMzU2IDguMDczLjYxMyAxMS41OTgtLjUgMTMuNTI4LS41czMuNzMuMzcxIDUuNCAxLjExM2MxLjcwNy43NDIgMy4xOTIgMS43NDQgNC40NTMgMy4wMDZzMi4yNjQgMi43NDYgMy4wMDYgNC40NTNjLjc0MiAxLjY3IDEuMTEzIDMuNDcgMS4xMTMgNS40cy0uMzcxIDMuNzQ4LTEuMTEzIDUuNDU1LTEuNzQ0IDMuMTkyLTMuMDA2IDQuNDUzYTE0LjI4IDE0LjI4IDAgMCAxLTQuNDUzIDMuMDA2Yy0xLjY3Ljc0Mi0zLjQ3IDEuMTEzLTUuNCAxLjExM3MtMy43NDgtLjM3MS01LjQ1NS0xLjExM2ExNC4yOCAxNC4yOCAwIDAgMS00LjQ1My0zLjAwNiAxNC4yOCAxNC4yOCAwIDAgMS0zLjAwNi00LjQ1M0MtLjEyOSAxNy4yMi0uNSAxNS40MDItLjUgMTMuNDcyem0xNi44MTEgNC4yMzFhNi42NSA2LjY1IDAgMCAxIDMuMjg0LjgzNWMxLjAwMi41MiAxLjgxOCAxLjI0MyAyLjQ0OSAyLjE3MWExMC4xNCAxMC4xNCAwIDAgMCAxLjk0OC0zLjI4NGMuNDgyLTEuMjI1LjcyNC0yLjU0Mi43MjQtMy45NTIgMC0xLjU1OS0uMjk3LTMuMDA2LS44OTEtNC4zNDItLjU5NC0xLjM3My0xLjM5Mi0yLjU2MS0yLjM5NC0zLjU2M3MtMi4xOS0xLjgtMy41NjMtMi4zOTRjLTEuMzM2LS41OTQtMi43ODMtLjg5MS00LjM0Mi0uODkxcy0zLjAyNC4yOTctNC4zOTguODkxYy0xLjMzNi41OTQtMi41MjQgMS4zOTItMy41NjMgMi4zOTRBMTEuMzUgMTEuMzUgMCAwIDAgMy4xNzQgOS4xM2MtLjU5NCAxLjMzNi0uODkxIDIuNzgzLS44OTEgNC4zNDIgMCAxLjQxLjIyMyAyLjcyOC42NjggMy45NTIuNDgyIDEuMjI1IDEuMTUgMi4zMTkgMi4wMDQgMy4yODQuNjMxLS45MjggMS40NDctMS42NTEgMi40NDktMi4xNzFhNi42NSA2LjY1IDAgMCAxIDMuMjg0LS44MzV6bTIuNzgzLTcuMDE0YTUuNjggNS42OCAwIDAgMS0uNDQ1IDIuMjI3IDUuODcgNS44NyAwIDAgMS0xLjIyNSAxLjc4MWMtLjQ4Mi40ODItMS4wNTguODcyLTEuNzI2IDEuMTY5cy0xLjM5Mi40NDUtMi4xNzEuNDQ1YTUuNjggNS42OCAwIDAgMS0yLjIyNy0uNDQ1IDYuNDQgNi40NCAwIDAgMS0xLjc4MS0xLjE2OSA2LjQ0IDYuNDQgMCAwIDEtMS4xNjktMS43ODEgNS42OCA1LjY4IDAgMCAxLS40NDUtMi4yMjdjMC0uNzc5LjE0OC0xLjUwMy40NDUtMi4xNzFBNi40NCA2LjQ0IDAgMCAxIDkuNTIgNi43MzdhNS44NyA1Ljg3IDAgMCAxIDEuNzgxLTEuMjI1IDUuNjggNS42OCAwIDAgMSAyLjIyNy0uNDQ1Yy43NzkgMCAxLjUwMy4xNDggMi4xNzEuNDQ1czEuMjQzLjcwNSAxLjcyNiAxLjIyNWE1Ljg3IDUuODcgMCAwIDEgMS4yMjUgMS43ODFjLjI5Ny42NjguNDQ1IDEuMzkyLjQ0NSAyLjE3MXptLTIuNzgzIDBjMC0uNzc5LS4yNzgtMS40MjktLjgzNS0xLjk0OC0uNTU3LS41NTctMS4yMDYtLjgzNS0xLjk0OC0uODM1YTIuNzMgMi43MyAwIDAgMC0yLjAwNC44MzVjLS41NTcuNTItLjgzNSAxLjE2OS0uODM1IDEuOTQ4YTIuNzMgMi43MyAwIDAgMCAuODM1IDIuMDA0Yy41NTcuNTIgMS4yMjUuNzc5IDIuMDA0Ljc3OS43NDIgMCAxLjM5Mi0uMjYgMS45NDgtLjc3OWEyLjczIDIuNzMgMCAwIDAgLjgzNS0yLjAwNHpNNy4wNzEgMjIuNjU3Yy44OTEuNjMxIDEuODc0IDEuMTMyIDIuOTUgMS41MDMgMS4xMTMuMzcxIDIuMjgyLjU1NyAzLjUwNy41NTcgMS4xODggMCAyLjMxOS0uMTg2IDMuMzk2LS41NTcgMS4xMTMtLjM3MSAyLjExNS0uODcyIDMuMDA2LTEuNTAzLS4zNzEtLjY2OC0uODkxLTEuMTg4LTEuNTU5LTEuNTU5LS42MzEtLjQwOC0xLjMxNy0uNjEyLTIuMDYtLjYxMmgtNS42MjJjLS43NDIgMC0xLjQ0Ny4yMDQtMi4xMTUuNjEyLS42MzEuMzcxLTEuMTMyLjg5MS0xLjUwMyAxLjU1OXoiLz4mI3hhOzwvc3ZnPg==;fontSize=12;fontColor=#1D2D3E;" vertex="1" parent="1">
          <mxGeometry x="44.779999999999994" y="-540" width="28" height="28" as="geometry" />
        </mxCell>
        <mxCell id="KJaW32-MUoOeKXqnR98N-85" value="&lt;h3 style=&quot;line-height: 0%;&quot;&gt;InvoiceCon&amp;nbsp;&lt;/h3&gt;&lt;div&gt;&lt;br&gt;&lt;/div&gt;" style="rounded=1;whiteSpace=wrap;html=1;strokeColor=#0070F2;fillColor=#EBF8FF;arcSize=24;absoluteArcSize=1;imageWidth=64;imageHeight=64;strokeWidth=1.5;container=0;align=left;verticalAlign=top;" vertex="1" parent="1">
          <mxGeometry x="139" y="-690" width="1000" height="290" as="geometry" />
        </mxCell>
        <mxCell id="KJaW32-MUoOeKXqnR98N-92" value="" style="strokeColor=#0070F2;shadow=0;strokeWidth=1.5;rounded=1;absoluteArcSize=1;arcSize=20;align=left;fontSize=16;fontStyle=1;spacingLeft=15;spacing=0;container=1;collapsible=0;fontColor=#1D2D3E;labelBackgroundColor=none;" vertex="1" parent="1">
          <mxGeometry x="160" y="-634" width="950" height="184" as="geometry" />
        </mxCell>
        <mxCell id="KJaW32-MUoOeKXqnR98N-134" style="edgeStyle=orthogonalEdgeStyle;rounded=0;orthogonalLoop=1;jettySize=auto;html=1;entryX=0;entryY=0.5;entryDx=0;entryDy=0;strokeColor=#0070F2;strokeWidth=2;" edge="1" parent="KJaW32-MUoOeKXqnR98N-92" source="KJaW32-MUoOeKXqnR98N-106" target="KJaW32-MUoOeKXqnR98N-107">
          <mxGeometry relative="1" as="geometry" />
        </mxCell>
        <mxCell id="KJaW32-MUoOeKXqnR98N-106" value="Interpreta" style="shape=image;verticalLabelPosition=bottom;verticalAlign=top;imageAspect=0;aspect=fixed;image=data:image/svg+xml,PHN2ZyB4bWxucz0iaHR0cDovL3d3dy53My5vcmcvMjAwMC9zdmciIHZpZXdCb3g9Ii0wLjAwMjIyMjMwMDczOTk1ODg4MjMgLTAuMDAyMjY0MjQ4NDQwMDQyMTM4IDQ4LjAwNDQ4NjA4Mzk4NDM3NSA0OC4wMDM3MTU1MTUxMzY3MiIgd2lkdGg9IjQ4LjAwNDQ4NjA4Mzk4NDM3NSIgaGVpZ2h0PSI0OC4wMDM3MTU1MTUxMzY3MiI+PGRlZnM+PHN0eWxlPi5jbHMtMXtmaWxsOiM1OTU5NTk7fTwvc3R5bGU+PC9kZWZzPjx0aXRsZT5hY3Rpb24tc2V0dGluZ3M8L3RpdGxlPjxnIGlkPSJMYXllcl8yIiBkYXRhLW5hbWU9IkxheWVyIDIiPjxnIGlkPSJhY3Rpb24tc2V0dGluZ3MiPjxwYXRoIGNsYXNzPSJjbHMtMSIgZD0iTTQ1LDE4YTIuODg4LDIuODg4LDAsMCwxLDMsM3Y2YTIuOTY0LDIuOTY0LDAsMCwxLS44NDMsMi4xMDlBMi44MzgsMi44MzgsMCwwLDEsNDUsMzBINDIuMzc1cS0uMjguNzUyLS41NjIsMS40MDZ0LS41NjMsMS4zMTNsMS44NzUsMS44NzVhMy4wNTcsMy4wNTcsMCwwLDEsMCw0LjIxOGwtNC4zMTIsNC4zMTNhMi44MDcsMi44MDcsMCwwLDEtMi4wNjMuODQ0LDIuOTE4LDIuOTE4LDAsMCwxLTIuMTU2LS44NDRsLTEuODc1LTEuOTY5YTEyLjgzOCwxMi44MzgsMCwwLDEtMS4zMTIuNjU2cS0uNjU3LjI4Mi0xLjQwNy41NjNWNDVhMi45NjYsMi45NjYsMCwwLDEtLjg0MywyLjEwOUEyLjg0MiwyLjg0MiwwLDAsMSwyNyw0OEgyMWEyLjgzNiwyLjgzNiwwLDAsMS0yLjE1Ni0uODkxQTIuOTYyLDIuOTYyLDAsMCwxLDE4LDQ1VjQyLjM3NXEtLjc1MS0uMjgtMS40MDYtLjU2M2ExMi42NSwxMi42NSwwLDAsMS0xLjMxMy0uNjU2bC0xLjg3NSwxLjk2OWEyLjkxNywyLjkxNywwLDAsMS0yLjE1Ni44NDQsMi44LDIuOCwwLDAsMS0yLjA2Mi0uODQ0TDQuODc1LDM4LjgxMmEzLjA1NywzLjA1NywwLDAsMSwwLTQuMjE4TDYuNzUsMzIuNzE5cS0uMjgyLS42NTYtLjYwOS0xLjMxM0E2LjcyMSw2LjcyMSwwLDAsMSw1LjYyNSwzMEgzYTIuODMzLDIuODMzLDAsMCwxLTIuMTU2LS44OTFBMi45NjEsMi45NjEsMCwwLDEsMCwyN1YyMWEyLjg4OSwyLjg4OSwwLDAsMSwzLTNINS42MjVhNi43ODMsNi43ODMsMCwwLDEsLjUxNi0xLjQwNnEuMzI3LS42NTYuNjA5LTEuMzEzTDQuODc1LDEzLjQwNmEzLjEyMywzLjEyMywwLDAsMS0uODQ0LTIuMTU2LDIuOCwyLjgsMCwwLDEsLjg0NC0yLjA2Mkw5LjE4OCw0Ljg3NWEyLjgsMi44LDAsMCwxLDIuMDYyLS44NDQsMi45MTcsMi45MTcsMCwwLDEsMi4xNTYuODQ0TDE1LjI4MSw2Ljc1cS42NTUtLjI4MiwxLjMxMy0uNjA5QTYuODM1LDYuODM1LDAsMCwxLDE4LDUuNjI1VjNhMi44ODksMi44ODksMCwwLDEsMy0zaDZhMi44ODgsMi44ODgsMCwwLDEsMywzVjUuNjI1YTYuOTA5LDYuOTA5LDAsMCwxLDEuNDA3LjUxNmMuNDM2LjIxOS44NzUuNDIxLDEuMzEyLjYwOWwxLjg3NS0xLjg3NWEyLjkxOCwyLjkxOCwwLDAsMSwyLjE1Ni0uODQ0LDIuODA3LDIuODA3LDAsMCwxLDIuMDYzLjg0NGw0LjMxMiw0LjMxM2EyLjgsMi44LDAsMCwxLC44NDQsMi4wNjIsMy4xMjMsMy4xMjMsMCwwLDEtLjg0NCwyLjE1Nkw0MS4yNSwxNS4yODFxLjI4Mi42NTcuNTYzLDEuMzEzVDQyLjM3NSwxOFptMCwzSDQwLjEyNWwtLjY1Ni0yLjA2MmMtLjEyNi0uMzc2LS4yNjYtLjc2NS0uNDIyLTEuMTcycy0uMzI4LS44LS41MTUtMS4xNzJMMzcuNSwxNC43MTlsMS41OTQtMS41OTQsMS44NzUtMS44NzVMMzYuNzUsNy4wMzEsMzQuODc1LDguOTA2bC0xLjU5MywxLjUtMS45NjktLjkzN2MtLjM3NS0uMTg4LS43NS0uMzU5LTEuMTI1LS41MTZzLS43NS0uMy0xLjEyNS0uNDIyTDI3LDcuNzgxVjNIMjFWNy43ODFsLTIuMDYyLjc1cS0uNTY0LjE4OS0xLjE3Mi40MjJjLS40MDguMTU3LS44LjMyOC0xLjE3Mi41MTZsLTEuODc1LjkzNy0xLjU5NC0xLjVMMTEuMjUsNy4wMzEsNy4wMzEsMTEuMjVsMS44NzUsMS44NzUsMS41LDEuNTk0LS45MzcsMS44NzVjLS4xODguMzc1LS4zNjEuNzY2LS41MTYsMS4xNzJzLS4zLjgtLjQyMiwxLjE3Mkw3Ljc4MSwyMUgzdjZINy43ODFsLjc1LDIuMDYyYy4xMjUuMzc2LjI2Ni43NS40MjIsMS4xMjZzLjMyOC43NS41MTYsMS4xMjRsLjkzNywxLjk2OS0xLjUsMS41OTRMNy4wMzEsMzYuNzVsNC4yMTksNC4yMTksMS44NzUtMS44NzVMMTQuNzE5LDM3LjVsMS44NzUsMS4wMzFhMTIuNTczLDEyLjU3MywwLDAsMCwxLjE3Mi41MTZxLjYwOS4yMzQsMS4xNzIuNDIyTDIxLDQwLjEyNVY0NWg2VjQwLjEyNWwyLjA2My0uNjU2cS41NjMtLjE4NywxLjEyNS0uNDIyYy4zNzUtLjE1NS43NS0uMzI4LDEuMTI1LS41MTZMMzMuMjgyLDM3LjVsMS41OTMsMS41OTQsMS44NzUsMS44NzUsNC4yMTktNC4yMTktMS44NzUtMS44NzVMMzcuNSwzMy4yODFsMS4wMzItMS45NjljLjE4Ny0uMzc0LjM1OS0uNzUuNTE1LTEuMTI0cy4zLS43NS40MjItMS4xMjZMNDAuMTI1LDI3SDQ1Wk0yNCwxNWE4Ljk2Myw4Ljk2MywwLDAsMSw5LDksOC45NjMsOC45NjMsMCwwLDEtOSw5LDguOTYzLDguOTYzLDAsMCwxLTktOSw4Ljk2Myw4Ljk2MywwLDAsMSw5LTlabTAsMTVhNi4wODMsNi4wODMsMCwwLDAsNi02LDYuMDgzLDYuMDgzLDAsMCwwLTYtNiw2LjA4Myw2LjA4MywwLDAsMC02LDYsNi4wODMsNi4wODMsMCwwLDAsNiw2WiIvPjwvZz48L2c+PC9zdmc+;fontColor=#000000;fontStyle=1" vertex="1" parent="KJaW32-MUoOeKXqnR98N-92">
          <mxGeometry x="10.003870292887026" y="29.105098603368702" width="48" height="48" as="geometry" />
        </mxCell>
        <mxCell id="KJaW32-MUoOeKXqnR98N-135" style="edgeStyle=orthogonalEdgeStyle;rounded=0;orthogonalLoop=1;jettySize=auto;html=1;strokeColor=#0070F2;strokeWidth=2;align=center;verticalAlign=middle;fontFamily=Helvetica;fontSize=11;fontColor=default;labelBackgroundColor=default;endArrow=classic;" edge="1" parent="KJaW32-MUoOeKXqnR98N-92" source="KJaW32-MUoOeKXqnR98N-107" target="KJaW32-MUoOeKXqnR98N-108">
          <mxGeometry relative="1" as="geometry" />
        </mxCell>
        <mxCell id="KJaW32-MUoOeKXqnR98N-165" style="edgeStyle=orthogonalEdgeStyle;rounded=0;orthogonalLoop=1;jettySize=auto;html=1;entryX=0.25;entryY=1;entryDx=0;entryDy=0;strokeColor=#FF0000;strokeWidth=2;endArrow=classic;endFill=1;shadow=0;flowAnimation=0;jumpStyle=none;" edge="1" parent="KJaW32-MUoOeKXqnR98N-92" source="KJaW32-MUoOeKXqnR98N-107" target="KJaW32-MUoOeKXqnR98N-108">
          <mxGeometry relative="1" as="geometry">
            <Array as="points">
              <mxPoint x="230" y="135.94029850746267" />
              <mxPoint x="342" y="135.94029850746267" />
            </Array>
          </mxGeometry>
        </mxCell>
        <mxCell id="KJaW32-MUoOeKXqnR98N-107" value="Determina" style="shape=image;verticalLabelPosition=bottom;verticalAlign=top;imageAspect=0;aspect=fixed;image=data:image/svg+xml,PHN2ZyB4bWxucz0iaHR0cDovL3d3dy53My5vcmcvMjAwMC9zdmciIGlkPSJwcm9jZXNzLWZsZXhpYmlsaXR5LXNlcnZpY2UiIHZpZXdCb3g9IjMuOTk5NDk1MDI5NDQ5NDYzIDMuOTk5OTk5NzYxNTgxNDIxIDQ4LjAwMDUwMzU0MDAzOTA2IDQ4LjAwMzIwNDM0NTcwMzEyNSIgd2lkdGg9IjQ4LjAwMDUwMzU0MDAzOTA2IiBoZWlnaHQ9IjQ4LjAwMzIwNDM0NTcwMzEyNSI+PGRlZnM+PHN0eWxlPi5jbHMtMXtmaWxsOiMwNTNiNzA7fS5jbHMtMntmaWxsOiMwYTZlZDE7fTwvc3R5bGU+PC9kZWZzPjxwYXRoIGNsYXNzPSJjbHMtMSIgZD0iTTM0Ljk0OCw0MC42MjJsLTYuOS04LjhhMS42NzIsMS42NzIsMCwxLDAtMi42LDIuMXM1LjEsNi41LDUuMiw2LjdhMS4zOTEsMS4zOTEsMCwwLDEsMCwxLjljLS4yLjItNS4yLDYuNy01LjIsNi43YTEuNjE0LDEuNjE0LDAsMCwwLC4xLDIuNCwxLjY2NywxLjY2NywwLDAsMCwyLjQtLjNsNi45LTguN0ExLjY1OSwxLjY1OSwwLDAsMCwzNC45NDgsNDAuNjIyWiIvPjxwYXRoIGNsYXNzPSJjbHMtMSIgZD0iTTQyLjg0OCw0MC42MjJsLTYuOS04LjhhMS42NzIsMS42NzIsMCwxLDAtMi42LDIuMXM1LjEsNi41LDUuMiw2LjdhMS4zOTEsMS4zOTEsMCwwLDEsMCwxLjljLS4yLjItNS4yLDYuNy01LjIsNi43YTEuNTQ2LDEuNTQ2LDAsMCwwLC4yLDIuNCwxLjY2MSwxLjY2MSwwLDAsMCwyLjQtLjNsNi45LTguN0ExLjUxOSwxLjUxOSwwLDAsMCw0Mi44NDgsNDAuNjIyWiIvPjxwYXRoIGNsYXNzPSJjbHMtMSIgZD0iTTQ0LjA0OCwzMS44MjJhMS42NzIsMS42NzIsMCwxLDAtMi42LDIuMXM1LjEsNi41LDUuMiw2LjdhMS4zOTEsMS4zOTEsMCwwLDEsMCwxLjljLS4yLjItNS4yLDYuNy01LjIsNi43YTEuNTc4LDEuNTc4LDAsMCwwLC4xLDIuMywxLjczOSwxLjczOSwwLDAsMCwyLjQtLjJsNi45LTguN2ExLjk4OCwxLjk4OCwwLDAsMCwwLTIuMVoiLz48cGF0aCBjbGFzcz0iY2xzLTIiIGQ9Ik00OSwyMkg0Ni41YTE2Ljg1NSwxNi44NTUsMCwwLDAtMS4yLTIuOGwxLjgtMS44YTIuODc4LDIuODc4LDAsMCwwLC45LTIuMSwyLjcyMywyLjcyMywwLDAsMC0uOS0yLjFMNDIuOSw5YTMuMDg1LDMuMDg1LDAsMCwwLTQuMiwwbC0xLjgsMS44QTE0Ljc2MywxNC43NjMsMCwwLDAsMzQsOS42VjdhMy4wMDksMy4wMDksMCwwLDAtMy0zSDI1YTMuMDA5LDMuMDA5LDAsMCwwLTMsM1Y5LjRhMjIuMzkyLDIyLjM5MiwwLDAsMC0yLjksMS4yTDE3LjQsOC45YTMuMDg1LDMuMDg1LDAsMCwwLTQuMiwwTDksMTMuMWEyLjgzNiwyLjgzNiwwLDAsMC0xLDIuMiwyLjg3OCwyLjg3OCwwLDAsMCwuOSwyLjFsMS43LDEuN0ExNC43NjMsMTQuNzYzLDAsMCwwLDkuNCwyMkg3YTMuMDA5LDMuMDA5LDAsMCwwLTMsM3Y2YTIuOTQ2LDIuOTQ2LDAsMCwwLDMsM0g5LjRhMTcuOCwxNy44LDAsMCwwLDEuMiwyLjlMOC45LDM4LjZBMy4xLDMuMSwwLDAsMCw4LDQwLjhhMi44NzgsMi44NzgsMCwwLDAsLjksMi4xbDQuMiw0LjJhMi43ODIsMi43ODIsMCwwLDAsMi4xLjgsMy4yMjcsMy4yMjcsMCwwLDAsMi4xLS44TDE5LDQ1LjRjLjQuMi45LjQsMS40LjZsLjQuMiwxLjctMi41LS41LS4zYTYuODk0LDYuODk0LDAsMCwxLTEuNS0uN2wtMS45LTFMMTUuMyw0NSwxMSw0MC43bDMuMy0zLjMtMS0xLjlhMTIuMjM0LDEyLjIzNCwwLDAsMS0xLTIuNEwxMS42LDMxSDdWMjVoNC42bC43LTIuMWEyNi4wNDMsMjYuMDQzLDAsMCwxLDEtMi41bDEtMS45TDExLDE1LjMsMTUuMywxMWwzLjMsMy4zLDEuOS0xYTEyLjIzNCwxMi4yMzQsMCwwLDEsMi40LTFsMi4xLS43VjdoNnY0LjZsMi4xLjdhMjQuNDI1LDI0LjQyNSwwLDAsMSwyLjQsMWwxLjksMUw0MC43LDExLDQ1LDE1LjNsLTMuMywzLjMsMSwxLjlhMjQuNDI1LDI0LjQyNSwwLDAsMSwxLDIuNGwuNywyLjFINDl2Mi4yaDNWMjVBMy4wNzYsMy4wNzYsMCwwLDAsNDksMjJaIi8+PHBhdGggY2xhc3M9ImNscy0yIiBkPSJNMjgsMTkuMmE4LjkyLDguOTIsMCwwLDAtOC45LDguOSw4LjE4Nyw4LjE4NywwLDAsMCwuOSwzLjhsMi40LTIuMWE0LjY3MSw0LjY3MSwwLDAsMS0uMy0xLjdBNS45MTEsNS45MTEsMCwwLDEsMjgsMjIuMmE1Ljg0OCw1Ljg0OCwwLDAsMSw1LjgsNS4yaDNBOC44NCw4Ljg0LDAsMCwwLDI4LDE5LjJaIi8+PC9zdmc+;fontColor=#0070F2;fontStyle=1" vertex="1" parent="KJaW32-MUoOeKXqnR98N-92">
          <mxGeometry x="130.00322175732217" y="29.55823293172691" width="48" height="48" as="geometry" />
        </mxCell>
        <mxCell id="KJaW32-MUoOeKXqnR98N-137" style="edgeStyle=orthogonalEdgeStyle;rounded=0;orthogonalLoop=1;jettySize=auto;html=1;strokeColor=#0070F2;strokeWidth=2;align=center;verticalAlign=middle;fontFamily=Helvetica;fontSize=11;fontColor=default;labelBackgroundColor=default;endArrow=classic;curved=1;" edge="1" parent="KJaW32-MUoOeKXqnR98N-92" source="KJaW32-MUoOeKXqnR98N-108" target="KJaW32-MUoOeKXqnR98N-109">
          <mxGeometry relative="1" as="geometry" />
        </mxCell>
        <mxCell id="KJaW32-MUoOeKXqnR98N-252" style="edgeStyle=orthogonalEdgeStyle;rounded=0;orthogonalLoop=1;jettySize=auto;html=1;entryX=0;entryY=0.5;entryDx=0;entryDy=0;startArrow=classic;startFill=1;curved=1;strokeColor=#0070F2;strokeWidth=2;align=center;verticalAlign=middle;fontFamily=Helvetica;fontSize=11;fontColor=default;labelBackgroundColor=default;endArrow=classic;" edge="1" parent="KJaW32-MUoOeKXqnR98N-92" source="KJaW32-MUoOeKXqnR98N-108" target="KJaW32-MUoOeKXqnR98N-251">
          <mxGeometry relative="1" as="geometry">
            <Array as="points">
              <mxPoint x="280" y="154" />
            </Array>
          </mxGeometry>
        </mxCell>
        <mxCell id="KJaW32-MUoOeKXqnR98N-108" value="Vincula" style="shape=image;verticalLabelPosition=bottom;verticalAlign=top;imageAspect=0;aspect=fixed;image=data:image/svg+xml,PHN2ZyB4bWxucz0iaHR0cDovL3d3dy53My5vcmcvMjAwMC9zdmciIGlkPSJkb2N1bWVudC1jbGFzc2lmaWNhdGlvbiIgdmlld0JveD0iMy45OTc3Nzc3MDA0MjQxOTQzIDMuOTk5NzU0MTkwNDQ0OTQ2MyA0OC4wMDc2NzEzNTYyMDExNyA0OC4wMDA3MjA5Nzc3ODMyIiB3aWR0aD0iNDguMDA3NjcxMzU2MjAxMTciIGhlaWdodD0iNDguMDAwNzIwOTc3NzgzMiI+PGRlZnM+PHN0eWxlPi5jbHMtMXtmaWxsOiMwNTNiNzA7fS5jbHMtMntmaWxsOiMwYTZlZDE7fTwvc3R5bGU+PC9kZWZzPjx0aXRsZT5kb2N1bWVudC1jbGFzc2lmaWNhdGlvbjwvdGl0bGU+PHBhdGggY2xhc3M9ImNscy0xIiBkPSJNNTEuNjI1LDMyLjVhMi44OTQsMi44OTQsMCwwLDAtLjkzNy0xLjAzMUEyLjg0OSwyLjg0OSwwLDAsMCw0OSwzMUgzOS4xNTZsLTIuNjI1LTNIMjVhMi43OTIsMi43OTIsMCwwLDAtMS43MzQuNDY5LDMuMDEsMy4wMSwwLDAsMC0uODkxLDEuMDMxQTIuOTUyLDIuOTUyLDAsMCwwLDIyLDMxVjQ5YTIuNzgxLDIuNzgxLDAsMCwwLC40NjksMS43MzRBMy4xMzksMy4xMzksMCwwLDAsMjUsNTJINDlhMi45NzUsMi45NzUsMCwwLDAsMS41LS4zNzUsMy4wMSwzLjAxLDAsMCwwLDEuMDMxLS44OTFBMi44LDIuOCwwLDAsMCw1Miw0OVYzNEEyLjk4MiwyLjk4MiwwLDAsMCw1MS42MjUsMzIuNVpNNDksNDlsLTI0LC4wMjNWNDlsLS4wMjUtMThoMTAuMkwzNi45LDMyLjk3NiwzNy44LDM0aDEuMzYxTDQ5LDM0LjAwOVoiLz48cGF0aCBjbGFzcz0iY2xzLTIiIGQ9Ik0yNSw0SDEwTDQsMTBWMzFhMi44ODksMi44ODksMCwwLDAsMywzSDE5VjMxSDdWMTNIOS45MDZhMy4wODIsMy4wODIsMCwwLDAsMi4yLS44NDRBMi44NDQsMi44NDQsMCwwLDAsMTMsMTBWN0gyNVYyNWgzVjdhMi44NDQsMi44NDQsMCwwLDAtLjg5MS0yLjE1NkEyLjk2MiwyLjk2MiwwLDAsMCwyNSw0WiIvPjxyZWN0IGNsYXNzPSJjbHMtMiIgeD0iMTAiIHk9IjE2IiB3aWR0aD0iMTIiIGhlaWdodD0iMyIvPjxwb2x5Z29uIGNsYXNzPSJjbHMtMiIgcG9pbnRzPSIxMCAyNSAxOSAyNSAyMiAyNSAyMiAyMiAxMCAyMiAxMCAyNSIvPjxwYXRoIGNsYXNzPSJjbHMtMiIgZD0iTTQ4LjY0OCwxOS4zNTJhMS4xLDEuMSwwLDAsMC0xLjYxNywwbC0yLjYsMy4wMjMuMDctMS4xMjVhOC43NjcsOC43NjcsMCwwLDAtLjctMy40OCw4Ljk2OCw4Ljk2OCwwLDAsMC0xLjkzNC0yLjg4Myw5LjE1OCw5LjE1OCwwLDAsMC0yLjg0Ny0xLjkzNCw4LjczLDguNzMsMCwwLDAtMy41MTYtLjdIMzFWMTQuNWg0LjVhNi43MjMsNi43MjMsMCwwLDEsNi43NSw2Ljc1bC0uMDcsMS4xMjUtMi41MzItMy4wMjNhMS4wMzcsMS4wMzcsMCwwLDAtMS42MTcsMCwuOTY4Ljk2OCwwLDAsMCwwLDEuNTQ2bDMuNzI3LDQuMjE5YTIuMzgyLDIuMzgyLDAsMCwwLDMuMjM0LDBMNDguNjQ4LDIwLjlhMS4wMjUsMS4wMjUsMCwwLDAsMC0xLjU0NloiLz48L3N2Zz4=;fontStyle=1;fontColor=#0070F2;" vertex="1" parent="KJaW32-MUoOeKXqnR98N-92">
          <mxGeometry x="240.0031616108787" y="29.105098603368695" width="48" height="48" as="geometry" />
        </mxCell>
        <mxCell id="KJaW32-MUoOeKXqnR98N-239" style="edgeStyle=orthogonalEdgeStyle;rounded=0;orthogonalLoop=1;jettySize=auto;html=1;strokeColor=#0070F2;strokeWidth=2;align=center;verticalAlign=middle;fontFamily=Helvetica;fontSize=11;fontColor=default;labelBackgroundColor=default;endArrow=classic;" edge="1" parent="KJaW32-MUoOeKXqnR98N-92" source="KJaW32-MUoOeKXqnR98N-109" target="KJaW32-MUoOeKXqnR98N-236">
          <mxGeometry relative="1" as="geometry" />
        </mxCell>
        <mxCell id="KJaW32-MUoOeKXqnR98N-109" value="Comparação" style="shape=image;verticalLabelPosition=bottom;verticalAlign=top;imageAspect=0;aspect=fixed;image=data:image/svg+xml,PHN2ZyB4bWxucz0iaHR0cDovL3d3dy53My5vcmcvMjAwMC9zdmciIGlkPSJzYXAtc21hcnQtYnVzaW5lc3Mtc2VydmljZSIgdmlld0JveD0iMy45OTk3MDkzNjc3NTIwNzUgNS45NTE3MTAyMjQxNTE2MTEgNDguMDAwNTc5ODMzOTg0Mzc1IDQ1LjA2OTk3Mjk5MTk0MzM2IiB3aWR0aD0iNDguMDAwNTc5ODMzOTg0Mzc1IiBoZWlnaHQ9IjQ1LjA2OTk3Mjk5MTk0MzM2Ij48ZGVmcz48c3R5bGU+LmNscy0xe2ZpbGw6IzBhNmVkMTt9LmNscy0ye2ZpbGw6IzA1M2I3MDt9PC9zdHlsZT48L2RlZnM+PHRpdGxlPnNhcC1zbWFydC1idXNpbmVzcy1zZXJ2aWNlPC90aXRsZT48cGF0aCBjbGFzcz0iY2xzLTEiIGQ9Ik00My42MjIsNDAuNzYzYTEwLjU4NywxMC41ODcsMCwwLDAsMi4xNTUtNi4yNzgsMTAuNDUsMTAuNDUsMCwxLDAtNC4yMTcsOC40MzNMNDkuMjQ0LDUwLjZhMS40NywxLjQ3LDAsMCwwLDIuMDYxLDAsMS40MjQsMS40MjQsMCwwLDAsMC0yLjE1NVptLTguMzQsMS4yMThhNy41LDcuNSwwLDEsMSw3LjUtNy41QTcuNTE4LDcuNTE4LDAsMCwxLDM1LjI4Miw0MS45ODFaIi8+PHBhdGggY2xhc3M9ImNscy0yIiBkPSJNNDguNTcxLDUuOTUySDcuNDI5QTMuMzg1LDMuMzg1LDAsMCwwLDQsOS4zODFWNDEuNmEzLjM4NSwzLjM4NSwwLDAsMCwzLjQyOSwzLjQyOUgyMy44di0zSDdWMjkuMDgybDUuNzgtNS43OGEyLjk1NywyLjk1NywwLDAsMCwzLjYwNS0uNDIzLDIuOTI3LDIuOTI3LDAsMCwwLC41NTEtLjgzMWw1LjA3MSwxLjE3OGMwLC4wMTEtLjAwNy4wMjEtLjAwNy4wMzJhMywzLDAsMCwwLDYsMCwyLjk0NSwyLjk0NSwwLDAsMC0uNy0xLjg2M2wzLjE2NC00LjY2NGEzLjAxNiwzLjAxNiwwLDAsMCwyLjQ0Ny0uMTQxbDMuODA2LDZhMTEuNzU4LDExLjc1OCwwLDAsMSwyLjA0OS40MzFMMzQsMTUuNTExYTIuOTU3LDIuOTU3LDAsMCwwLS4zNjMtMy43LDIuOTc5LDIuOTc5LDAsMCwwLTQuMzg2LDQuMDI3TDI2LjEsMjAuNDgxYTIuODg5LDIuODg5LDAsMCwwLTMuNjYyLDEuMzA2bC01LjIxMy0xLjIxMWEyLjk2LDIuOTYsMCwwLDAtLjg0My0xLjkzOSwzLDMsMCwwLDAtNC4yNDMsMCwyLjk1OCwyLjk1OCwwLDAsMC0uNDIzLDMuNjA1TDcsMjYuOTYxVjkuMDI0SDQ5bC0uMDA5LDExLTYuOTUyLDQuNDQ4YTEyLjA3OSwxMi4wNzksMCwwLDEsMS4yMTgsMUw1MiwxOS45NDNWOS4zODFBMy4zODUsMy4zODUsMCwwLDAsNDguNTcxLDUuOTUyWiIvPjwvc3ZnPg==;fontStyle=1;fontColor=#0070F2;" vertex="1" parent="KJaW32-MUoOeKXqnR98N-92">
          <mxGeometry x="369.99685983263595" y="31.61721462440484" width="48" height="45" as="geometry" />
        </mxCell>
        <mxCell id="KJaW32-MUoOeKXqnR98N-139" style="edgeStyle=orthogonalEdgeStyle;rounded=0;orthogonalLoop=1;jettySize=auto;html=1;strokeColor=#0070F2;strokeWidth=2;align=center;verticalAlign=middle;fontFamily=Helvetica;fontSize=11;fontColor=default;labelBackgroundColor=default;endArrow=classic;" edge="1" parent="KJaW32-MUoOeKXqnR98N-92" source="KJaW32-MUoOeKXqnR98N-110" target="KJaW32-MUoOeKXqnR98N-111">
          <mxGeometry relative="1" as="geometry" />
        </mxCell>
        <mxCell id="KJaW32-MUoOeKXqnR98N-110" value="Recebimento" style="shape=image;verticalLabelPosition=bottom;verticalAlign=top;imageAspect=0;aspect=fixed;image=data:image/svg+xml,PHN2ZyB4bWxucz0iaHR0cDovL3d3dy53My5vcmcvMjAwMC9zdmciIHZpZXdCb3g9Ii0wLjAwMTEzOTc0MTM5MDk0MzUyNzIgMC4wMDAzOTY0Nzg5MjExNzUwMDMwNSA0OC4wMDcyNTE3Mzk1MDE5NSA0OC4wOTM0MTA0OTE5NDMzNiIgd2lkdGg9IjQ4LjAwNzI1MTczOTUwMTk1IiBoZWlnaHQ9IjQ4LjA5MzQxMDQ5MTk0MzM2Ij48ZGVmcz48c3R5bGU+LmNscy0xe2ZpbGw6IzU5NTk1OTt9PC9zdHlsZT48L2RlZnM+PHRpdGxlPmJsb2NrPC90aXRsZT48ZyBpZD0iTGF5ZXJfMiIgZGF0YS1uYW1lPSJMYXllciAyIj48ZyBpZD0iYmxvY2siPjxwYXRoIGNsYXNzPSJjbHMtMSIgZD0iTTIzLjA2Mi4yMzRhMiwyLDAsMCwxLDEuODc2LDBMNDYuOTY5LDcuNjRBMS4zMSwxLjMxLDAsMCwxLDQ4LDkuMDQ3djMwYTEuNCwxLjQsMCwwLDEtMS4wMzEsMS40MDZMMjQuOTM4LDQ3Ljg1OWExLjk5MSwxLjk5MSwwLDAsMS0xLjg3NiwwTDEuMDMxLDQwLjQ1M0ExLjQsMS40LDAsMCwxLDAsMzkuMDQ3di0zMEExLjQsMS40LDAsMCwxLDEuMDMxLDcuNjRaTTIyLjUsNDQuNTc4VjE3LjM5TDMsMTAuODI4VjM3LjkyMlpNNi43NSw4Ljg1OSwyNCwxNC43NjUsNDEuMjUsOC44NTksMjQsMi45NTNaTTQ1LDM3LjkyMlYxMC44MjhMMjUuNSwxNy4zOVY0NC41NzhaIi8+PC9nPjwvZz48L3N2Zz4=;fontStyle=1" vertex="1" parent="KJaW32-MUoOeKXqnR98N-92">
          <mxGeometry x="749.9951464435146" y="29.11569823678059" width="48" height="48" as="geometry" />
        </mxCell>
        <mxCell id="KJaW32-MUoOeKXqnR98N-111" value="Escrituração" style="shape=image;verticalLabelPosition=bottom;verticalAlign=top;imageAspect=0;aspect=fixed;image=data:image/svg+xml,PHN2ZyB4bWxucz0iaHR0cDovL3d3dy53My5vcmcvMjAwMC9zdmciIHZpZXdCb3g9Ii0wLjAwMTQ4MDYzNDkwNjMyOTIxNDYgLTAuMDA5MzAyNjEwNTMxNDQ5MzE4IDQ4LjAwNzE4MzA3NDk1MTE3IDQ4LjAwOTg1NzE3NzczNDM3NSIgd2lkdGg9IjQ4LjAwNzE4MzA3NDk1MTE3IiBoZWlnaHQ9IjQ4LjAwOTg1NzE3NzczNDM3NSI+PGRlZnM+PHN0eWxlPi5jbHMtMXtmaWxsOiM1OTU5NTk7fTwvc3R5bGU+PC9kZWZzPjx0aXRsZT5lLWxlYXJuaW5nPC90aXRsZT48ZyBpZD0iTGF5ZXJfMiIgZGF0YS1uYW1lPSJMYXllciAyIj48ZyBpZD0iZS1sZWFybmluZyI+PHBhdGggY2xhc3M9ImNscy0xIiBkPSJNNDUsMzNoM3Y2YTIuOTYxLDIuOTYxLDAsMCwxLS44NDQsMi4xMDlBMi44MzQsMi44MzQsMCwwLDEsNDUsNDJIM2EyLjg3NywyLjg3NywwLDAsMS0yLjEwOS0uODkxQTIuODc3LDIuODc3LDAsMCwxLDAsMzlWOUEyLjgzNCwyLjgzNCwwLDAsMSwuODkxLDYuODQ0LDIuOTYxLDIuOTYxLDAsMCwxLDMsNmg5VjlIM1YzOUg0NVpNMzQuNSw0NUExLjMyNiwxLjMyNiwwLDAsMSwzNiw0Ni41YTEuNTExLDEuNTExLDAsMCwxLS40MjIsMS4wMzFBMS4zODQsMS4zODQsMCwwLDEsMzQuNSw0OGgtMjFBMS42MTQsMS42MTQsMCwwLDEsMTIsNDYuNWExLjM4LDEuMzgsMCwwLDEsLjQ2OS0xLjA3OEExLjUwOSwxLjUwOSwwLDAsMSwxMy41LDQ1Wk00NSwwYTIuOCwyLjgsMCwwLDEsMS43MzQuNDY5QTMuMDIxLDMuMDIxLDAsMCwxLDQ3LjYyNSwxLjUsMi45ODIsMi45ODIsMCwwLDEsNDgsM1YyN2EyLjc4NywyLjc4NywwLDAsMS0uNDY5LDEuNzM0LDMuMDEsMy4wMSwwLDAsMS0xLjAzMS44OTFBMi45NzIsMi45NzIsMCwwLDEsNDUsMzBIMzlhOC45NjYsOC45NjYsMCwwLDAtMS45NjkuMjM0LDExLjY1MiwxMS42NTIsMCwwLDAtMi4wMTUuNjU3cS0uOTg1LjQyMi0xLjc4Mi44NDNhOC4zMTksOC4zMTksMCwwLDAtMS4yNjUuOCwxLjQsMS40LDAsMCwwLS4yMzUuMjgxQS41LjUsMCwwLDEsMzEuNSwzM3YtLjA5NEwzMS40MDYsMzNhLjcyMi43MjIsMCwwLDEtLjE0LS4xODguNTMzLjUzMywwLDAsMC0uMjM1LS4xODcsMjAuNjMxLDIwLjYzMSwwLDAsMC0zLjA5My0xLjczNEE4LjE3Myw4LjE3MywwLDAsMCwyNCwzMEgxOGEyLjk2OSwyLjk2OSwwLDAsMS0xLjUtLjM3NSwzLDMsMCwwLDEtMS4wMzEtLjg5MUEyLjc4MSwyLjc4MSwwLDAsMSwxNSwyN1YzYTIuOTcyLDIuOTcyLDAsMCwxLC4zNzUtMS41QTMuMjMzLDMuMjMzLDAsMCwxLDE2LjIxOS40NjksMi43NjUsMi43NjUsMCwwLDEsMTgsMGg5YTMuODY4LDMuODY4LDAsMCwxLDMsMS4xMjUsMjAuODc4LDIwLjg3OCwwLDAsMSwxLjUsMS43ODFBMjAuNjksMjAuNjksMCwwLDEsMzMsMS4xMjUsMy43NDMsMy43NDMsMCwwLDEsMzUuOTA2LDBINDVaTTMwLDZhMy44MiwzLjgyLDAsMCwwLS45MzgtMS41LDUuOTA5LDUuOTA5LDAsMCwwLTEuNzgxLS45ODRBMTEuMiwxMS4yLDAsMCwwLDI0LDNIMThWMjRoNmE3Ljc4Nyw3Ljc4NywwLDAsMSwyLjIuNTE2LDEwLjA5LDEwLjA5LDAsMCwxLDEuOTIyLjk4NEExMS4wMiwxMS4wMiwwLDAsMSwzMCwyN1pNNDUsM0gzOWExMi4zNDQsMTIuMzQ0LDAsMCwwLTMuMzc1LjUxNiw0LjY3Nyw0LjY3NywwLDAsMC0xLjc4MS45ODRBMy4wMjEsMy4wMjEsMCwwLDAsMzMsNlYyN2ExMC45ODEsMTAuOTgxLDAsMCwxLDEuODc1LTEuNSwxMC4wNiwxMC4wNiwwLDAsMSwxLjkyMi0uOTg0QTcuNzc5LDcuNzc5LDAsMCwxLDM5LDI0aDZWM1oiLz48L2c+PC9nPjwvc3ZnPg==;fontStyle=1" vertex="1" parent="KJaW32-MUoOeKXqnR98N-92">
          <mxGeometry x="880.0044979079497" y="29.55823293172691" width="48" height="48" as="geometry" />
        </mxCell>
        <mxCell id="KJaW32-MUoOeKXqnR98N-234" style="edgeStyle=orthogonalEdgeStyle;rounded=0;orthogonalLoop=1;jettySize=auto;html=1;entryX=0;entryY=0.5;entryDx=0;entryDy=0;strokeColor=#0070F2;strokeWidth=2;align=center;verticalAlign=middle;fontFamily=Helvetica;fontSize=11;fontColor=default;labelBackgroundColor=default;endArrow=classic;" edge="1" parent="KJaW32-MUoOeKXqnR98N-92" source="KJaW32-MUoOeKXqnR98N-232" target="KJaW32-MUoOeKXqnR98N-110">
          <mxGeometry relative="1" as="geometry" />
        </mxCell>
        <mxCell id="KJaW32-MUoOeKXqnR98N-232" value="Chegada Do Veículo" style="shape=image;verticalLabelPosition=bottom;verticalAlign=top;imageAspect=0;aspect=fixed;image=data:image/svg+xml,PHN2ZyB4bWxucz0iaHR0cDovL3d3dy53My5vcmcvMjAwMC9zdmciIGlkPSJ0cmFuc3BvcnQtbWFuYWdlbWVudCIgdmlld0JveD0iNC4wMDAwMDA0NzY4MzcxNTggNCA0OC4wMDA5OTk0NTA2ODM1OTQgNDguMDAwMzg1Mjg0NDIzODMiIHdpZHRoPSI0OC4wMDA5OTk0NTA2ODM1OTQiIGhlaWdodD0iNDguMDAwMzg1Mjg0NDIzODMiPjxkZWZzPjxzdHlsZT4uY2xzLTF7ZmlsbDojMGE2ZWQxO30uY2xzLTJ7ZmlsbDojMDUzYjcwO308L3N0eWxlPjwvZGVmcz48dGl0bGU+dHJhbnNwb3J0LW1hbmFnZW1lbnQ8L3RpdGxlPjxwYXRoIGNsYXNzPSJjbHMtMSIgZD0iTTQyLjM3MSw1MmE1LjQsNS40LDAsMCwxLTMuNTE0LTEuMjQ1QTUuNDc2LDUuNDc2LDAsMCwxLDM3LDQ3Ljg3NUgzMy4yOTFhNS4xOTQsNS4xOTQsMCwwLDEtMS44LDIuODgsNS41ODMsNS41ODMsMCwwLDEtNy4wMjksMCw1LjQ4Miw1LjQ4MiwwLDAsMS0xLjg1OC0yLjg4SDIwLjc3NmEyLjM1MSwyLjM1MSwwLDAsMS0yLjQzLTIuNDM3VjM5LjI1YTIuMjI2LDIuMjI2LDAsMCwxLC4yNjItMS4wMzEsMi4yMiwyLjIyLDAsMCwxLS4yNjItMS4wMzFWMjYuODc1YTIuMzUyLDIuMzUyLDAsMCwxLDIuNDMtMi40MzdIMzcuMjI5YTIuNDA5LDIuNDA5LDAsMCwxLDEuNy42ODIsMi4yODcsMi4yODcsMCwwLDEsLjcsMS4zOGguODdhOC40NDQsOC40NDQsMCwwLDEsMy4wMjQuNTQxLDguNjczLDguNjczLDAsMCwxLDIuNTUzLDEuNTE0QTkuMDczLDkuMDczLDAsMCwxLDQ4LDMwLjg0MmE4LjUwOSw4LjUwOSwwLDAsMSwxLjA0MywyLjg2NWwuNDY3LDMuMWguMDY0YTIuNDEsMi40MSwwLDAsMSwxLjcuNjgzQTIuMzMyLDIuMzMyLDAsMCwxLDUyLDM5LjI1djYuMTg4YTIuMzI4LDIuMzI4LDAsMCwxLS43MjcsMS43NTQsMi40LDIuNCwwLDAsMS0xLjcuNjgzSDQ3LjY4OGE1LjIsNS4yLDAsMCwxLTEuOCwyLjg4QTUuNDEsNS40MSwwLDAsMSw0Mi4zNzEsNTJabTAtOC4yNWEyLjcsMi43LDAsMSwwLDEuOTE5Ljc5MkEyLjU4NywyLjU4NywwLDAsMCw0Mi4zNzEsNDMuNzVabS0xNC40LDBhMi43LDIuNywwLDEsMCwxLjkyLjc5MkEyLjU4OSwyLjU4OSwwLDAsMCwyNy45NzQsNDMuNzVabTE5LjcxMSwxLjMxMkg0OS4yVjM5LjYyNUgyMS4xNXY1LjQzN2gxLjQ1NWE1LjYzMSw1LjYzMSwwLDAsMSwxLjg1Mi0yLjg0NCw1LjQ4Niw1LjQ4NiwwLDAsMSw4LjgzMSwyLjg0NEgzN2E1LjYyNSw1LjYyNSwwLDAsMSwxLjg1Mi0yLjg0NCw1LjQ4Nyw1LjQ4NywwLDAsMSw4LjgzMSwyLjg0NFptLTguMDI1LTguMjVoNy4wMjZsLS40NDEtMi42NTdhNS44MTksNS44MTksMCwwLDAtNS43MzgtNC44NDNIMzkuNjZabS0xOC41MSwwaDE1LjdWMjcuMjVIMjEuMTVaIi8+PHBhdGggY2xhc3M9ImNscy0yIiBkPSJNMTUuMzA3LDI4SDExLjU3NWMtMy4xNjYsMC00LjU4My0yLjcxOS00LjU4My01LjQxNWE1LjM4NSw1LjM4NSwwLDAsMSwzLjcyNy01LjEwOWwyLjI2NS0uNzY5LS4yMjMtMi4zODRhOC4wNTgsOC4wNTgsMCwwLDEsMS41MTUtNS4zMzVDMTUuMzEsNy43ODYsMTYuNDcxLDcsMTkuMDkzLDdhNS45MjgsNS45MjgsMCwwLDEsNS44MzMsNC4wMzlsMS4zLDMuMjg5TDI5LjI1MSwxMi41YTMuOTA2LDMuOTA2LDAsMCwxLDIuMDM5LS41OTFBMy45ODMsMy45ODMsMCwwLDEsMzUuMiwxNS4xNjFsLjI4NywxLjUyOSwxLjQxMS42NDVBNS41NzcsNS41NzcsMCwwLDEsNDAuMTEsMjJoMy4wMjFhOC41NzMsOC41NzMsMCwwLDAtNC45OTUtNy4zOTUsNi45NzYsNi45NzYsMCwwLDAtNi44NDYtNS43LDYuOSw2LjksMCwwLDAtMy41ODQsMS4wMjJBOS40MjgsOS40MjgsMCwwLDAsMTkuMDIsNEM4Ljg5MSw0LDkuNzg1LDE0LjYyNiw5Ljc4NSwxNC42MjZBOC4zODUsOC4zODUsMCwwLDAsNCwyMi41ODVDNCwyNy4yMzIsNi45NDEsMzEsMTEuNTc1LDMxaDMuNzMyWiIvPjwvc3ZnPg==;whiteSpace=wrap;fontStyle=1;fontColor=#0070F2;" vertex="1" parent="KJaW32-MUoOeKXqnR98N-92">
          <mxGeometry x="619.0033333333332" y="29.11044776119399" width="48" height="48" as="geometry" />
        </mxCell>
        <mxCell id="KJaW32-MUoOeKXqnR98N-240" style="edgeStyle=orthogonalEdgeStyle;rounded=0;orthogonalLoop=1;jettySize=auto;html=1;strokeColor=#0070F2;strokeWidth=2;align=center;verticalAlign=middle;fontFamily=Helvetica;fontSize=11;fontColor=default;labelBackgroundColor=default;endArrow=classic;" edge="1" parent="KJaW32-MUoOeKXqnR98N-92" source="KJaW32-MUoOeKXqnR98N-236" target="KJaW32-MUoOeKXqnR98N-232">
          <mxGeometry relative="1" as="geometry" />
        </mxCell>
        <mxCell id="KJaW32-MUoOeKXqnR98N-244" style="edgeStyle=orthogonalEdgeStyle;rounded=0;orthogonalLoop=1;jettySize=auto;html=1;entryX=0.5;entryY=0;entryDx=0;entryDy=0;shadow=0;strokeColor=#FF0000;strokeWidth=2;align=center;verticalAlign=middle;fontFamily=Helvetica;fontSize=11;fontColor=default;labelBackgroundColor=default;jumpStyle=none;endArrow=classic;endFill=1;flowAnimation=0;" edge="1" parent="KJaW32-MUoOeKXqnR98N-92" source="KJaW32-MUoOeKXqnR98N-236" target="KJaW32-MUoOeKXqnR98N-243">
          <mxGeometry relative="1" as="geometry" />
        </mxCell>
        <mxCell id="KJaW32-MUoOeKXqnR98N-236" value="Comparação" style="shape=image;verticalLabelPosition=bottom;verticalAlign=top;imageAspect=0;aspect=fixed;image=data:image/svg+xml,PHN2ZyB4bWxucz0iaHR0cDovL3d3dy53My5vcmcvMjAwMC9zdmciIGlkPSJzYXAtc21hcnQtYnVzaW5lc3Mtc2VydmljZSIgdmlld0JveD0iMy45OTk3MDkzNjc3NTIwNzUgNS45NTE3MTAyMjQxNTE2MTEgNDguMDAwNTc5ODMzOTg0Mzc1IDQ1LjA2OTk3Mjk5MTk0MzM2IiB3aWR0aD0iNDguMDAwNTc5ODMzOTg0Mzc1IiBoZWlnaHQ9IjQ1LjA2OTk3Mjk5MTk0MzM2Ij48ZGVmcz48c3R5bGU+LmNscy0xe2ZpbGw6IzBhNmVkMTt9LmNscy0ye2ZpbGw6IzA1M2I3MDt9PC9zdHlsZT48L2RlZnM+PHRpdGxlPnNhcC1zbWFydC1idXNpbmVzcy1zZXJ2aWNlPC90aXRsZT48cGF0aCBjbGFzcz0iY2xzLTEiIGQ9Ik00My42MjIsNDAuNzYzYTEwLjU4NywxMC41ODcsMCwwLDAsMi4xNTUtNi4yNzgsMTAuNDUsMTAuNDUsMCwxLDAtNC4yMTcsOC40MzNMNDkuMjQ0LDUwLjZhMS40NywxLjQ3LDAsMCwwLDIuMDYxLDAsMS40MjQsMS40MjQsMCwwLDAsMC0yLjE1NVptLTguMzQsMS4yMThhNy41LDcuNSwwLDEsMSw3LjUtNy41QTcuNTE4LDcuNTE4LDAsMCwxLDM1LjI4Miw0MS45ODFaIi8+PHBhdGggY2xhc3M9ImNscy0yIiBkPSJNNDguNTcxLDUuOTUySDcuNDI5QTMuMzg1LDMuMzg1LDAsMCwwLDQsOS4zODFWNDEuNmEzLjM4NSwzLjM4NSwwLDAsMCwzLjQyOSwzLjQyOUgyMy44di0zSDdWMjkuMDgybDUuNzgtNS43OGEyLjk1NywyLjk1NywwLDAsMCwzLjYwNS0uNDIzLDIuOTI3LDIuOTI3LDAsMCwwLC41NTEtLjgzMWw1LjA3MSwxLjE3OGMwLC4wMTEtLjAwNy4wMjEtLjAwNy4wMzJhMywzLDAsMCwwLDYsMCwyLjk0NSwyLjk0NSwwLDAsMC0uNy0xLjg2M2wzLjE2NC00LjY2NGEzLjAxNiwzLjAxNiwwLDAsMCwyLjQ0Ny0uMTQxbDMuODA2LDZhMTEuNzU4LDExLjc1OCwwLDAsMSwyLjA0OS40MzFMMzQsMTUuNTExYTIuOTU3LDIuOTU3LDAsMCwwLS4zNjMtMy43LDIuOTc5LDIuOTc5LDAsMCwwLTQuMzg2LDQuMDI3TDI2LjEsMjAuNDgxYTIuODg5LDIuODg5LDAsMCwwLTMuNjYyLDEuMzA2bC01LjIxMy0xLjIxMWEyLjk2LDIuOTYsMCwwLDAtLjg0My0xLjkzOSwzLDMsMCwwLDAtNC4yNDMsMCwyLjk1OCwyLjk1OCwwLDAsMC0uNDIzLDMuNjA1TDcsMjYuOTYxVjkuMDI0SDQ5bC0uMDA5LDExLTYuOTUyLDQuNDQ4YTEyLjA3OSwxMi4wNzksMCwwLDEsMS4yMTgsMUw1MiwxOS45NDNWOS4zODFBMy4zODUsMy4zODUsMCwwLDAsNDguNTcxLDUuOTUyWiIvPjwvc3ZnPg==;fontStyle=1;fontColor=#0070F2;" vertex="1" parent="KJaW32-MUoOeKXqnR98N-92">
          <mxGeometry x="499.9968598326359" y="31.18094334920179" width="48" height="45" as="geometry" />
        </mxCell>
        <mxCell id="KJaW32-MUoOeKXqnR98N-243" value="&lt;span style=&quot;text-wrap-mode: nowrap;&quot;&gt;&lt;font style=&quot;&quot; color=&quot;#ff0000&quot;&gt;IVA Incorreto&lt;/font&gt;&lt;/span&gt;" style="rounded=1;whiteSpace=wrap;html=1;strokeColor=#b85450;strokeWidth=1.5;arcSize=16;fillColor=#f8cecc;perimeterSpacing=0;absoluteArcSize=1;fontSize=10;fontStyle=1" vertex="1" parent="KJaW32-MUoOeKXqnR98N-92">
          <mxGeometry x="484" y="142.80597014925374" width="80" height="21.68179104477612" as="geometry" />
        </mxCell>
        <mxCell id="KJaW32-MUoOeKXqnR98N-245" value="&lt;font color=&quot;#ff0000&quot;&gt;&lt;span style=&quot;text-wrap-mode: nowrap;&quot;&gt;XPED Incon.&lt;/span&gt;&lt;/font&gt;" style="rounded=1;whiteSpace=wrap;html=1;strokeColor=#b85450;strokeWidth=1.5;arcSize=16;fillColor=#f8cecc;perimeterSpacing=0;absoluteArcSize=1;fontSize=10;fontStyle=1" vertex="1" parent="KJaW32-MUoOeKXqnR98N-92">
          <mxGeometry x="172" y="127.70149253731343" width="66" height="21.970149253731343" as="geometry" />
        </mxCell>
        <mxCell id="KJaW32-MUoOeKXqnR98N-251" value="Vincula Item do Pedido Manualmente" style="shape=image;verticalLabelPosition=bottom;verticalAlign=top;imageAspect=0;aspect=fixed;image=data:image/svg+xml,PHN2ZyB4bWxucz0iaHR0cDovL3d3dy53My5vcmcvMjAwMC9zdmciIGlkPSJhaS1jb3JlIiB2aWV3Qm94PSIzLjk5OTk5OTc2MTU4MTQyMSAzLjk5OTk5OTc2MTU4MTQyMSA0OCA0OCIgd2lkdGg9IjQ4IiBoZWlnaHQ9IjQ4Ij48ZGVmcz48c3R5bGU+LmNscy0xe2ZpbGw6bm9uZTt9LmNscy0ye2ZpbGw6IzBhNmVkMTt9LmNscy0ze2ZpbGw6IzA1M2I3MDt9PC9zdHlsZT48L2RlZnM+PHJlY3QgY2xhc3M9ImNscy0xIiB4PSI3IiB5PSIxNiIgd2lkdGg9IjQyIiBoZWlnaHQ9IjYiLz48cmVjdCBjbGFzcz0iY2xzLTEiIHg9IjciIHk9IjciIHdpZHRoPSI0MiIgaGVpZ2h0PSI2Ii8+PHBhdGggY2xhc3M9ImNscy0yIiBkPSJNMjMuOTY2LDQ5LjY4MXYtLjAxSDIyLjg4MWEyLjI2OSwyLjI2OSwwLDAsMS0yLjIxMS0yLjMyOFY0My4yMDZhNC41MTMsNC41MTMsMCwwLDAtMS40ODgtMy4xQTQuNzE2LDQuNzE2LDAsMCwwLDIwLjY3LDM3VjMyLjY1N2EyLjI2OSwyLjI2OSwwLDAsMSwyLjIxMS0yLjMyOGgxLjA4NXYtLjAxYTEuMTYsMS4xNiwwLDAsMCwwLTIuMzA5VjI4SDIyLjg3NGE0LjUzOCw0LjUzOCwwLDAsMC00LjQxNSw0LjY1NlYzN2EyLjE1OCwyLjE1OCwwLDAsMS0xLjU5MiwxLjgxOXYuMDJhMS4zMSwxLjMxLDAsMCwwLDAsMi40NTR2LjAxNmEyLjI2MSwyLjI2MSwwLDAsMSwxLjU5MiwxLjl2NC4xMzdBNC41MzgsNC41MzgsMCwwLDAsMjIuODc0LDUyaDEuMDkydi0uMDFhMS4xNiwxLjE2LDAsMCwwLDAtMi4zMDlaIi8+PHBhdGggY2xhc3M9ImNscy0yIiBkPSJNNTEuOTkxLDM5LjkzOGExLjI4NSwxLjI4NSwwLDAsMC0uODUyLTEuMjI3VjM4LjdhMi4yNjMsMi4yNjMsMCwwLDEtMS41OTItMS45VjMyLjY1N0E0LjUzNyw0LjUzNywwLDAsMCw0NS4xMzMsMjhINDQuMDR2LjAxYTEuMTYsMS4xNiwwLDAsMCwwLDIuMzA5di4wMWgxLjA4NmEyLjI2OCwyLjI2OCwwLDAsMSwyLjIxLDIuMzI4djQuMTM3YTQuNTE4LDQuNTE4LDAsMCwwLDEuNDg5LDMuMUE0LjcxNyw0LjcxNywwLDAsMCw0Ny4zMzYsNDN2NC4zMzlhMi4yNjgsMi4yNjgsMCwwLDEtMi4yMSwyLjMyOEg0NC4wNHYuMDFhMS4xNiwxLjE2LDAsMCwwLDAsMi4zMDlWNTJoMS4wOTNhNC41MzcsNC41MzcsMCwwLDAsNC40MTQtNC42NTZWNDNhMi4xNTgsMi4xNTgsMCwwLDEsMS41OTItMS44MTl2LS4wMkExLjI4NiwxLjI4NiwwLDAsMCw1MS45OTEsMzkuOTM4WiIvPjxwYXRoIGNsYXNzPSJjbHMtMiIgZD0iTTEzLjAxMSwxMS4xMjVoLTNhMS4xMjUsMS4xMjUsMCwwLDEsMC0yLjI1aDNhMS4xMjUsMS4xMjUsMCwwLDEsMCwyLjI1WiIvPjxwYXRoIGNsYXNzPSJjbHMtMiIgZD0iTTEzLjAxMSwyMC4xaC0zYTEuMTI1LDEuMTI1LDAsMCwxLDAtMi4yNWgzYTEuMTI1LDEuMTI1LDAsMCwxLDAsMi4yNVoiLz48cGF0aCBjbGFzcz0iY2xzLTIiIGQ9Ik0xMy4wMSwyOS4wNjVoLTNhMS4xMjUsMS4xMjUsMCwwLDEsMC0yLjI1aDNhMS4xMjUsMS4xMjUsMCwxLDEsMCwyLjI1WiIvPjxwYXRoIGNsYXNzPSJjbHMtMyIgZD0iTTUyLDIyVjdhMy4wMDksMy4wMDksMCwwLDAtMy0zSDdBMy4wMDksMy4wMDksMCwwLDAsNCw3VjMxYTMuMDA5LDMuMDA5LDAsMCwwLDMsM2g1LjYzNWExLjUsMS41LDAsMCwwLDAtM0g3VjI1SDQ5QTMsMywwLDAsMCw1MiwyMlpNNyw3SDQ5djZIN1ptMCw5SDQ5djZIN1oiLz48cGF0aCBjbGFzcz0iY2xzLTMiIGQ9Ik0zNC42LDQyLjY3OEEyLjY3NSwyLjY3NSwwLDAsMSwzMS45MjgsNDBhLjc1Ljc1LDAsMSwxLDEuNSwwLDEuMTczLDEuMTczLDAsMCwwLC4zNDIuODMyLDEuMjExLDEuMjExLDAsMCwwLDEuNjY1LDAsMS4xNzcsMS4xNzcsMCwwLDAtLjgzLTIuMDEzLjc1Ljc1LDAsMSwxLDAtMS41QTIuNjgxLDIuNjgxLDAsMCwxLDM3LjI4Myw0MCwyLjY4LDIuNjgsMCwwLDEsMzQuNiw0Mi42NzhaIi8+PHBhdGggY2xhc3M9ImNscy0zIiBkPSJNMzQuNiw0Ni4yNjdhNi4yNjcsNi4yNjcsMCwwLDEtNC40MjktMTAuNyw2LjQyMyw2LjQyMywwLDAsMSw4Ljg2MiwwQTYuMjI2LDYuMjI2LDAsMCwxLDQwLjg3Miw0MGExLjEyNSwxLjEyNSwwLDAsMS0yLjI1LDAsMy45NzcsMy45NzcsMCwwLDAtMS4xNzUtMi44MzksNC4xMTMsNC4xMTMsMCwwLDAtNS42OCwwQTQuMDE5LDQuMDE5LDAsMCwwLDM0LjYsNDQuMDE3YTEuMTI1LDEuMTI1LDAsMCwxLDAsMi4yNVoiLz48cGF0aCBjbGFzcz0iY2xzLTMiIGQ9Ik0zNC42LDUwLjEyNWExMC4wNzEsMTAuMDcxLDAsMCwxLTcuMTYtMi45NjUsMS4xMjcsMS4xMjcsMCwwLDEsMS41OTQtMS41OTQsOC4wNTUsOC4wNTUsMCwwLDAsMTEuMTMzLDAsNy43OTIsNy43OTIsMCwwLDAsMS4yNTctMS42MjgsMS4xMjUsMS4xMjUsMCwxLDEsMS45NDUsMS4xM0ExMC4xNTMsMTAuMTUzLDAsMCwxLDM0LjYsNTAuMTI1WiIvPjxwYXRoIGNsYXNzPSJjbHMtMyIgZD0iTTI1LjYwNSw0MS4xMjVBMS4xMjUsMS4xMjUsMCwwLDEsMjQuNDgsNDBhMTAuMDcxLDEwLjA3MSwwLDAsMSwyLjk2NS03LjE2LDEwLjM4MSwxMC4zODEsMCwwLDEsMTQuMzIxLDAsMS4xMjcsMS4xMjcsMCwwLDEtMS41OTQsMS41OTQsOC4wNTUsOC4wNTUsMCwwLDAtMTEuMTMzLDBBNy44MTMsNy44MTMsMCwwLDAsMjYuNzMsNDAsMS4xMjUsMS4xMjUsMCwwLDEsMjUuNjA1LDQxLjEyNVoiLz48L3N2Zz4=;whiteSpace=wrap;fontStyle=1;fontColor=#0070F2;" vertex="1" parent="KJaW32-MUoOeKXqnR98N-92">
          <mxGeometry x="360" y="129.64999999999998" width="48" height="48" as="geometry" />
        </mxCell>
        <mxCell id="KJaW32-MUoOeKXqnR98N-115" value="&lt;h3 style=&quot;line-height: 0%;&quot;&gt;S/4 Hana&lt;/h3&gt;" style="rounded=1;whiteSpace=wrap;html=1;strokeColor=#0070F2;fillColor=#EBF8FF;arcSize=24;absoluteArcSize=1;imageWidth=64;imageHeight=64;strokeWidth=1.5;container=0;align=left;verticalAlign=top;" vertex="1" parent="1">
          <mxGeometry x="132.95999999999998" y="-360" width="1004.08" height="470" as="geometry" />
        </mxCell>
        <mxCell id="KJaW32-MUoOeKXqnR98N-129" value="BADI" style="strokeColor=#0070F2;shadow=0;strokeWidth=1.5;rounded=1;absoluteArcSize=1;arcSize=20;align=left;fontSize=16;fontStyle=1;spacingLeft=15;spacing=0;container=1;collapsible=0;fontColor=#1D2D3E;" vertex="1" parent="1">
          <mxGeometry x="142.95999999999998" y="-320" width="624.08" height="120" as="geometry" />
        </mxCell>
        <mxCell id="KJaW32-MUoOeKXqnR98N-181" style="edgeStyle=orthogonalEdgeStyle;rounded=0;orthogonalLoop=1;jettySize=auto;html=1;" edge="1" parent="KJaW32-MUoOeKXqnR98N-129" source="KJaW32-MUoOeKXqnR98N-149" target="KJaW32-MUoOeKXqnR98N-180">
          <mxGeometry relative="1" as="geometry" />
        </mxCell>
        <mxCell id="KJaW32-MUoOeKXqnR98N-149" value="Redetermina" style="shape=image;verticalLabelPosition=bottom;verticalAlign=top;imageAspect=0;aspect=fixed;image=data:image/svg+xml,PHN2ZyB4bWxucz0iaHR0cDovL3d3dy53My5vcmcvMjAwMC9zdmciIGlkPSJibG9ja2NoYWluLXNlcnZpY2VzIiB2aWV3Qm94PSI0LjAwMDAwMTkwNzM0ODYzMyAzLjk5OTk5OTA0NjMyNTY4MzYgNDggNDcuOTk5OTk2MTg1MzAyNzM0IiB3aWR0aD0iNDgiIGhlaWdodD0iNDcuOTk5OTk2MTg1MzAyNzM0Ij48ZGVmcz48c3R5bGU+LmNscy0xe2ZpbGw6IzA3NGQ5Mjt9LmNscy0ye2ZpbGw6IzA1M2I3MDt9LmNscy0ze2ZpbGw6IzBhNmVkMTt9PC9zdHlsZT48L2RlZnM+PHRpdGxlPmJsb2NrY2hhaW4tc2VydmljZXNfY2lyY2xlPC90aXRsZT48cGF0aCBjbGFzcz0iY2xzLTEiIGQ9Ik0yOCw2QTIyLDIyLDAsMSwxLDYsMjgsMjIuMDI1LDIyLjAyNSwwLDAsMSwyOCw2bTAtMkEyNCwyNCwwLDEsMCw1MiwyOCwyNCwyNCwwLDAsMCwyOCw0WiIvPjxwb2x5Z29uIGNsYXNzPSJjbHMtMiIgcG9pbnRzPSIzNSAzMy42MDMgMzUgMzUuOTk1IDMyLjg1MyAzNy4yMTUgMzIuODUzIDM5LjIyOCAzNi43NSAzNy4wMTQgMzYuNzUgMzIuNjA5IDM1IDMzLjYwMyIvPjxwb2x5Z29uIGNsYXNzPSJjbHMtMiIgcG9pbnRzPSIyNS40NDMgMjUuMTc2IDIzLjIyMSAyNi40MzggMjEgMjUuMTc2IDIxIDIyLjc3MiAxOS4yNSAyMS43NzcgMTkuMjUgMjYuMTk0IDIzLjIyMSAyOC40NTEgMjcuMTkzIDI2LjE5NCAyNy4xOTMgMjEuNzc3IDI1LjQ0MyAyMi43NzIgMjUuNDQzIDI1LjE3NiIvPjxwb2x5Z29uIGNsYXNzPSJjbHMtMiIgcG9pbnRzPSIyMSAzMy42MDMgMTkuMjUgMzIuNjA5IDE5LjI1IDM3LjAxNCAyMy4xNTkgMzkuMjM1IDIzLjE1OSAzNy4yMjIgMjEgMzUuOTk1IDIxIDMzLjYwMyIvPjxwb2x5Z29uIGNsYXNzPSJjbHMtMiIgcG9pbnRzPSIyNy45OTcgMjMuODkzIDMwLjIxMiAyNS4yODMgMzEuODYgMjQuMzQ3IDI3Ljk5NyAyMS43NzcgMjcuOTk3IDIzLjg5MyIvPjxwYXRoIGNsYXNzPSJjbHMtMyIgZD0iTTI3LjE5MywyMC43NzFWMTYuMjU3TDIzLjIyMSwxNCwxOS4yNSwxNi4yNTd2NC41MTRsMy45NzEsMi4yNTdaTTIxLDE3LjI3NWwyLjIyMS0xLjI2MiwyLjIyMiwxLjI2MnYyLjQ3OGwtMi4yMjIsMS4yNjJMMjEsMTkuNzUzWiIvPjxwb2x5Z29uIGNsYXNzPSJjbHMtMyIgcG9pbnRzPSIyNy4xOTMgMjcuMiAyNS40NDMgMjguMTk1IDI1LjQ0MyAzMC41ODQgMjMuMjIxIDMxLjg0NiAyMSAzMC41ODQgMjEgMjguMTk1IDE5LjI1IDI3LjIgMTkuMjUgMzEuNjAyIDIzLjIyMSAzMy44NTkgMjcuMTkzIDMxLjYwMiAyNy4xOTMgMjcuMiIvPjxwYXRoIGNsYXNzPSJjbHMtMyIgZD0iTTI0LjAzNCwzNS4yMjl2NC41MTNMMjguMDA1LDQybDMuOTczLTIuMjU4VjM1LjIyOWwtMy45NzMtMi4yNTdabTYuMTk0LDEuMDE5djIuNDc2bC0yLjIyMywxLjI2My0yLjIyMS0xLjI2M1YzNi4yNDdsMi4yMjEtMS4yNjJaIi8+PHBhdGggY2xhc3M9ImNscy0zIiBkPSJNMzIuNzc5LDI0LjgzMWwtMy45NzIsMi4yNTdWMzEuNmwzLjk3MiwyLjI1N0wzNi43NSwzMS42VjI3LjA4OFpNMzUsMzAuNTg0bC0yLjIyMSwxLjI2Mi0yLjIyMi0xLjI2MlYyOC4xMDZsMi4yMjItMS4yNjJMMzUsMjguMTA2WiIvPjwvc3ZnPg==;fontStyle=1;fontColor=#0070F2;" vertex="1" parent="KJaW32-MUoOeKXqnR98N-129">
          <mxGeometry x="82.96733795408818" y="33" width="54" height="54" as="geometry" />
        </mxCell>
        <mxCell id="KJaW32-MUoOeKXqnR98N-180" value="Inconsistência Nos Itens" style="rounded=1;whiteSpace=wrap;html=1;strokeColor=#0070F2;strokeWidth=1.5;arcSize=16;fillColor=#EBF8FF;perimeterSpacing=0;absoluteArcSize=1;fontColor=#0070F2;fontSize=11;fontStyle=0" vertex="1" parent="KJaW32-MUoOeKXqnR98N-129">
          <mxGeometry x="171.73830246415224" y="45" width="88.98770670616751" height="30" as="geometry" />
        </mxCell>
        <mxCell id="KJaW32-MUoOeKXqnR98N-249" value="Armazena Pedido" style="rounded=1;whiteSpace=wrap;html=1;strokeColor=#0070F2;strokeWidth=1.5;arcSize=16;fillColor=#EBF8FF;perimeterSpacing=0;absoluteArcSize=1;fontColor=#0070F2;fontSize=11;fontStyle=0" vertex="1" parent="KJaW32-MUoOeKXqnR98N-129">
          <mxGeometry x="484.0383024641522" y="33" width="88.98770670616751" height="30" as="geometry" />
        </mxCell>
        <mxCell id="KJaW32-MUoOeKXqnR98N-133" value="Itens Pedido" style="strokeColor=#0070F2;shadow=0;strokeWidth=1.5;rounded=1;absoluteArcSize=1;arcSize=20;align=left;fontSize=16;fontStyle=1;spacingLeft=15;spacing=0;container=1;collapsible=0;fontColor=#1D2D3E;" vertex="1" parent="1">
          <mxGeometry x="142.95999999999998" y="-190" width="624.08" height="90" as="geometry" />
        </mxCell>
        <mxCell id="KJaW32-MUoOeKXqnR98N-193" style="edgeStyle=orthogonalEdgeStyle;rounded=0;orthogonalLoop=1;jettySize=auto;html=1;entryX=0;entryY=0.5;entryDx=0;entryDy=0;" edge="1" parent="KJaW32-MUoOeKXqnR98N-133" source="KJaW32-MUoOeKXqnR98N-185" target="KJaW32-MUoOeKXqnR98N-191">
          <mxGeometry relative="1" as="geometry" />
        </mxCell>
        <mxCell id="KJaW32-MUoOeKXqnR98N-185" value="Modifica Pedido" style="shape=image;verticalLabelPosition=bottom;verticalAlign=top;imageAspect=0;aspect=fixed;image=data:image/svg+xml,PHN2ZyB4bWxucz0iaHR0cDovL3d3dy53My5vcmcvMjAwMC9zdmciIGlkPSJpbnZvaWNlLW9iamVjdC1yZWNvbW1lbmRhdGlvbiIgdmlld0JveD0iNC4wMDAwMDE5MDczNDg2MzMgMy45OTk5OTkwNDYzMjU2ODM2IDQ4IDQ3Ljk5OTk5NjE4NTMwMjczNCIgd2lkdGg9IjQ4IiBoZWlnaHQ9IjQ3Ljk5OTk5NjE4NTMwMjczNCI+PGRlZnM+PHN0eWxlPi5jbHMtMXtmaWxsOiMwNzRkOTI7fS5jbHMtMntmaWxsOiMwNTNiNzA7fS5jbHMtM3tmaWxsOiMwYTZlZDE7fTwvc3R5bGU+PC9kZWZzPjx0aXRsZT5pbnZvaWNlLW9iamVjdC1yZWNvbW1lbmRhdGlvbl9jaXJjbGU8L3RpdGxlPjxwYXRoIGNsYXNzPSJjbHMtMSIgZD0iTTI4LDZBMjIsMjIsMCwxLDEsNiwyOCwyMi4wMjUsMjIuMDI1LDAsMCwxLDI4LDZtMC0yQTI0LDI0LDAsMSwwLDUyLDI4LDI0LDI0LDAsMCwwLDI4LDRaIi8+PHBhdGggY2xhc3M9ImNscy0yIiBkPSJNMjQuNzUsMjQuNzVIMTkuODc1YS44MTMuODEzLDAsMSwwLDAsMS42MjVIMjQuNzVhLjgxMy44MTMsMCwwLDAsMC0xLjYyNVoiLz48cGF0aCBjbGFzcz0iY2xzLTIiIGQ9Ik0yNC43NSwyOEgxOS44NzVhLjgxMy44MTMsMCwxLDAsMCwxLjYyNUgyNC43NWEuODEzLjgxMywwLDAsMCwwLTEuNjI1WiIvPjxwYXRoIGNsYXNzPSJjbHMtMiIgZD0iTTI0Ljc1LDMxLjI1SDE5Ljg3NWEuODEzLjgxMywwLDEsMCwwLDEuNjI1SDI0Ljc1YS44MTMuODEzLDAsMCwwLDAtMS42MjVaIi8+PHBhdGggY2xhc3M9ImNscy0yIiBkPSJNMjcuMTg3LDE2LjYyNUgyMC43MzhMMTUuODEyLDIxLjVWMzcuNzVhMS41NjYsMS41NjYsMCwwLDAsMS42MjUsMS42MjVoOS43NVYzNy43NWgtOS43NVYyMy4xMjVoMy4yNWExLjY3MSwxLjY3MSwwLDAsMCwxLjE5NC0uNDU3LDEuNTQ0LDEuNTQ0LDAsMCwwLC40ODItMS4xNjhWMTguMjVoNC44MjRaIi8+PHBhdGggY2xhc3M9ImNscy0zIiBkPSJNMzkuNzA1LDE3LjA4MmExLjYwNiwxLjYwNiwwLDAsMC0xLjE0My0uNDU3aC05Ljc1VjE1SDI3LjE4N1Y0MWgxLjYyNVYzOS4zNzVoOS43NWExLjU2NiwxLjU2NiwwLDAsMCwxLjYyNi0xLjYyNVYxOC4yNUExLjU0MywxLjU0MywwLDAsMCwzOS43MDUsMTcuMDgyWk0zOC41NjIsMzcuNzVoLTkuNzVWMTguMjVoOS43NVoiLz48cGF0aCBjbGFzcz0iY2xzLTMiIGQ9Ik0yOS43MzMsMjkuMjQ0bDMsMy41MjVhLjMxMS4zMTEsMCwwLDAsLjI4OC4xLjMuMywwLDAsMCwuMjQtLjE3OGw0LjQzOS02LjlhLjMyMy4zMjMsMCwwLDAtLjA0OC0uNDA2bC0uNTI4LS41MzJhLjMuMywwLDAsMC0uMjc2LS4xLjI5NC4yOTQsMCwwLDAtLjIyOC4xNzhsLTMuNSw1LjI1YS4yOTQuMjk0LDAsMCwxLS4yMjguMi4zLjMsMCwwLDEtLjI3Ni0uMWwtMS45Mi0yLjAyOXEtLjIxNi0uMjU1LS40NTYsMGwtLjUuNTMyQS4zLjMsMCwwLDAsMjkuNzMzLDI5LjI0NFoiLz48L3N2Zz4=;" vertex="1" parent="KJaW32-MUoOeKXqnR98N-133">
          <mxGeometry x="191.77970374360353" y="13" width="48" height="48" as="geometry" />
        </mxCell>
        <mxCell id="KJaW32-MUoOeKXqnR98N-190" value="Armazena Banco" style="shape=image;verticalLabelPosition=bottom;verticalAlign=top;imageAspect=0;aspect=fixed;image=data:image/svg+xml,PHN2ZyB4bWxucz0iaHR0cDovL3d3dy53My5vcmcvMjAwMC9zdmciIGlkPSJtb25nb0RCIiB2aWV3Qm94PSI0LjAwMDAwMTkwNzM0ODYzMyAzLjk5OTk5OTA0NjMyNTY4MzYgNDggNDcuOTk5OTk2MTg1MzAyNzM0IiB3aWR0aD0iNDgiIGhlaWdodD0iNDcuOTk5OTk2MTg1MzAyNzM0Ij48ZGVmcz48c3R5bGU+LmNscy0xe2ZpbGw6IzA3NGQ5Mjt9LmNscy0ye2ZpbGw6IzA1M2I3MDt9LmNscy0ze2ZpbGw6IzBhNmVkMTt9PC9zdHlsZT48L2RlZnM+PHRpdGxlPm1vbmdvREJfY2lyY2xlPC90aXRsZT48cGF0aCBjbGFzcz0iY2xzLTEiIGQ9Ik0yOCw2QTIyLDIyLDAsMSwxLDYsMjgsMjIuMDI1LDIyLjAyNSwwLDAsMSwyOCw2bTAtMkEyNCwyNCwwLDEsMCw1MiwyOCwyNCwyNCwwLDAsMCwyOCw0WiIvPjxwYXRoIGNsYXNzPSJjbHMtMiIgZD0iTTM3LjY4NCwxNi44YTYuMDMzLDYuMDMzLDAsMCwwLTIuMTc2LTEuNTE3QTE5LjIxNCwxOS4yMTQsMCwwLDAsMjgsMTRhMTkuMjE0LDE5LjIxNCwwLDAsMC03LjUwOCwxLjI4M0E2LjAzMyw2LjAzMywwLDAsMCwxOC4zMTYsMTYuOGEzLjAzOCwzLjAzOCwwLDAsMC0uODE2LDIuMDQyVjM3LjFhMi45MzYsMi45MzYsMCwwLDAsLjgxNiwyLjA0Miw2LjAyLDYuMDIsMCwwLDAsMi4xNzYsMS41MTZBMTguMTEsMTguMTEsMCwwLDAsMjgsNDJhMTkuMjE0LDE5LjIxNCwwLDAsMCw3LjUwOC0xLjI4M0E2LjAzMyw2LjAzMywwLDAsMCwzNy42ODQsMzkuMmEzLjE1MiwzLjE1MiwwLDAsMCwuODE2LTIuMDQyVjE4Ljg0MkEzLjAzOCwzLjAzOCwwLDAsMCwzNy42ODQsMTYuOFptLS45MjUsMjAuMzU4YzAsLjctLjgxNiwxLjQtMi4yMzEsMS45MjVBMTguNzcsMTguNzcsMCwwLDEsMjgsNDAuMDc1YTE4Ljc3LDE4Ljc3LDAsMCwxLTYuNTI4LS45OTJDMjAuMTExLDM4LjU1OCwxOS4zLDM3LjgsMTkuMywzNy4xNThWMzMuOTVhMTAsMTAsMCwwLDAsMy4yMSwxLjQsMjIuMDkzLDIyLjA5MywwLDAsMCw1LjUuNjQyLDIyLjg3LDIyLjg3LDAsMCwwLDUuNTQ5LS42NDIsOS44MTksOS44MTksMCwwLDAsMy4yNjQtMS40djMuMjA4Wm0wLTYuMTI1YzAsLjctLjgxNiwxLjQtMi4yMzEsMS45MjVBMTguNzcsMTguNzcsMCwwLDEsMjgsMzMuOTVhMTguNzcsMTguNzcsMCwwLDEtNi41MjgtLjk5MmMtMS4zNjEtLjUyNS0yLjE3Ny0xLjI4My0yLjE3Ny0xLjkyNXYtMy4xNWE5Ljk4Miw5Ljk4MiwwLDAsMCwzLjIxLDEuMzQyLDIyLjI2MywyMi4yNjMsMCwwLDAsNS41LjU4M2MzLjgwOCwwLDYuOTY0LS43LDguNzU5LTEuOTgzWk0zNC41MjgsMjAuODI1QTE4Ljc3LDE4Ljc3LDAsMCwxLDI4LDIxLjgxN2ExOC43NywxOC43NywwLDAsMS02LjUyOC0uOTkyYy0xLjM2MS0uNTgzLTIuMTc3LTEuMjgzLTIuMTc3LTEuOTgzLDAtMS4yMjUsMy4wNDctMi45MTcsOC43LTIuOTE3LDUuNzEyLDAsOC43NTksMS42OTIsOC43NTksMi45MTdDMzYuNzU5LDE5LjU0MiwzNS45NDMsMjAuMjQyLDM0LjUyOCwyMC44MjVaIi8+PHBhdGggY2xhc3M9ImNscy0zIiBkPSJNMzYuNzMyLDE4Ljg0MmMwLC43LS44MTYsMS40LTIuMjMxLDEuOTgzYTE4Ljc3LDE4Ljc3LDAsMCwxLTYuNTI4Ljk5MiwxOC43NzYsMTguNzc2LDAsMCwxLTYuNTI5LS45OTJjLTEuMzYtLjU4My0yLjE3Ni0xLjI4My0yLjE3Ni0xLjk4M3Y5LjA0MWE5Ljk4Miw5Ljk4MiwwLDAsMCwzLjIxLDEuMzQyLDIyLjI1NywyMi4yNTcsMCwwLDAsNS40OTUuNTgzYzMuODA4LDAsNi45NjQtLjcsOC43NTktMS45ODNaIi8+PC9zdmc+;" vertex="1" parent="KJaW32-MUoOeKXqnR98N-133">
          <mxGeometry x="551.0501050363588" y="13" width="48" height="48" as="geometry" />
        </mxCell>
        <mxCell id="KJaW32-MUoOeKXqnR98N-194" style="edgeStyle=orthogonalEdgeStyle;rounded=0;orthogonalLoop=1;jettySize=auto;html=1;entryX=0;entryY=0.5;entryDx=0;entryDy=0;" edge="1" parent="KJaW32-MUoOeKXqnR98N-133" source="KJaW32-MUoOeKXqnR98N-191" target="KJaW32-MUoOeKXqnR98N-192">
          <mxGeometry relative="1" as="geometry" />
        </mxCell>
        <mxCell id="KJaW32-MUoOeKXqnR98N-191" value="NCM" style="shape=image;verticalLabelPosition=bottom;verticalAlign=top;imageAspect=0;aspect=fixed;image=data:image/svg+xml,PHN2ZyB4bWxucz0iaHR0cDovL3d3dy53My5vcmcvMjAwMC9zdmciIGlkPSJzZXJ2aWNlLXRpY2tldC1pbnRlbGxpZ2VuY2UiIHZpZXdCb3g9IjQuMDAwMDAxOTA3MzQ4NjMzIDMuOTk5OTk5MDQ2MzI1NjgzNiA0OCA0Ny45OTk5OTYxODUzMDI3MzQiIHdpZHRoPSI0OCIgaGVpZ2h0PSI0Ny45OTk5OTYxODUzMDI3MzQiPjxkZWZzPjxzdHlsZT4uY2xzLTF7ZmlsbDojMDc0ZDkyO30uY2xzLTJ7ZmlsbDojMDUzYjcwO30uY2xzLTN7ZmlsbDojMGE2ZWQxO308L3N0eWxlPjwvZGVmcz48dGl0bGU+c2VydmljZS10aWNrZXQtaW50ZWxsaWdlbmNlX2NpcmNsZTwvdGl0bGU+PHBhdGggY2xhc3M9ImNscy0xIiBkPSJNMjgsNkEyMiwyMiwwLDEsMSw2LDI4LDIyLjAyNSwyMi4wMjUsMCwwLDEsMjgsNm0wLTJBMjQsMjQsMCwxLDAsNTIsMjgsMjQsMjQsMCwwLDAsMjgsNFoiLz48cGF0aCBjbGFzcz0iY2xzLTIiIGQ9Ik0xNi44NzksMjYuNzUyYS44MTMuODEzLDAsMCwwLS44MTMtLjgxM0gxMi44MTNhLjgxMy44MTMsMCwxLDAsMCwxLjYyNmgzLjI1M0EuODEzLjgxMywwLDAsMCwxNi44NzksMjYuNzUyWiIvPjxwYXRoIGNsYXNzPSJjbHMtMiIgZD0iTTE3LjY5MiwyMi42OTJIMTQuNDRhLjgxNC44MTQsMCwxLDAsMCwxLjYyN2gzLjI1MmEuODE0LjgxNCwwLDAsMCwwLTEuNjI3WiIvPjxwYXRoIGNsYXNzPSJjbHMtMiIgZD0iTTE3LjY5MiwyOS4xODhIMTYuMDM4YS44MTQuODE0LDAsMCwwLDAsMS42MjdoMS42NTRhLjgxNC44MTQsMCwwLDAsMC0xLjYyN1oiLz48cG9seWdvbiBjbGFzcz0iY2xzLTIiIHBvaW50cz0iMzEuMTM2IDM2LjE3NSAyOS44MSAzNC42NjYgMjguODk1IDM1LjU4MSAzMS4xMzYgMzguMDUgMzUuMzg4IDMzLjExMSAzNC40NzQgMzIuMTk3IDMxLjEzNiAzNi4xNzUiLz48cGF0aCBjbGFzcz0iY2xzLTIiIGQ9Ik0zMi4zMTksMjkuMTg4QTUuNjgyLDUuNjgyLDAsMSwwLDM4LDM0Ljg3LDUuNjgyLDUuNjgyLDAsMCwwLDMyLjMxOSwyOS4xODhabTAsMTAuMTQ2YTQuNDY0LDQuNDY0LDAsMSwxLDQuNDY0LTQuNDY0QTQuNDY5LDQuNDY5LDAsMCwxLDMyLjMxOSwzOS4zMzRaIi8+PHBhdGggY2xhc3M9ImNscy0zIiBkPSJNMzYuMzc5LDE5LjQ0OUgyMS43NjVhMS42MjEsMS42MjEsMCwwLDAtMS42MjEsMS42MjF2OS43NDZhMS42MiwxLjYyLDAsMCwwLDEuNjIxLDEuNjJoMy43MjZhNy4zMjQsNy4zMjQsMCwwLDEsLjc4Ny0xLjYyMUgyMi44NjVsMy4wNjEtMi4wNGEuNjA5LjYwOSwwLDEsMC0uNjc2LTEuMDEybC0zLjQ4MiwyLjMyMywwLTguMDM4LDYuMTQxLDQuMDk0YTIuMSwyLjEsMCwwLDAsMi4zMywwbDYuMTQtNC4wOTQsMCw2Ljc0M0E3LjMyMSw3LjMyMSwwLDAsMSwzOCwzMC4zVjIxLjA3QTEuNjIxLDEuNjIxLDAsMCwwLDM2LjM3OSwxOS40NDlabS03LjA0Miw1LjM0MmEuNDcyLjQ3MiwwLDAsMS0uNTI5LDBsLTUuNTgtMy43MTlIMzQuOTE0WiIvPjwvc3ZnPg==;" vertex="1" parent="KJaW32-MUoOeKXqnR98N-133">
          <mxGeometry x="319.94049016967415" y="13" width="48" height="48" as="geometry" />
        </mxCell>
        <mxCell id="KJaW32-MUoOeKXqnR98N-195" style="edgeStyle=orthogonalEdgeStyle;rounded=0;orthogonalLoop=1;jettySize=auto;html=1;" edge="1" parent="KJaW32-MUoOeKXqnR98N-133" source="KJaW32-MUoOeKXqnR98N-192" target="KJaW32-MUoOeKXqnR98N-190">
          <mxGeometry relative="1" as="geometry" />
        </mxCell>
        <mxCell id="KJaW32-MUoOeKXqnR98N-192" value="Origem/Destino" style="shape=image;verticalLabelPosition=bottom;verticalAlign=top;imageAspect=0;aspect=fixed;image=data:image/svg+xml,PHN2ZyB4bWxucz0iaHR0cDovL3d3dy53My5vcmcvMjAwMC9zdmciIGlkPSJzZXJ2aWNlLXRpY2tldC1pbnRlbGxpZ2VuY2UiIHZpZXdCb3g9IjQuMDAwMDAxOTA3MzQ4NjMzIDMuOTk5OTk5MDQ2MzI1NjgzNiA0OCA0Ny45OTk5OTYxODUzMDI3MzQiIHdpZHRoPSI0OCIgaGVpZ2h0PSI0Ny45OTk5OTYxODUzMDI3MzQiPjxkZWZzPjxzdHlsZT4uY2xzLTF7ZmlsbDojMDc0ZDkyO30uY2xzLTJ7ZmlsbDojMDUzYjcwO30uY2xzLTN7ZmlsbDojMGE2ZWQxO308L3N0eWxlPjwvZGVmcz48dGl0bGU+c2VydmljZS10aWNrZXQtaW50ZWxsaWdlbmNlX2NpcmNsZTwvdGl0bGU+PHBhdGggY2xhc3M9ImNscy0xIiBkPSJNMjgsNkEyMiwyMiwwLDEsMSw2LDI4LDIyLjAyNSwyMi4wMjUsMCwwLDEsMjgsNm0wLTJBMjQsMjQsMCwxLDAsNTIsMjgsMjQsMjQsMCwwLDAsMjgsNFoiLz48cGF0aCBjbGFzcz0iY2xzLTIiIGQ9Ik0xNi44NzksMjYuNzUyYS44MTMuODEzLDAsMCwwLS44MTMtLjgxM0gxMi44MTNhLjgxMy44MTMsMCwxLDAsMCwxLjYyNmgzLjI1M0EuODEzLjgxMywwLDAsMCwxNi44NzksMjYuNzUyWiIvPjxwYXRoIGNsYXNzPSJjbHMtMiIgZD0iTTE3LjY5MiwyMi42OTJIMTQuNDRhLjgxNC44MTQsMCwxLDAsMCwxLjYyN2gzLjI1MmEuODE0LjgxNCwwLDAsMCwwLTEuNjI3WiIvPjxwYXRoIGNsYXNzPSJjbHMtMiIgZD0iTTE3LjY5MiwyOS4xODhIMTYuMDM4YS44MTQuODE0LDAsMCwwLDAsMS42MjdoMS42NTRhLjgxNC44MTQsMCwwLDAsMC0xLjYyN1oiLz48cG9seWdvbiBjbGFzcz0iY2xzLTIiIHBvaW50cz0iMzEuMTM2IDM2LjE3NSAyOS44MSAzNC42NjYgMjguODk1IDM1LjU4MSAzMS4xMzYgMzguMDUgMzUuMzg4IDMzLjExMSAzNC40NzQgMzIuMTk3IDMxLjEzNiAzNi4xNzUiLz48cGF0aCBjbGFzcz0iY2xzLTIiIGQ9Ik0zMi4zMTksMjkuMTg4QTUuNjgyLDUuNjgyLDAsMSwwLDM4LDM0Ljg3LDUuNjgyLDUuNjgyLDAsMCwwLDMyLjMxOSwyOS4xODhabTAsMTAuMTQ2YTQuNDY0LDQuNDY0LDAsMSwxLDQuNDY0LTQuNDY0QTQuNDY5LDQuNDY5LDAsMCwxLDMyLjMxOSwzOS4zMzRaIi8+PHBhdGggY2xhc3M9ImNscy0zIiBkPSJNMzYuMzc5LDE5LjQ0OUgyMS43NjVhMS42MjEsMS42MjEsMCwwLDAtMS42MjEsMS42MjF2OS43NDZhMS42MiwxLjYyLDAsMCwwLDEuNjIxLDEuNjJoMy43MjZhNy4zMjQsNy4zMjQsMCwwLDEsLjc4Ny0xLjYyMUgyMi44NjVsMy4wNjEtMi4wNGEuNjA5LjYwOSwwLDEsMC0uNjc2LTEuMDEybC0zLjQ4MiwyLjMyMywwLTguMDM4LDYuMTQxLDQuMDk0YTIuMSwyLjEsMCwwLDAsMi4zMywwbDYuMTQtNC4wOTQsMCw2Ljc0M0E3LjMyMSw3LjMyMSwwLDAsMSwzOCwzMC4zVjIxLjA3QTEuNjIxLDEuNjIxLDAsMCwwLDM2LjM3OSwxOS40NDlabS03LjA0Miw1LjM0MmEuNDcyLjQ3MiwwLDAsMS0uNTI5LDBsLTUuNTgtMy43MTlIMzQuOTE0WiIvPjwvc3ZnPg==;" vertex="1" parent="KJaW32-MUoOeKXqnR98N-133">
          <mxGeometry x="435.4952976030164" y="13" width="48" height="48" as="geometry" />
        </mxCell>
        <mxCell id="KJaW32-MUoOeKXqnR98N-140" style="edgeStyle=elbowEdgeStyle;rounded=0;orthogonalLoop=1;jettySize=auto;html=1;endArrow=none;endFill=0;strokeWidth=1.5;strokeColor=#188918;dashed=1;entryX=0.5;entryY=0;entryDx=0;entryDy=0;startArrow=classic;startFill=1;" edge="1" parent="1">
          <mxGeometry relative="1" as="geometry">
            <mxPoint x="255" y="-507.78999999999996" as="targetPoint" />
            <mxPoint x="252" y="-590" as="sourcePoint" />
            <Array as="points">
              <mxPoint x="252" y="-500" />
            </Array>
          </mxGeometry>
        </mxCell>
        <mxCell id="KJaW32-MUoOeKXqnR98N-142" value="" style="edgeLabel;html=1;align=center;verticalAlign=middle;resizable=0;points=[];rounded=1;strokeColor=#188918;strokeWidth=1.5;arcSize=16;fontFamily=Helvetica;fontSize=10;fontColor=#188918;fontStyle=1;fillColor=#F5FAE5;" vertex="1" connectable="0" parent="KJaW32-MUoOeKXqnR98N-140">
          <mxGeometry x="0.0095" y="-4" relative="1" as="geometry">
            <mxPoint as="offset" />
          </mxGeometry>
        </mxCell>
        <mxCell id="KJaW32-MUoOeKXqnR98N-178" style="edgeStyle=orthogonalEdgeStyle;rounded=0;orthogonalLoop=1;jettySize=auto;html=1;dashed=1;strokeColor=#188918;strokeWidth=1.5;align=center;verticalAlign=middle;fontFamily=Helvetica;fontSize=11;fontColor=default;labelBackgroundColor=default;startArrow=classic;startFill=1;endArrow=classic;endFill=1;" edge="1" parent="1" source="KJaW32-MUoOeKXqnR98N-143" target="KJaW32-MUoOeKXqnR98N-149">
          <mxGeometry relative="1" as="geometry" />
        </mxCell>
        <mxCell id="KJaW32-MUoOeKXqnR98N-143" value="&lt;span style=&quot;text-wrap-mode: nowrap;&quot;&gt;Criação&lt;/span&gt;" style="rounded=1;whiteSpace=wrap;html=1;strokeColor=#188918;strokeWidth=1.5;arcSize=16;fillColor=#F5FAE5;perimeterSpacing=0;absoluteArcSize=1;fontColor=#188918;fontSize=10;fontStyle=1" vertex="1" parent="1">
          <mxGeometry x="228" y="-507.78999999999996" width="50" height="15.79" as="geometry" />
        </mxCell>
        <mxCell id="KJaW32-MUoOeKXqnR98N-186" style="edgeStyle=orthogonalEdgeStyle;rounded=0;orthogonalLoop=1;jettySize=auto;html=1;" edge="1" parent="1" source="KJaW32-MUoOeKXqnR98N-180" target="KJaW32-MUoOeKXqnR98N-185">
          <mxGeometry relative="1" as="geometry" />
        </mxCell>
        <mxCell id="KJaW32-MUoOeKXqnR98N-188" value="" style="endArrow=none;html=1;strokeColor=#188918;bendable=1;rounded=0;endFill=0;endSize=4;strokeWidth=1.5;startSize=4;startArrow=classic;startFill=1;entryX=0.04;entryY=0.52;entryDx=0;entryDy=0;entryPerimeter=0;align=center;verticalAlign=middle;fontFamily=Helvetica;fontSize=11;fontColor=default;labelBackgroundColor=default;" edge="1" parent="1">
          <mxGeometry width="50" height="50" relative="1" as="geometry">
            <mxPoint x="884.5" y="-778.22" as="sourcePoint" />
            <mxPoint x="906.5" y="-778.22" as="targetPoint" />
            <Array as="points" />
          </mxGeometry>
        </mxCell>
        <mxCell id="KJaW32-MUoOeKXqnR98N-189" value="&lt;div style=&quot;font-size: 10px; line-height: 100%;&quot;&gt;&lt;span style=&quot;font-family: arial; font-size: 10px; background-color: initial;&quot;&gt;&lt;font style=&quot;font-size: 10px;&quot;&gt;Async&lt;/font&gt;&lt;/span&gt;&lt;/div&gt;" style="text;html=1;align=left;verticalAlign=middle;resizable=0;points=[];autosize=1;strokeColor=none;fillColor=none;fontSize=10;fontColor=#1D2D3E;fontFamily=Helvetica;labelPosition=center;verticalLabelPosition=middle;" vertex="1" parent="1">
          <mxGeometry x="915.5" y="-788.5" width="50" height="20" as="geometry" />
        </mxCell>
        <mxCell id="KJaW32-MUoOeKXqnR98N-196" value="Impostos" style="strokeColor=#0070F2;shadow=0;strokeWidth=1.5;rounded=1;absoluteArcSize=1;arcSize=20;align=left;fontSize=16;fontStyle=1;spacingLeft=15;spacing=0;container=1;collapsible=0;fontColor=#1D2D3E;" vertex="1" parent="1">
          <mxGeometry x="142.95999999999998" y="-91" width="624.08" height="90" as="geometry" />
        </mxCell>
        <mxCell id="KJaW32-MUoOeKXqnR98N-197" style="edgeStyle=orthogonalEdgeStyle;rounded=0;orthogonalLoop=1;jettySize=auto;html=1;entryX=0;entryY=0.5;entryDx=0;entryDy=0;" edge="1" parent="KJaW32-MUoOeKXqnR98N-196" source="KJaW32-MUoOeKXqnR98N-198" target="KJaW32-MUoOeKXqnR98N-201">
          <mxGeometry relative="1" as="geometry" />
        </mxCell>
        <mxCell id="KJaW32-MUoOeKXqnR98N-198" value="" style="shape=image;verticalLabelPosition=bottom;verticalAlign=top;imageAspect=0;aspect=fixed;image=data:image/svg+xml,PHN2ZyB4bWxucz0iaHR0cDovL3d3dy53My5vcmcvMjAwMC9zdmciIGlkPSJpbnZvaWNlLW9iamVjdC1yZWNvbW1lbmRhdGlvbiIgdmlld0JveD0iNC4wMDAwMDE5MDczNDg2MzMgMy45OTk5OTkwNDYzMjU2ODM2IDQ4IDQ3Ljk5OTk5NjE4NTMwMjczNCIgd2lkdGg9IjQ4IiBoZWlnaHQ9IjQ3Ljk5OTk5NjE4NTMwMjczNCI+PGRlZnM+PHN0eWxlPi5jbHMtMXtmaWxsOiMwNzRkOTI7fS5jbHMtMntmaWxsOiMwNTNiNzA7fS5jbHMtM3tmaWxsOiMwYTZlZDE7fTwvc3R5bGU+PC9kZWZzPjx0aXRsZT5pbnZvaWNlLW9iamVjdC1yZWNvbW1lbmRhdGlvbl9jaXJjbGU8L3RpdGxlPjxwYXRoIGNsYXNzPSJjbHMtMSIgZD0iTTI4LDZBMjIsMjIsMCwxLDEsNiwyOCwyMi4wMjUsMjIuMDI1LDAsMCwxLDI4LDZtMC0yQTI0LDI0LDAsMSwwLDUyLDI4LDI0LDI0LDAsMCwwLDI4LDRaIi8+PHBhdGggY2xhc3M9ImNscy0yIiBkPSJNMjQuNzUsMjQuNzVIMTkuODc1YS44MTMuODEzLDAsMSwwLDAsMS42MjVIMjQuNzVhLjgxMy44MTMsMCwwLDAsMC0xLjYyNVoiLz48cGF0aCBjbGFzcz0iY2xzLTIiIGQ9Ik0yNC43NSwyOEgxOS44NzVhLjgxMy44MTMsMCwxLDAsMCwxLjYyNUgyNC43NWEuODEzLjgxMywwLDAsMCwwLTEuNjI1WiIvPjxwYXRoIGNsYXNzPSJjbHMtMiIgZD0iTTI0Ljc1LDMxLjI1SDE5Ljg3NWEuODEzLjgxMywwLDEsMCwwLDEuNjI1SDI0Ljc1YS44MTMuODEzLDAsMCwwLDAtMS42MjVaIi8+PHBhdGggY2xhc3M9ImNscy0yIiBkPSJNMjcuMTg3LDE2LjYyNUgyMC43MzhMMTUuODEyLDIxLjVWMzcuNzVhMS41NjYsMS41NjYsMCwwLDAsMS42MjUsMS42MjVoOS43NVYzNy43NWgtOS43NVYyMy4xMjVoMy4yNWExLjY3MSwxLjY3MSwwLDAsMCwxLjE5NC0uNDU3LDEuNTQ0LDEuNTQ0LDAsMCwwLC40ODItMS4xNjhWMTguMjVoNC44MjRaIi8+PHBhdGggY2xhc3M9ImNscy0zIiBkPSJNMzkuNzA1LDE3LjA4MmExLjYwNiwxLjYwNiwwLDAsMC0xLjE0My0uNDU3aC05Ljc1VjE1SDI3LjE4N1Y0MWgxLjYyNVYzOS4zNzVoOS43NWExLjU2NiwxLjU2NiwwLDAsMCwxLjYyNi0xLjYyNVYxOC4yNUExLjU0MywxLjU0MywwLDAsMCwzOS43MDUsMTcuMDgyWk0zOC41NjIsMzcuNzVoLTkuNzVWMTguMjVoOS43NVoiLz48cGF0aCBjbGFzcz0iY2xzLTMiIGQ9Ik0yOS43MzMsMjkuMjQ0bDMsMy41MjVhLjMxMS4zMTEsMCwwLDAsLjI4OC4xLjMuMywwLDAsMCwuMjQtLjE3OGw0LjQzOS02LjlhLjMyMy4zMjMsMCwwLDAtLjA0OC0uNDA2bC0uNTI4LS41MzJhLjMuMywwLDAsMC0uMjc2LS4xLjI5NC4yOTQsMCwwLDAtLjIyOC4xNzhsLTMuNSw1LjI1YS4yOTQuMjk0LDAsMCwxLS4yMjguMi4zLjMsMCwwLDEtLjI3Ni0uMWwtMS45Mi0yLjAyOXEtLjIxNi0uMjU1LS40NTYsMGwtLjUuNTMyQS4zLjMsMCwwLDAsMjkuNzMzLDI5LjI0NFoiLz48L3N2Zz4=;" vertex="1" parent="KJaW32-MUoOeKXqnR98N-196">
          <mxGeometry x="191.77970374360353" y="13" width="48" height="48" as="geometry" />
        </mxCell>
        <mxCell id="KJaW32-MUoOeKXqnR98N-199" value="Armazena Banco" style="shape=image;verticalLabelPosition=bottom;verticalAlign=top;imageAspect=0;aspect=fixed;image=data:image/svg+xml,PHN2ZyB4bWxucz0iaHR0cDovL3d3dy53My5vcmcvMjAwMC9zdmciIGlkPSJtb25nb0RCIiB2aWV3Qm94PSI0LjAwMDAwMTkwNzM0ODYzMyAzLjk5OTk5OTA0NjMyNTY4MzYgNDggNDcuOTk5OTk2MTg1MzAyNzM0IiB3aWR0aD0iNDgiIGhlaWdodD0iNDcuOTk5OTk2MTg1MzAyNzM0Ij48ZGVmcz48c3R5bGU+LmNscy0xe2ZpbGw6IzA3NGQ5Mjt9LmNscy0ye2ZpbGw6IzA1M2I3MDt9LmNscy0ze2ZpbGw6IzBhNmVkMTt9PC9zdHlsZT48L2RlZnM+PHRpdGxlPm1vbmdvREJfY2lyY2xlPC90aXRsZT48cGF0aCBjbGFzcz0iY2xzLTEiIGQ9Ik0yOCw2QTIyLDIyLDAsMSwxLDYsMjgsMjIuMDI1LDIyLjAyNSwwLDAsMSwyOCw2bTAtMkEyNCwyNCwwLDEsMCw1MiwyOCwyNCwyNCwwLDAsMCwyOCw0WiIvPjxwYXRoIGNsYXNzPSJjbHMtMiIgZD0iTTM3LjY4NCwxNi44YTYuMDMzLDYuMDMzLDAsMCwwLTIuMTc2LTEuNTE3QTE5LjIxNCwxOS4yMTQsMCwwLDAsMjgsMTRhMTkuMjE0LDE5LjIxNCwwLDAsMC03LjUwOCwxLjI4M0E2LjAzMyw2LjAzMywwLDAsMCwxOC4zMTYsMTYuOGEzLjAzOCwzLjAzOCwwLDAsMC0uODE2LDIuMDQyVjM3LjFhMi45MzYsMi45MzYsMCwwLDAsLjgxNiwyLjA0Miw2LjAyLDYuMDIsMCwwLDAsMi4xNzYsMS41MTZBMTguMTEsMTguMTEsMCwwLDAsMjgsNDJhMTkuMjE0LDE5LjIxNCwwLDAsMCw3LjUwOC0xLjI4M0E2LjAzMyw2LjAzMywwLDAsMCwzNy42ODQsMzkuMmEzLjE1MiwzLjE1MiwwLDAsMCwuODE2LTIuMDQyVjE4Ljg0MkEzLjAzOCwzLjAzOCwwLDAsMCwzNy42ODQsMTYuOFptLS45MjUsMjAuMzU4YzAsLjctLjgxNiwxLjQtMi4yMzEsMS45MjVBMTguNzcsMTguNzcsMCwwLDEsMjgsNDAuMDc1YTE4Ljc3LDE4Ljc3LDAsMCwxLTYuNTI4LS45OTJDMjAuMTExLDM4LjU1OCwxOS4zLDM3LjgsMTkuMywzNy4xNThWMzMuOTVhMTAsMTAsMCwwLDAsMy4yMSwxLjQsMjIuMDkzLDIyLjA5MywwLDAsMCw1LjUuNjQyLDIyLjg3LDIyLjg3LDAsMCwwLDUuNTQ5LS42NDIsOS44MTksOS44MTksMCwwLDAsMy4yNjQtMS40djMuMjA4Wm0wLTYuMTI1YzAsLjctLjgxNiwxLjQtMi4yMzEsMS45MjVBMTguNzcsMTguNzcsMCwwLDEsMjgsMzMuOTVhMTguNzcsMTguNzcsMCwwLDEtNi41MjgtLjk5MmMtMS4zNjEtLjUyNS0yLjE3Ny0xLjI4My0yLjE3Ny0xLjkyNXYtMy4xNWE5Ljk4Miw5Ljk4MiwwLDAsMCwzLjIxLDEuMzQyLDIyLjI2MywyMi4yNjMsMCwwLDAsNS41LjU4M2MzLjgwOCwwLDYuOTY0LS43LDguNzU5LTEuOTgzWk0zNC41MjgsMjAuODI1QTE4Ljc3LDE4Ljc3LDAsMCwxLDI4LDIxLjgxN2ExOC43NywxOC43NywwLDAsMS02LjUyOC0uOTkyYy0xLjM2MS0uNTgzLTIuMTc3LTEuMjgzLTIuMTc3LTEuOTgzLDAtMS4yMjUsMy4wNDctMi45MTcsOC43LTIuOTE3LDUuNzEyLDAsOC43NTksMS42OTIsOC43NTksMi45MTdDMzYuNzU5LDE5LjU0MiwzNS45NDMsMjAuMjQyLDM0LjUyOCwyMC44MjVaIi8+PHBhdGggY2xhc3M9ImNscy0zIiBkPSJNMzYuNzMyLDE4Ljg0MmMwLC43LS44MTYsMS40LTIuMjMxLDEuOTgzYTE4Ljc3LDE4Ljc3LDAsMCwxLTYuNTI4Ljk5MiwxOC43NzYsMTguNzc2LDAsMCwxLTYuNTI5LS45OTJjLTEuMzYtLjU4My0yLjE3Ni0xLjI4My0yLjE3Ni0xLjk4M3Y5LjA0MWE5Ljk4Miw5Ljk4MiwwLDAsMCwzLjIxLDEuMzQyLDIyLjI1NywyMi4yNTcsMCwwLDAsNS40OTUuNTgzYzMuODA4LDAsNi45NjQtLjcsOC43NTktMS45ODNaIi8+PC9zdmc+;" vertex="1" parent="KJaW32-MUoOeKXqnR98N-196">
          <mxGeometry x="551.0501050363588" y="13" width="48" height="48" as="geometry" />
        </mxCell>
        <mxCell id="KJaW32-MUoOeKXqnR98N-200" style="edgeStyle=orthogonalEdgeStyle;rounded=0;orthogonalLoop=1;jettySize=auto;html=1;entryX=0;entryY=0.5;entryDx=0;entryDy=0;" edge="1" parent="KJaW32-MUoOeKXqnR98N-196" source="KJaW32-MUoOeKXqnR98N-201" target="KJaW32-MUoOeKXqnR98N-203">
          <mxGeometry relative="1" as="geometry" />
        </mxCell>
        <mxCell id="KJaW32-MUoOeKXqnR98N-201" value="NCM" style="shape=image;verticalLabelPosition=bottom;verticalAlign=top;imageAspect=0;aspect=fixed;image=data:image/svg+xml,PHN2ZyB4bWxucz0iaHR0cDovL3d3dy53My5vcmcvMjAwMC9zdmciIGlkPSJzZXJ2aWNlLXRpY2tldC1pbnRlbGxpZ2VuY2UiIHZpZXdCb3g9IjQuMDAwMDAxOTA3MzQ4NjMzIDMuOTk5OTk5MDQ2MzI1NjgzNiA0OCA0Ny45OTk5OTYxODUzMDI3MzQiIHdpZHRoPSI0OCIgaGVpZ2h0PSI0Ny45OTk5OTYxODUzMDI3MzQiPjxkZWZzPjxzdHlsZT4uY2xzLTF7ZmlsbDojMDc0ZDkyO30uY2xzLTJ7ZmlsbDojMDUzYjcwO30uY2xzLTN7ZmlsbDojMGE2ZWQxO308L3N0eWxlPjwvZGVmcz48dGl0bGU+c2VydmljZS10aWNrZXQtaW50ZWxsaWdlbmNlX2NpcmNsZTwvdGl0bGU+PHBhdGggY2xhc3M9ImNscy0xIiBkPSJNMjgsNkEyMiwyMiwwLDEsMSw2LDI4LDIyLjAyNSwyMi4wMjUsMCwwLDEsMjgsNm0wLTJBMjQsMjQsMCwxLDAsNTIsMjgsMjQsMjQsMCwwLDAsMjgsNFoiLz48cGF0aCBjbGFzcz0iY2xzLTIiIGQ9Ik0xNi44NzksMjYuNzUyYS44MTMuODEzLDAsMCwwLS44MTMtLjgxM0gxMi44MTNhLjgxMy44MTMsMCwxLDAsMCwxLjYyNmgzLjI1M0EuODEzLjgxMywwLDAsMCwxNi44NzksMjYuNzUyWiIvPjxwYXRoIGNsYXNzPSJjbHMtMiIgZD0iTTE3LjY5MiwyMi42OTJIMTQuNDRhLjgxNC44MTQsMCwxLDAsMCwxLjYyN2gzLjI1MmEuODE0LjgxNCwwLDAsMCwwLTEuNjI3WiIvPjxwYXRoIGNsYXNzPSJjbHMtMiIgZD0iTTE3LjY5MiwyOS4xODhIMTYuMDM4YS44MTQuODE0LDAsMCwwLDAsMS42MjdoMS42NTRhLjgxNC44MTQsMCwwLDAsMC0xLjYyN1oiLz48cG9seWdvbiBjbGFzcz0iY2xzLTIiIHBvaW50cz0iMzEuMTM2IDM2LjE3NSAyOS44MSAzNC42NjYgMjguODk1IDM1LjU4MSAzMS4xMzYgMzguMDUgMzUuMzg4IDMzLjExMSAzNC40NzQgMzIuMTk3IDMxLjEzNiAzNi4xNzUiLz48cGF0aCBjbGFzcz0iY2xzLTIiIGQ9Ik0zMi4zMTksMjkuMTg4QTUuNjgyLDUuNjgyLDAsMSwwLDM4LDM0Ljg3LDUuNjgyLDUuNjgyLDAsMCwwLDMyLjMxOSwyOS4xODhabTAsMTAuMTQ2YTQuNDY0LDQuNDY0LDAsMSwxLDQuNDY0LTQuNDY0QTQuNDY5LDQuNDY5LDAsMCwxLDMyLjMxOSwzOS4zMzRaIi8+PHBhdGggY2xhc3M9ImNscy0zIiBkPSJNMzYuMzc5LDE5LjQ0OUgyMS43NjVhMS42MjEsMS42MjEsMCwwLDAtMS42MjEsMS42MjF2OS43NDZhMS42MiwxLjYyLDAsMCwwLDEuNjIxLDEuNjJoMy43MjZhNy4zMjQsNy4zMjQsMCwwLDEsLjc4Ny0xLjYyMUgyMi44NjVsMy4wNjEtMi4wNGEuNjA5LjYwOSwwLDEsMC0uNjc2LTEuMDEybC0zLjQ4MiwyLjMyMywwLTguMDM4LDYuMTQxLDQuMDk0YTIuMSwyLjEsMCwwLDAsMi4zMywwbDYuMTQtNC4wOTQsMCw2Ljc0M0E3LjMyMSw3LjMyMSwwLDAsMSwzOCwzMC4zVjIxLjA3QTEuNjIxLDEuNjIxLDAsMCwwLDM2LjM3OSwxOS40NDlabS03LjA0Miw1LjM0MmEuNDcyLjQ3MiwwLDAsMS0uNTI5LDBsLTUuNTgtMy43MTlIMzQuOTE0WiIvPjwvc3ZnPg==;" vertex="1" parent="KJaW32-MUoOeKXqnR98N-196">
          <mxGeometry x="319.94049016967415" y="13" width="48" height="48" as="geometry" />
        </mxCell>
        <mxCell id="KJaW32-MUoOeKXqnR98N-202" style="edgeStyle=orthogonalEdgeStyle;rounded=0;orthogonalLoop=1;jettySize=auto;html=1;" edge="1" parent="KJaW32-MUoOeKXqnR98N-196" source="KJaW32-MUoOeKXqnR98N-203" target="KJaW32-MUoOeKXqnR98N-199">
          <mxGeometry relative="1" as="geometry" />
        </mxCell>
        <mxCell id="KJaW32-MUoOeKXqnR98N-203" value="Origem/Destino" style="shape=image;verticalLabelPosition=bottom;verticalAlign=top;imageAspect=0;aspect=fixed;image=data:image/svg+xml,PHN2ZyB4bWxucz0iaHR0cDovL3d3dy53My5vcmcvMjAwMC9zdmciIGlkPSJzZXJ2aWNlLXRpY2tldC1pbnRlbGxpZ2VuY2UiIHZpZXdCb3g9IjQuMDAwMDAxOTA3MzQ4NjMzIDMuOTk5OTk5MDQ2MzI1NjgzNiA0OCA0Ny45OTk5OTYxODUzMDI3MzQiIHdpZHRoPSI0OCIgaGVpZ2h0PSI0Ny45OTk5OTYxODUzMDI3MzQiPjxkZWZzPjxzdHlsZT4uY2xzLTF7ZmlsbDojMDc0ZDkyO30uY2xzLTJ7ZmlsbDojMDUzYjcwO30uY2xzLTN7ZmlsbDojMGE2ZWQxO308L3N0eWxlPjwvZGVmcz48dGl0bGU+c2VydmljZS10aWNrZXQtaW50ZWxsaWdlbmNlX2NpcmNsZTwvdGl0bGU+PHBhdGggY2xhc3M9ImNscy0xIiBkPSJNMjgsNkEyMiwyMiwwLDEsMSw2LDI4LDIyLjAyNSwyMi4wMjUsMCwwLDEsMjgsNm0wLTJBMjQsMjQsMCwxLDAsNTIsMjgsMjQsMjQsMCwwLDAsMjgsNFoiLz48cGF0aCBjbGFzcz0iY2xzLTIiIGQ9Ik0xNi44NzksMjYuNzUyYS44MTMuODEzLDAsMCwwLS44MTMtLjgxM0gxMi44MTNhLjgxMy44MTMsMCwxLDAsMCwxLjYyNmgzLjI1M0EuODEzLjgxMywwLDAsMCwxNi44NzksMjYuNzUyWiIvPjxwYXRoIGNsYXNzPSJjbHMtMiIgZD0iTTE3LjY5MiwyMi42OTJIMTQuNDRhLjgxNC44MTQsMCwxLDAsMCwxLjYyN2gzLjI1MmEuODE0LjgxNCwwLDAsMCwwLTEuNjI3WiIvPjxwYXRoIGNsYXNzPSJjbHMtMiIgZD0iTTE3LjY5MiwyOS4xODhIMTYuMDM4YS44MTQuODE0LDAsMCwwLDAsMS42MjdoMS42NTRhLjgxNC44MTQsMCwwLDAsMC0xLjYyN1oiLz48cG9seWdvbiBjbGFzcz0iY2xzLTIiIHBvaW50cz0iMzEuMTM2IDM2LjE3NSAyOS44MSAzNC42NjYgMjguODk1IDM1LjU4MSAzMS4xMzYgMzguMDUgMzUuMzg4IDMzLjExMSAzNC40NzQgMzIuMTk3IDMxLjEzNiAzNi4xNzUiLz48cGF0aCBjbGFzcz0iY2xzLTIiIGQ9Ik0zMi4zMTksMjkuMTg4QTUuNjgyLDUuNjgyLDAsMSwwLDM4LDM0Ljg3LDUuNjgyLDUuNjgyLDAsMCwwLDMyLjMxOSwyOS4xODhabTAsMTAuMTQ2YTQuNDY0LDQuNDY0LDAsMSwxLDQuNDY0LTQuNDY0QTQuNDY5LDQuNDY5LDAsMCwxLDMyLjMxOSwzOS4zMzRaIi8+PHBhdGggY2xhc3M9ImNscy0zIiBkPSJNMzYuMzc5LDE5LjQ0OUgyMS43NjVhMS42MjEsMS42MjEsMCwwLDAtMS42MjEsMS42MjF2OS43NDZhMS42MiwxLjYyLDAsMCwwLDEuNjIxLDEuNjJoMy43MjZhNy4zMjQsNy4zMjQsMCwwLDEsLjc4Ny0xLjYyMUgyMi44NjVsMy4wNjEtMi4wNGEuNjA5LjYwOSwwLDEsMC0uNjc2LTEuMDEybC0zLjQ4MiwyLjMyMywwLTguMDM4LDYuMTQxLDQuMDk0YTIuMSwyLjEsMCwwLDAsMi4zMywwbDYuMTQtNC4wOTQsMCw2Ljc0M0E3LjMyMSw3LjMyMSwwLDAsMSwzOCwzMC4zVjIxLjA3QTEuNjIxLDEuNjIxLDAsMCwwLDM2LjM3OSwxOS40NDlabS03LjA0Miw1LjM0MmEuNDcyLjQ3MiwwLDAsMS0uNTI5LDBsLTUuNTgtMy43MTlIMzQuOTE0WiIvPjwvc3ZnPg==;" vertex="1" parent="KJaW32-MUoOeKXqnR98N-196">
          <mxGeometry x="435.4952976030164" y="13" width="48" height="48" as="geometry" />
        </mxCell>
        <mxCell id="KJaW32-MUoOeKXqnR98N-220" value="" style="strokeColor=#0070F2;shadow=0;strokeWidth=2;rounded=1;absoluteArcSize=1;arcSize=20;whiteSpace=wrap;verticalAlign=bottom;spacing=10;fontSize=10;fontColor=#556B82;align=left;container=0;" vertex="1" parent="1">
          <mxGeometry x="846.29" y="-320" width="270.75" height="190" as="geometry" />
        </mxCell>
        <mxCell id="KJaW32-MUoOeKXqnR98N-221" value="&lt;span style=&quot;font-family: Helvetica; font-style: normal; font-variant-ligatures: normal; font-variant-caps: normal; font-weight: 700; letter-spacing: normal; orphans: 2; text-indent: 0px; text-transform: none; widows: 2; word-spacing: 0px; -webkit-text-stroke-width: 0px; text-decoration-thickness: initial; text-decoration-style: initial; text-decoration-color: initial; float: none; font-size: 10px; display: inline !important;&quot;&gt;&lt;font style=&quot;font-size: 10px;&quot;&gt;SAP S/4HANA&lt;/font&gt;&lt;/span&gt;" style="text;whiteSpace=wrap;html=1;align=left;container=0;verticalAlign=middle;fontColor=#1D2D3E;fontSize=10;" vertex="1" parent="1">
          <mxGeometry x="857.29" y="-227.27548352551185" width="102.09375000000001" height="24.57146471685887" as="geometry" />
        </mxCell>
        <mxCell id="KJaW32-MUoOeKXqnR98N-222" value="&lt;span style=&quot;font-family: Helvetica; font-style: normal; font-variant-ligatures: normal; font-variant-caps: normal; font-weight: 700; letter-spacing: normal; orphans: 2; text-indent: 0px; text-transform: none; widows: 2; word-spacing: 0px; -webkit-text-stroke-width: 0px; text-decoration-thickness: initial; text-decoration-style: initial; text-decoration-color: initial; float: none; font-size: 10px; display: inline !important;&quot;&gt;&lt;font style=&quot;font-size: 10px;&quot;&gt;SAP SuccessFactors&lt;/font&gt;&lt;/span&gt;" style="text;whiteSpace=wrap;html=1;align=left;container=0;verticalAlign=middle;fontColor=#1D2D3E;fontSize=10;" vertex="1" parent="1">
          <mxGeometry x="857.29" y="-207.17155784808176" width="151.25" height="24.57146471685887" as="geometry" />
        </mxCell>
        <mxCell id="KJaW32-MUoOeKXqnR98N-224" value="&lt;span style=&quot;color: rgb(0, 0, 0); font-family: Helvetica; font-size: 16px; font-style: normal; font-variant-ligatures: normal; font-variant-caps: normal; font-weight: 700; letter-spacing: normal; orphans: 2; text-align: left; text-indent: 0px; text-transform: none; widows: 2; word-spacing: 0px; -webkit-text-stroke-width: 0px; white-space: nowrap; background-color: rgb(255, 255, 255); text-decoration-thickness: initial; text-decoration-style: initial; text-decoration-color: initial; display: inline !important; float: none;&quot;&gt;Monitor&lt;/span&gt;" style="text;whiteSpace=wrap;html=1;" vertex="1" parent="1">
          <mxGeometry x="917.54" y="-310" width="164" height="40" as="geometry" />
        </mxCell>
        <mxCell id="KJaW32-MUoOeKXqnR98N-225" value="SAP Fieldglass" style="text;html=1;align=left;verticalAlign=middle;resizable=0;points=[];autosize=1;strokeColor=none;fillColor=none;fontSize=10;fontColor=#1A2733;fontFamily=Helvetica;fontStyle=1" vertex="1" parent="1">
          <mxGeometry x="856.29" y="-186.89" width="90" height="30" as="geometry" />
        </mxCell>
        <mxCell id="KJaW32-MUoOeKXqnR98N-226" value="" style="shape=image;verticalLabelPosition=bottom;labelBackgroundColor=default;verticalAlign=top;aspect=fixed;imageAspect=0;image=data:image/svg+xml,PHN2ZyB4bWxucz0iaHR0cDovL3d3dy53My5vcmcvMjAwMC9zdmciIGZpbGw9Im5vbmUiIHZpZXdCb3g9IjAgMCAxNiAxNiIgaGVpZ2h0PSIxNiIgd2lkdGg9IjE2Ij4mI3hhOzxwYXRoIGZpbGw9IiMxRDJEM0UiIGQ9Ik0xMi41NTEyIDUuMjQyMzJDMTAuODU3MiA0Ljk1MzA0IDEwLjMxNTEgMy42MDQ3MiAxMC4xMzYgMi43NjE0MUMxMC4xMTY2IDIuNjc4MDYgMTAuMDEwMSAyLjY4Mjk3IDkuOTk1NjIgMi43NjYzMkM5LjcxMDA2IDQuNDgyMzYgOC4zNzkwMyA1LjAzMTQ5IDcuNTQ2NTMgNS4yMTI5QzcuNDY0MjUgNS4yMzI1MSA3LjQ2OTA5IDUuMzQwMzggNy41NTEzNyA1LjM1NTA5QzkuMjQ1NDEgNS42NDQzNiA5Ljc4NzUgNi45OTI2OCA5Ljk2NjU4IDcuODM1OTlDOS45ODU5NCA3LjkxOTM0IDEwLjA5MjQgNy45MTQ0NCAxMC4xMDY5IDcuODMxMDlDMTAuMzkyNSA2LjExNTA1IDExLjcyMzUgNS41NjU5MSAxMi41NTYgNS4zODQ1QzEyLjYzODMgNS4zNjQ4OSAxMi42MzM1IDUuMjU3MDMgMTIuNTUxMiA1LjI0MjMyWiIvPiYjeGE7PHBhdGggZmlsbD0iIzFEMkQzRSIgZD0iTTQuNDEwMjYgMEM0LjE2MzA3IDAgMy45MjkwNiAwLjExMjg4NCAzLjc3MzI1IDAuMzA3Mjc4TDAuMTgzNTExIDQuNzg2MThDLTAuMDUyMjA1NyA1LjA4MDI4IC0wLjA2MTc4MjUgNS40OTg2NCAwLjE2MDIyMyA1LjgwMzQ5TDcuMzM5NzEgMTUuNjYyMkM3LjQ5NDM4IDE1Ljg3NDYgNy43Mzk0NSAxNiA4IDE2QzguMjYwNTUgMTYgOC41MDU2MiAxNS44NzQ2IDguNjYwMjkgMTUuNjYyMkwxNS44Mzk4IDUuODAzNDlDMTYuMDYxOCA1LjQ5ODY0IDE2LjA1MjIgNS4wODAyOCAxNS44MTY1IDQuNzg2MThMMTIuMjI2NyAwLjMwNzI3OEMxMi4wNzA5IDAuMTEyODg0IDExLjgzNjkgMCAxMS41ODk3IDBINC40MTAyNlpNMS44NTc4NyA1LjMzNDQ0TDQuODAwOTggMS42NjIzNEgxMS4xOTlMMTQuMTQyMSA1LjMzNDQ0TDggMTMuNzY4N0wxLjg1Nzg3IDUuMzM0NDRaIiBjbGlwLXJ1bGU9ImV2ZW5vZGQiIGZpbGwtcnVsZT0iZXZlbm9kZCIvPiYjeGE7PC9zdmc+;" vertex="1" parent="1">
          <mxGeometry x="976.79" y="-222.99" width="16" height="16" as="geometry" />
        </mxCell>
        <mxCell id="KJaW32-MUoOeKXqnR98N-227" value="" style="shape=image;verticalLabelPosition=bottom;labelBackgroundColor=default;verticalAlign=top;aspect=fixed;imageAspect=0;image=data:image/svg+xml,PHN2ZyB4bWxucz0iaHR0cDovL3d3dy53My5vcmcvMjAwMC9zdmciIGZpbGw9Im5vbmUiIHZpZXdCb3g9IjAgMCAxNiAxNiIgaGVpZ2h0PSIxNiIgd2lkdGg9IjE2Ij4mI3hhOzxwYXRoIGZpbGw9IiMxRDJEM0UiIGQ9Ik0xMi41NTEyIDUuMjQyMzJDMTAuODU3MiA0Ljk1MzA0IDEwLjMxNTEgMy42MDQ3MiAxMC4xMzYgMi43NjE0MUMxMC4xMTY2IDIuNjc4MDYgMTAuMDEwMSAyLjY4Mjk3IDkuOTk1NjIgMi43NjYzMkM5LjcxMDA2IDQuNDgyMzYgOC4zNzkwMyA1LjAzMTQ5IDcuNTQ2NTMgNS4yMTI5QzcuNDY0MjUgNS4yMzI1MSA3LjQ2OTA5IDUuMzQwMzggNy41NTEzNyA1LjM1NTA5QzkuMjQ1NDEgNS42NDQzNiA5Ljc4NzUgNi45OTI2OCA5Ljk2NjU4IDcuODM1OTlDOS45ODU5NCA3LjkxOTM0IDEwLjA5MjQgNy45MTQ0NCAxMC4xMDY5IDcuODMxMDlDMTAuMzkyNSA2LjExNTA1IDExLjcyMzUgNS41NjU5MSAxMi41NTYgNS4zODQ1QzEyLjYzODMgNS4zNjQ4OSAxMi42MzM1IDUuMjU3MDMgMTIuNTUxMiA1LjI0MjMyWiIvPiYjeGE7PHBhdGggZmlsbD0iIzFEMkQzRSIgZD0iTTQuNDEwMjYgMEM0LjE2MzA3IDAgMy45MjkwNiAwLjExMjg4NCAzLjc3MzI1IDAuMzA3Mjc4TDAuMTgzNTExIDQuNzg2MThDLTAuMDUyMjA1NyA1LjA4MDI4IC0wLjA2MTc4MjUgNS40OTg2NCAwLjE2MDIyMyA1LjgwMzQ5TDcuMzM5NzEgMTUuNjYyMkM3LjQ5NDM4IDE1Ljg3NDYgNy43Mzk0NSAxNiA4IDE2QzguMjYwNTUgMTYgOC41MDU2MiAxNS44NzQ2IDguNjYwMjkgMTUuNjYyMkwxNS44Mzk4IDUuODAzNDlDMTYuMDYxOCA1LjQ5ODY0IDE2LjA1MjIgNS4wODAyOCAxNS44MTY1IDQuNzg2MThMMTIuMjI2NyAwLjMwNzI3OEMxMi4wNzA5IDAuMTEyODg0IDExLjgzNjkgMCAxMS41ODk3IDBINC40MTAyNlpNMS44NTc4NyA1LjMzNDQ0TDQuODAwOTggMS42NjIzNEgxMS4xOTlMMTQuMTQyMSA1LjMzNDQ0TDggMTMuNzY4N0wxLjg1Nzg3IDUuMzM0NDRaIiBjbGlwLXJ1bGU9ImV2ZW5vZGQiIGZpbGwtcnVsZT0iZXZlbm9kZCIvPiYjeGE7PC9zdmc+;" vertex="1" parent="1">
          <mxGeometry x="976.79" y="-202.7" width="16" height="16" as="geometry" />
        </mxCell>
        <mxCell id="KJaW32-MUoOeKXqnR98N-228" value="" style="shape=image;verticalLabelPosition=bottom;verticalAlign=top;imageAspect=0;aspect=fixed;image=data:image/svg+xml,PHN2ZyB4bWxucz0iaHR0cDovL3d3dy53My5vcmcvMjAwMC9zdmciIGlkPSJzY3AtbGF1bmNocGFkIiB2aWV3Qm94PSIzLjk5ODUxOTQyMDYyMzc3OTMgNi45OTc3Nzc0NjIwMDU2MTUgNDguMDAzNzA0MDcxMDQ0OTIgNDIuMDAyODE5MDYxMjc5MyIgd2lkdGg9IjQ4LjAwMzcwNDA3MTA0NDkyIiBoZWlnaHQ9IjQyLjAwMjgxOTA2MTI3OTMiPjxkZWZzPjxzdHlsZT4uY2xzLTF7ZmlsbDojMDAzYjc0O30uY2xzLTJ7ZmlsbDojMDA2ZGQ3O308L3N0eWxlPjwvZGVmcz48cGF0aCBjbGFzcz0iY2xzLTEiIGQ9Ik00OSw3YTIuODg5LDIuODg5LDAsMCwxLDMsM1Y0MGEyLjk1OSwyLjk1OSwwLDAsMS0uODQ0LDIuMTA5QTIuODM3LDIuODM3LDAsMCwxLDQ5LDQzSDdhMi44NzEsMi44NzEsMCwwLDEtMi4xMDktLjg5MUEyLjg3NiwyLjg3NiwwLDAsMSw0LDQwVjEwYTIuODM0LDIuODM0LDAsMCwxLC44OTEtMi4xNTZBMi45NTQsMi45NTQsMCwwLDEsNyw3Wm0wLDNIN1Y0MEg0OVpNMzguNSw0NkExLjMyNywxLjMyNywwLDAsMSw0MCw0Ny41YTEuNTA5LDEuNTA5LDAsMCwxLS40MjIsMS4wMzFBMS4zODEsMS4zODEsMCwwLDEsMzguNSw0OWgtMjFBMS42MTQsMS42MTQsMCwwLDEsMTYsNDcuNWExLjM4MSwxLjM4MSwwLDAsMSwuNDY5LTEuMDc4QTEuNTA1LDEuNTA1LDAsMCwxLDE3LjUsNDZaIi8+PHJlY3QgY2xhc3M9ImNscy0yIiB4PSIxMCIgeT0iMTMiIHdpZHRoPSIxNi41MTUiIGhlaWdodD0iMTUiIHJ4PSIxLjI1Ii8+PHJlY3QgY2xhc3M9ImNscy0yIiB4PSIyOS41IiB5PSIxMyIgd2lkdGg9IjE2LjUiIGhlaWdodD0iNiIgcng9IjEuMjUiLz48cmVjdCBjbGFzcz0iY2xzLTIiIHg9IjEwIiB5PSIzMSIgd2lkdGg9IjYuNzMiIGhlaWdodD0iNiIgcng9IjAuNSIvPjxyZWN0IGNsYXNzPSJjbHMtMiIgeD0iMTkuNzY1IiB5PSIzMSIgd2lkdGg9IjYuNzM1IiBoZWlnaHQ9IjYiIHJ4PSIwLjUiLz48cmVjdCBjbGFzcz0iY2xzLTIiIHg9IjI5LjUiIHk9IjMxIiB3aWR0aD0iNi43MzUiIGhlaWdodD0iNiIgcng9IjAuNSIvPjxyZWN0IGNsYXNzPSJjbHMtMiIgeD0iMzkuMjY1IiB5PSIzMSIgd2lkdGg9IjYuNzM1IiBoZWlnaHQ9IjYiIHJ4PSIwLjUiLz48cmVjdCBjbGFzcz0iY2xzLTIiIHg9IjI5LjUiIHk9IjIyIiB3aWR0aD0iNi43MzUiIGhlaWdodD0iNiIgcng9IjAuNSIvPjxyZWN0IGNsYXNzPSJjbHMtMiIgeD0iMzkuMjY1IiB5PSIyMiIgd2lkdGg9IjYuNzM1IiBoZWlnaHQ9IjYiIHJ4PSIwLjUiLz48L3N2Zz4=;" vertex="1" parent="1">
          <mxGeometry x="857.29" y="-310" width="48" height="42" as="geometry" />
        </mxCell>
        <mxCell id="KJaW32-MUoOeKXqnR98N-229" value="" style="strokeColor=#0070F2;shadow=0;strokeWidth=2;rounded=1;absoluteArcSize=1;arcSize=20;whiteSpace=wrap;verticalAlign=bottom;spacing=10;fontSize=10;fontColor=#556B82;align=left;container=0;" vertex="1" parent="1">
          <mxGeometry x="849.42" y="-110" width="267.62" height="117.4" as="geometry" />
        </mxCell>
        <mxCell id="KJaW32-MUoOeKXqnR98N-230" value="Log de Alteração" style="shape=image;verticalLabelPosition=bottom;verticalAlign=top;imageAspect=0;aspect=fixed;image=data:image/svg+xml,PHN2ZyB4bWxucz0iaHR0cDovL3d3dy53My5vcmcvMjAwMC9zdmciIGlkPSJhc2UiIHZpZXdCb3g9IjMuOTk5Mjg0NTA1ODQ0MTE2IDMuOTk5OTk5NTIzMTYyODQyIDQ4LjAwMDcyMDk3Nzc4MzIgNDguMDEzMzA1NjY0MDYyNSIgd2lkdGg9IjQ4LjAwMDcyMDk3Nzc4MzIiIGhlaWdodD0iNDguMDEzMzA1NjY0MDYyNSI+PGRlZnM+PHN0eWxlPi5jbHMtMXtmaWxsOiMwYTZlZDE7fS5jbHMtMntmaWxsOiMwNTNiNzA7fTwvc3R5bGU+PC9kZWZzPjx0aXRsZT5hc2U8L3RpdGxlPjxwYXRoIGNsYXNzPSJjbHMtMSIgZD0iTTQ4LjQ3MywyMC41MTJBMjIuNjM1LDIyLjYzNSwwLDAsMCwzOS42MjUsMTlhMjIuNjM1LDIyLjYzNSwwLDAsMC04Ljg0OCwxLjUxMkE3LjEsNy4xLDAsMCwwLDI4LjIxMiwyMi4zYTMuNTgsMy41OCwwLDAsMC0uOTYyLDIuNDA2VjQ2LjIyNWEzLjQ1NiwzLjQ1NiwwLDAsMCwuOTYyLDIuNDA2LDcuMDc4LDcuMDc4LDAsMCwwLDIuNTY1LDEuNzg4QTIxLjM0NSwyMS4zNDUsMCwwLDAsMzkuNjI1LDUyYTIyLjYzNSwyMi42MzUsMCwwLDAsOC44NDgtMS41MTJBNy4xLDcuMSwwLDAsMCw1MS4wMzgsNDguNywzLjcxMywzLjcxMywwLDAsMCw1Miw0Ni4yOTRWMjQuNzA2YTMuNTgsMy41OCwwLDAsMC0uOTYyLTIuNDA2QTcuMSw3LjEsMCwwLDAsNDguNDczLDIwLjUxMlptLjc3NywyNS43ODJjMCwuODI1LS4yNjQsMS4xNjgtMS45MzEsMS43ODdhMjIuMTM1LDIyLjEzNSwwLDAsMS03LjY5NCwxLjE2OSwyMi4xMzUsMjIuMTM1LDAsMCwxLTcuNjk0LTEuMTY5QzMwLjMyOCw0Ny40NjIsMzAsNDcuMDUsMzAsNDYuMjk0VjQyLjUxMmE4LjE4NCw4LjE4NCwwLDAsMCwzLjE0OSwxLjIzOCwyNi4wMjcsMjYuMDI3LDAsMCwwLDYuNDc2Ljc1NiwyNi45NDcsMjYuOTQ3LDAsMCwwLDYuNTQtLjc1Niw3LjQ2LDcuNDYsMCwwLDAsMy4wODUtMS4yMzhabTAtNy4yMTljMCwuODI1LS4yNjQsMS4zMDYtMS45MzEsMS45MjVhMjIuMTM1LDIyLjEzNSwwLDAsMS03LjY5NCwxLjE2OUEyMi4xMzUsMjIuMTM1LDAsMCwxLDMxLjkzMSw0MUMzMC4zMjgsNDAuMzgxLDMwLDM5LjgzMSwzMCwzOS4wNzVWMzUuMzYzYTguMjU0LDguMjU0LDAsMCwwLDMuMTQ5LDEuNTgxLDI2LjIyNiwyNi4yMjYsMCwwLDAsNi40NzYuNjg3YzQuNDg4LDAsNy41MDktLjgyNSw5LjYyNS0yLjMzN1ptLTIuMjA2LTEyLjFhMjAuNSwyMC41LDAsMCwxLTcuNDE5LDEuMTY5LDIwLjUsMjAuNSwwLDAsMS03LjQxOS0xLjE2OUMzMC42LDI2LjI4NywzMCwyNS41MzEsMzAsMjQuNzA2YzAtMS40NDQsMi45NTctMy4xNjIsOS42MjUtMy4xNjIsNi43MzIsMCw5LjYyNSwxLjcxOCw5LjYyNSwzLjE2MkM0OS4yNSwyNS41MzEsNDguNzExLDI2LjI4Nyw0Ny4wNDQsMjYuOTc1WiIvPjxwYXRoIGNsYXNzPSJjbHMtMiIgZD0iTTI0LjMsMjcuOTg2SDEyLjQxYTUuMzg3LDUuMzg3LDAsMCwxLTEuNjc1LTEwLjUxNWwyLjMwOC0uNzU5TDEyLjc4MSwxNC4zYTguMSw4LjEsMCwwLDEsMS41LTUuMjg0QTYuNSw2LjUsMCwwLDEsMTkuMTA5LDdhNi4wNTQsNi4wNTQsMCwwLDEsNS44NjQsNC4wMzNsMS4zMDcsMy4yOUwyOS4zMSwxMi41YTMuOTIyLDMuOTIyLDAsMCwxLDIuMDQzLS41OTEsMy45ODgsMy45ODgsMCwwLDEsMy45MTQsMy4yNDlsLjE1OS44NDVoM2MtLjA0Ny0uNDM5LS4xMDgtLjktLjIxLTEuNEE2Ljk0MSw2Ljk0MSwwLDAsMCwyNy43NjIsOS45MjgsOS40NTIsOS40NTIsMCwwLDAsMTkuMDU1LDRDOC44NjMsNC4yNDIsOS44LDE0LjYyMSw5LjgsMTQuNjIxQTguMzg3LDguMzg3LDAsMCwwLDEyLjQxLDMwLjk4NkgyNC4zWiIvPjwvc3ZnPg==;" vertex="1" parent="1">
          <mxGeometry x="877.04" y="-91" width="48" height="48" as="geometry" />
        </mxCell>
        <mxCell id="KJaW32-MUoOeKXqnR98N-231" style="edgeStyle=orthogonalEdgeStyle;rounded=0;orthogonalLoop=1;jettySize=auto;html=1;entryX=0;entryY=0.75;entryDx=0;entryDy=0;" edge="1" parent="1" source="KJaW32-MUoOeKXqnR98N-190" target="KJaW32-MUoOeKXqnR98N-230">
          <mxGeometry relative="1" as="geometry" />
        </mxCell>
        <mxCell id="KJaW32-MUoOeKXqnR98N-260" style="edgeStyle=orthogonalEdgeStyle;rounded=0;orthogonalLoop=1;jettySize=auto;html=1;dashed=1;strokeColor=#188918;strokeWidth=1.5;align=center;verticalAlign=middle;fontFamily=Helvetica;fontSize=11;fontColor=default;labelBackgroundColor=default;startArrow=classic;startFill=1;endArrow=classic;endFill=1;" edge="1" parent="1" source="KJaW32-MUoOeKXqnR98N-258" target="KJaW32-MUoOeKXqnR98N-180">
          <mxGeometry relative="1" as="geometry" />
        </mxCell>
        <mxCell id="KJaW32-MUoOeKXqnR98N-258" value="&lt;span style=&quot;text-wrap-mode: nowrap;&quot;&gt;Atribuição Automática&lt;/span&gt;" style="rounded=1;whiteSpace=wrap;html=1;strokeColor=#188918;strokeWidth=1.5;arcSize=16;fillColor=#F5FAE5;perimeterSpacing=0;absoluteArcSize=1;fontColor=#188918;fontSize=10;fontStyle=1" vertex="1" parent="1">
          <mxGeometry x="414" y="-390" width="110" height="15.79" as="geometry" />
        </mxCell>
        <mxCell id="KJaW32-MUoOeKXqnR98N-259" style="edgeStyle=orthogonalEdgeStyle;rounded=0;orthogonalLoop=1;jettySize=auto;html=1;entryX=0.5;entryY=0;entryDx=0;entryDy=0;dashed=1;strokeColor=#188918;strokeWidth=1.5;align=center;verticalAlign=middle;fontFamily=Helvetica;fontSize=11;fontColor=default;labelBackgroundColor=default;startArrow=none;startFill=0;endArrow=classic;endFill=1;" edge="1" parent="1" source="KJaW32-MUoOeKXqnR98N-251" target="KJaW32-MUoOeKXqnR98N-258">
          <mxGeometry relative="1" as="geometry" />
        </mxCell>
        <mxCell id="KJaW32-MUoOeKXqnR98N-262" value="&lt;span style=&quot;text-wrap-mode: nowrap;&quot;&gt;Evento???&lt;/span&gt;" style="rounded=1;whiteSpace=wrap;html=1;strokeColor=#188918;strokeWidth=1.5;arcSize=16;fillColor=#F5FAE5;perimeterSpacing=0;absoluteArcSize=1;fontColor=#188918;fontSize=10;fontStyle=1" vertex="1" parent="1">
          <mxGeometry x="629.7" y="-380" width="110" height="15.79" as="geometry" />
        </mxCell>
        <mxCell id="KJaW32-MUoOeKXqnR98N-263" style="edgeStyle=orthogonalEdgeStyle;rounded=0;orthogonalLoop=1;jettySize=auto;html=1;dashed=1;strokeColor=#188918;strokeWidth=1.5;align=center;verticalAlign=middle;fontFamily=Helvetica;fontSize=11;fontColor=default;labelBackgroundColor=default;startArrow=none;startFill=0;endArrow=classic;endFill=1;" edge="1" parent="1" source="KJaW32-MUoOeKXqnR98N-243" target="KJaW32-MUoOeKXqnR98N-262">
          <mxGeometry relative="1" as="geometry" />
        </mxCell>
        <mxCell id="KJaW32-MUoOeKXqnR98N-265" style="edgeStyle=orthogonalEdgeStyle;rounded=0;orthogonalLoop=1;jettySize=auto;html=1;entryX=0.657;entryY=0.056;entryDx=0;entryDy=0;entryPerimeter=0;dashed=1;strokeColor=#188918;strokeWidth=1.5;align=center;verticalAlign=middle;fontFamily=Helvetica;fontSize=11;fontColor=default;labelBackgroundColor=default;startArrow=none;startFill=0;endArrow=classic;endFill=1;" edge="1" parent="1" source="KJaW32-MUoOeKXqnR98N-262" target="KJaW32-MUoOeKXqnR98N-249">
          <mxGeometry relative="1" as="geometry" />
        </mxCell>
      </root>
    </mxGraphModel>
  </diagram>
</mxfile>
